G04 #@! TF.GenerationSoftware,KiCad,Pcbnew,9.0.1*
G04 #@! TF.CreationDate,2025-07-07T22:16:25-04:00*
G04 #@! TF.ProjectId,shrieker,73687269-656b-4657-922e-6b696361645f,rev?*
G04 #@! TF.SameCoordinates,Original*
G04 #@! TF.FileFunction,Soldermask,Top*
G04 #@! TF.FilePolarity,Negative*
%FSLAX46Y46*%
G04 Gerber Fmt 4.6, Leading zero omitted, Abs format (unit mm)*
G04 Created by KiCad (PCBNEW 9.0.1) date 2025-07-07 22:16:25*
%MOMM*%
%LPD*%
G01*
G04 APERTURE LIST*
%ADD10R,1.000000X1.500000*%
%ADD11R,1.500000X1.000000*%
G04 APERTURE END LIST*
D10*
G04 #@! TO.C,D18*
X216300000Y-66400000D03*
X219500000Y-66400000D03*
X219500000Y-61500000D03*
X216300000Y-61500000D03*
G04 #@! TD*
D11*
G04 #@! TO.C,D11*
X231000000Y-101800000D03*
X231000000Y-105000000D03*
X235900000Y-105000000D03*
X235900000Y-101800000D03*
G04 #@! TD*
G04 #@! TO.C,D13*
X231050000Y-85900000D03*
X231050000Y-89100000D03*
X235950000Y-89100000D03*
X235950000Y-85900000D03*
G04 #@! TD*
D10*
G04 #@! TO.C,D8*
X209000000Y-106450000D03*
X212200000Y-106450000D03*
X212200000Y-101550000D03*
X209000000Y-101550000D03*
G04 #@! TD*
D11*
G04 #@! TO.C,D3*
X192550000Y-77800000D03*
X192550000Y-81000000D03*
X197450000Y-81000000D03*
X197450000Y-77800000D03*
G04 #@! TD*
D10*
G04 #@! TO.C,D9*
X216500000Y-106450000D03*
X219700000Y-106450000D03*
X219700000Y-101550000D03*
X216500000Y-101550000D03*
G04 #@! TD*
D11*
G04 #@! TO.C,D6*
X192600000Y-101800000D03*
X192600000Y-105000000D03*
X197500000Y-105000000D03*
X197500000Y-101800000D03*
G04 #@! TD*
G04 #@! TO.C,D5*
X192600000Y-94000000D03*
X192600000Y-97200000D03*
X197500000Y-97200000D03*
X197500000Y-94000000D03*
G04 #@! TD*
G04 #@! TO.C,D4*
X192550000Y-85800000D03*
X192550000Y-89000000D03*
X197450000Y-89000000D03*
X197450000Y-85800000D03*
G04 #@! TD*
D10*
G04 #@! TO.C,D10*
X224000000Y-106500000D03*
X227200000Y-106500000D03*
X227200000Y-101600000D03*
X224000000Y-101600000D03*
G04 #@! TD*
G04 #@! TO.C,D17*
X223900000Y-66450000D03*
X227100000Y-66450000D03*
X227100000Y-61550000D03*
X223900000Y-61550000D03*
G04 #@! TD*
G04 #@! TO.C,D19*
X208900000Y-66450000D03*
X212100000Y-66450000D03*
X212100000Y-61550000D03*
X208900000Y-61550000D03*
G04 #@! TD*
D11*
G04 #@! TO.C,D2*
X192550000Y-69900000D03*
X192550000Y-73100000D03*
X197450000Y-73100000D03*
X197450000Y-69900000D03*
G04 #@! TD*
G04 #@! TO.C,D16*
X231100000Y-62500000D03*
X231100000Y-65700000D03*
X236000000Y-65700000D03*
X236000000Y-62500000D03*
G04 #@! TD*
G04 #@! TO.C,D12*
X231100000Y-93800000D03*
X231100000Y-97000000D03*
X236000000Y-97000000D03*
X236000000Y-93800000D03*
G04 #@! TD*
D10*
G04 #@! TO.C,D20*
X201500000Y-66400000D03*
X204700000Y-66400000D03*
X204700000Y-61500000D03*
X201500000Y-61500000D03*
G04 #@! TD*
D11*
G04 #@! TO.C,D15*
X231050000Y-69900000D03*
X231050000Y-73100000D03*
X235950000Y-73100000D03*
X235950000Y-69900000D03*
G04 #@! TD*
D10*
G04 #@! TO.C,D7*
X201400000Y-106400000D03*
X204600000Y-106400000D03*
X204600000Y-101500000D03*
X201400000Y-101500000D03*
G04 #@! TD*
D11*
G04 #@! TO.C,D14*
X231050000Y-77900000D03*
X231050000Y-81100000D03*
X235950000Y-81100000D03*
X235950000Y-77900000D03*
G04 #@! TD*
G04 #@! TO.C,D1*
X192550000Y-62400000D03*
X192550000Y-65600000D03*
X197450000Y-65600000D03*
X197450000Y-62400000D03*
G04 #@! TD*
M02*
