M48
; DRILL file {KiCad 9.0.1} date 2025-07-07T22:16:25-0400
; FORMAT={-:-/ absolute / metric / decimal}
; #@! TF.CreationDate,2025-07-07T22:16:25-04:00
; #@! TF.GenerationSoftware,Kicad,Pcbnew,9.0.1
; #@! TF.FileFunction,Plated,1,2,PTH
FMAT,2
METRIC
; #@! TA.AperFunction,Plated,PTH,ViaDrill
T1C0.300
%
G90
G05
T1
X191.5Y-64.0
X192.0Y-71.5
X192.5Y-79.5
X192.5Y-87.5
X192.5Y-95.5
X192.5Y-103.5
X194.5Y-61.5
X199.0Y-67.0
X199.75Y-104.25
X203.0Y-61.5
X203.0Y-106.5
X206.75Y-101.5
X210.5Y-61.5
X210.5Y-66.75
X210.5Y-106.5
X214.25Y-66.75
X214.25Y-101.25
X218.0Y-61.5
X218.0Y-106.5
X221.75Y-66.75
X221.75Y-101.25
X225.5Y-61.5
X225.5Y-106.5
X231.0Y-64.0
X231.0Y-71.5
X231.0Y-79.5
X231.0Y-87.5
X231.0Y-95.5
X231.0Y-103.5
X233.75Y-61.0
M30
