%TF.GenerationSoftware,KiCad,Pcbnew,9.0.1*%
%TF.CreationDate,2025-07-07T22:16:25-04:00*%
%TF.ProjectId,shrieker,73687269-656b-4657-922e-6b696361645f,rev?*%
%TF.SameCoordinates,Original*%
%TF.FileFunction,Drillmap*%
%TF.FilePolarity,Positive*%
%FSLAX45Y45*%
G04 Gerber Fmt 4.5, Leading zero omitted, Abs format (unit mm)*
G04 Created by KiCad (PCBNEW 9.0.1) date 2025-07-07 22:16:25*
%MOMM*%
%LPD*%
G01*
G04 APERTURE LIST*
%ADD10C,0.050000*%
%ADD11C,0.200000*%
G04 APERTURE END LIST*
D10*
X19000000Y-6000000D02*
X23800000Y-6000000D01*
X23800000Y-10800000D01*
X19000000Y-10800000D01*
X19000000Y-6000000D01*
X20000000Y-6800000D02*
X22900000Y-6800000D01*
X22900000Y-10000000D01*
X20000000Y-10000000D01*
X20000000Y-6800000D01*
D11*
X19258277Y-11113984D02*
X19258277Y-10913984D01*
X19258277Y-10913984D02*
X19305896Y-10913984D01*
X19305896Y-10913984D02*
X19334467Y-10923508D01*
X19334467Y-10923508D02*
X19353515Y-10942555D01*
X19353515Y-10942555D02*
X19363039Y-10961603D01*
X19363039Y-10961603D02*
X19372563Y-10999698D01*
X19372563Y-10999698D02*
X19372563Y-11028270D01*
X19372563Y-11028270D02*
X19363039Y-11066365D01*
X19363039Y-11066365D02*
X19353515Y-11085412D01*
X19353515Y-11085412D02*
X19334467Y-11104460D01*
X19334467Y-11104460D02*
X19305896Y-11113984D01*
X19305896Y-11113984D02*
X19258277Y-11113984D01*
X19458277Y-11113984D02*
X19458277Y-10980650D01*
X19458277Y-11018746D02*
X19467801Y-10999698D01*
X19467801Y-10999698D02*
X19477324Y-10990174D01*
X19477324Y-10990174D02*
X19496372Y-10980650D01*
X19496372Y-10980650D02*
X19515420Y-10980650D01*
X19582086Y-11113984D02*
X19582086Y-10980650D01*
X19582086Y-10913984D02*
X19572563Y-10923508D01*
X19572563Y-10923508D02*
X19582086Y-10933031D01*
X19582086Y-10933031D02*
X19591610Y-10923508D01*
X19591610Y-10923508D02*
X19582086Y-10913984D01*
X19582086Y-10913984D02*
X19582086Y-10933031D01*
X19705896Y-11113984D02*
X19686848Y-11104460D01*
X19686848Y-11104460D02*
X19677324Y-11085412D01*
X19677324Y-11085412D02*
X19677324Y-10913984D01*
X19810658Y-11113984D02*
X19791610Y-11104460D01*
X19791610Y-11104460D02*
X19782086Y-11085412D01*
X19782086Y-11085412D02*
X19782086Y-10913984D01*
X20039229Y-11113984D02*
X20039229Y-10913984D01*
X20039229Y-10913984D02*
X20105896Y-11056841D01*
X20105896Y-11056841D02*
X20172563Y-10913984D01*
X20172563Y-10913984D02*
X20172563Y-11113984D01*
X20353515Y-11113984D02*
X20353515Y-11009222D01*
X20353515Y-11009222D02*
X20343991Y-10990174D01*
X20343991Y-10990174D02*
X20324944Y-10980650D01*
X20324944Y-10980650D02*
X20286848Y-10980650D01*
X20286848Y-10980650D02*
X20267801Y-10990174D01*
X20353515Y-11104460D02*
X20334467Y-11113984D01*
X20334467Y-11113984D02*
X20286848Y-11113984D01*
X20286848Y-11113984D02*
X20267801Y-11104460D01*
X20267801Y-11104460D02*
X20258277Y-11085412D01*
X20258277Y-11085412D02*
X20258277Y-11066365D01*
X20258277Y-11066365D02*
X20267801Y-11047317D01*
X20267801Y-11047317D02*
X20286848Y-11037793D01*
X20286848Y-11037793D02*
X20334467Y-11037793D01*
X20334467Y-11037793D02*
X20353515Y-11028270D01*
X20448753Y-10980650D02*
X20448753Y-11180650D01*
X20448753Y-10990174D02*
X20467801Y-10980650D01*
X20467801Y-10980650D02*
X20505896Y-10980650D01*
X20505896Y-10980650D02*
X20524944Y-10990174D01*
X20524944Y-10990174D02*
X20534467Y-10999698D01*
X20534467Y-10999698D02*
X20543991Y-11018746D01*
X20543991Y-11018746D02*
X20543991Y-11075889D01*
X20543991Y-11075889D02*
X20534467Y-11094936D01*
X20534467Y-11094936D02*
X20524944Y-11104460D01*
X20524944Y-11104460D02*
X20505896Y-11113984D01*
X20505896Y-11113984D02*
X20467801Y-11113984D01*
X20467801Y-11113984D02*
X20448753Y-11104460D01*
X20629705Y-11094936D02*
X20639229Y-11104460D01*
X20639229Y-11104460D02*
X20629705Y-11113984D01*
X20629705Y-11113984D02*
X20620182Y-11104460D01*
X20620182Y-11104460D02*
X20629705Y-11094936D01*
X20629705Y-11094936D02*
X20629705Y-11113984D01*
X20629705Y-10990174D02*
X20639229Y-10999698D01*
X20639229Y-10999698D02*
X20629705Y-11009222D01*
X20629705Y-11009222D02*
X20620182Y-10999698D01*
X20620182Y-10999698D02*
X20629705Y-10990174D01*
X20629705Y-10990174D02*
X20629705Y-11009222D01*
M02*
