G04 #@! TF.GenerationSoftware,KiCad,Pcbnew,9.0.1*
G04 #@! TF.CreationDate,2025-07-07T22:16:25-04:00*
G04 #@! TF.ProjectId,shrieker,73687269-656b-4657-922e-6b696361645f,rev?*
G04 #@! TF.SameCoordinates,Original*
G04 #@! TF.FileFunction,Copper,L2,Bot*
G04 #@! TF.FilePolarity,Positive*
%FSLAX46Y46*%
G04 Gerber Fmt 4.6, Leading zero omitted, Abs format (unit mm)*
G04 Created by KiCad (PCBNEW 9.0.1) date 2025-07-07 22:16:25*
%MOMM*%
%LPD*%
G01*
G04 APERTURE LIST*
G04 Aperture macros list*
%AMRoundRect*
0 Rectangle with rounded corners*
0 $1 Rounding radius*
0 $2 $3 $4 $5 $6 $7 $8 $9 X,Y pos of 4 corners*
0 Add a 4 corners polygon primitive as box body*
4,1,4,$2,$3,$4,$5,$6,$7,$8,$9,$2,$3,0*
0 Add four circle primitives for the rounded corners*
1,1,$1+$1,$2,$3*
1,1,$1+$1,$4,$5*
1,1,$1+$1,$6,$7*
1,1,$1+$1,$8,$9*
0 Add four rect primitives between the rounded corners*
20,1,$1+$1,$2,$3,$4,$5,0*
20,1,$1+$1,$4,$5,$6,$7,0*
20,1,$1+$1,$6,$7,$8,$9,0*
20,1,$1+$1,$8,$9,$2,$3,0*%
G04 Aperture macros list end*
G04 #@! TA.AperFunction,SMDPad,CuDef*
%ADD10RoundRect,0.367875X2.132125X-0.858375X2.132125X0.858375X-2.132125X0.858375X-2.132125X-0.858375X0*%
G04 #@! TD*
G04 #@! TA.AperFunction,SMDPad,CuDef*
%ADD11RoundRect,0.375000X2.125000X-0.875000X2.125000X0.875000X-2.125000X0.875000X-2.125000X-0.875000X0*%
G04 #@! TD*
G04 #@! TA.AperFunction,ViaPad*
%ADD12C,0.600000*%
G04 #@! TD*
G04 #@! TA.AperFunction,Conductor*
%ADD13C,0.200000*%
G04 #@! TD*
G04 APERTURE END LIST*
D10*
G04 #@! TO.P,REF\u002A\u002A,1*
G04 #@! TO.N,GND*
X195000000Y-64226250D03*
D11*
G04 #@! TO.P,REF\u002A\u002A,2*
G04 #@! TO.N,+3.3V*
X195000000Y-67500000D03*
G04 #@! TO.P,REF\u002A\u002A,3*
G04 #@! TO.N,LED*
X195000000Y-70750000D03*
G04 #@! TD*
D12*
G04 #@! TO.N,+3.3V*
X221750000Y-66750000D03*
X199000000Y-67000000D03*
X221750000Y-101250000D03*
X210500000Y-66750000D03*
X233750000Y-61000000D03*
X214250000Y-101250000D03*
X214250000Y-66750000D03*
X206750000Y-101500000D03*
X199750000Y-104250000D03*
G04 #@! TO.N,GND*
X225500000Y-61500000D03*
X192500000Y-95500000D03*
X192500000Y-87500000D03*
X231000000Y-79500000D03*
X210500000Y-61500000D03*
X192500000Y-79500000D03*
X231000000Y-71500000D03*
X231000000Y-87500000D03*
X210500000Y-106500000D03*
X203000000Y-61500000D03*
X218000000Y-106500000D03*
X225500000Y-106500000D03*
X194500000Y-61500000D03*
X191500000Y-64000000D03*
X218000000Y-61500000D03*
X231000000Y-95500000D03*
X231000000Y-64000000D03*
X203000000Y-106500000D03*
X231000000Y-103500000D03*
X192500000Y-103500000D03*
G04 #@! TO.N,LED*
X192000000Y-71500000D03*
G04 #@! TD*
D13*
G04 #@! TO.N,+3.3V*
X214000000Y-101500000D02*
X214250000Y-101250000D01*
X214250000Y-66750000D02*
X221750000Y-66750000D01*
X206750000Y-101500000D02*
X214000000Y-101500000D01*
X214250000Y-66750000D02*
X210500000Y-66750000D01*
X195000000Y-67500000D02*
X198500000Y-67500000D01*
X221750000Y-66750000D02*
X227500000Y-61000000D01*
X199750000Y-104250000D02*
X204000000Y-104250000D01*
X227500000Y-61000000D02*
X233750000Y-61000000D01*
X214250000Y-101250000D02*
X221750000Y-101250000D01*
X198500000Y-67500000D02*
X199000000Y-67000000D01*
X204000000Y-104250000D02*
X206750000Y-101500000D01*
G04 #@! TO.N,LED*
X192000000Y-71500000D02*
X192750000Y-70750000D01*
X192750000Y-70750000D02*
X195000000Y-70750000D01*
G04 #@! TD*
G04 #@! TA.AperFunction,Conductor*
G04 #@! TO.N,GND*
G36*
X226917941Y-60520185D02*
G01*
X226963696Y-60572989D01*
X226973640Y-60642147D01*
X226944615Y-60705703D01*
X226938583Y-60712181D01*
X221735339Y-65915425D01*
X221674016Y-65948910D01*
X221671850Y-65949361D01*
X221516508Y-65980261D01*
X221516498Y-65980264D01*
X221370827Y-66040602D01*
X221370814Y-66040609D01*
X221239125Y-66128602D01*
X221172447Y-66149480D01*
X221170234Y-66149500D01*
X214829766Y-66149500D01*
X214762727Y-66129815D01*
X214760875Y-66128602D01*
X214629185Y-66040609D01*
X214629172Y-66040602D01*
X214483501Y-65980264D01*
X214483489Y-65980261D01*
X214328845Y-65949500D01*
X214328842Y-65949500D01*
X214171158Y-65949500D01*
X214171155Y-65949500D01*
X214016510Y-65980261D01*
X214016498Y-65980264D01*
X213870827Y-66040602D01*
X213870814Y-66040609D01*
X213739125Y-66128602D01*
X213672447Y-66149480D01*
X213670234Y-66149500D01*
X211079766Y-66149500D01*
X211012727Y-66129815D01*
X211010875Y-66128602D01*
X210879185Y-66040609D01*
X210879172Y-66040602D01*
X210733501Y-65980264D01*
X210733489Y-65980261D01*
X210578845Y-65949500D01*
X210578842Y-65949500D01*
X210421158Y-65949500D01*
X210421155Y-65949500D01*
X210266510Y-65980261D01*
X210266498Y-65980264D01*
X210120827Y-66040602D01*
X210120814Y-66040609D01*
X209989711Y-66128210D01*
X209989707Y-66128213D01*
X209878213Y-66239707D01*
X209878210Y-66239711D01*
X209790609Y-66370814D01*
X209790602Y-66370827D01*
X209730264Y-66516498D01*
X209730261Y-66516510D01*
X209699500Y-66671153D01*
X209699500Y-66828846D01*
X209730261Y-66983489D01*
X209730264Y-66983501D01*
X209790602Y-67129172D01*
X209790609Y-67129185D01*
X209878210Y-67260288D01*
X209878213Y-67260292D01*
X209905740Y-67287819D01*
X209939225Y-67349142D01*
X209934241Y-67418834D01*
X209892369Y-67474767D01*
X209826905Y-67499184D01*
X209818059Y-67499500D01*
X199934106Y-67499500D01*
X199868156Y-67517171D01*
X199798306Y-67515508D01*
X199740444Y-67476344D01*
X199712941Y-67412116D01*
X199721502Y-67349946D01*
X199769737Y-67233497D01*
X199800500Y-67078842D01*
X199800500Y-66921158D01*
X199800500Y-66921155D01*
X199800499Y-66921153D01*
X199769738Y-66766510D01*
X199769737Y-66766503D01*
X199760940Y-66745264D01*
X199709397Y-66620827D01*
X199709390Y-66620814D01*
X199621789Y-66489711D01*
X199621786Y-66489707D01*
X199510292Y-66378213D01*
X199510288Y-66378210D01*
X199379185Y-66290609D01*
X199379172Y-66290602D01*
X199233501Y-66230264D01*
X199233489Y-66230261D01*
X199078845Y-66199500D01*
X199078842Y-66199500D01*
X198921158Y-66199500D01*
X198921155Y-66199500D01*
X198766510Y-66230261D01*
X198766498Y-66230264D01*
X198620827Y-66290602D01*
X198620814Y-66290609D01*
X198489711Y-66378210D01*
X198489707Y-66378213D01*
X198378213Y-66489707D01*
X198378210Y-66489711D01*
X198290609Y-66620814D01*
X198290602Y-66620827D01*
X198239060Y-66745264D01*
X198195219Y-66799668D01*
X198128925Y-66821733D01*
X198061226Y-66804454D01*
X198013615Y-66753317D01*
X198000499Y-66697812D01*
X198000499Y-66548877D01*
X198000498Y-66548876D01*
X197997600Y-66506111D01*
X197951641Y-66321307D01*
X197911173Y-66239711D01*
X197867032Y-66150707D01*
X197867030Y-66150704D01*
X197747724Y-66002280D01*
X197747722Y-66002278D01*
X197681975Y-65949429D01*
X197642059Y-65892089D01*
X197639479Y-65822267D01*
X197675057Y-65762135D01*
X197681978Y-65756137D01*
X197749426Y-65701921D01*
X197867693Y-65554790D01*
X197951567Y-65385674D01*
X197997125Y-65202483D01*
X198000000Y-65160095D01*
X198000000Y-63292404D01*
X197997125Y-63250016D01*
X197951567Y-63066825D01*
X197867693Y-62897709D01*
X197749424Y-62750576D01*
X197749423Y-62750575D01*
X197602290Y-62632306D01*
X197433174Y-62548432D01*
X197249981Y-62502874D01*
X197249985Y-62502874D01*
X197207596Y-62500000D01*
X196986250Y-62500000D01*
X196978239Y-62519338D01*
X196978829Y-62520418D01*
X196973845Y-62590110D01*
X196945344Y-62634457D01*
X195264457Y-64315345D01*
X195203134Y-64348830D01*
X195133442Y-64343846D01*
X195089095Y-64315345D01*
X195000000Y-64226250D01*
X194910905Y-64315345D01*
X194849582Y-64348830D01*
X194779890Y-64343846D01*
X194735543Y-64315345D01*
X193054655Y-62634457D01*
X193050316Y-62626511D01*
X193043067Y-62621084D01*
X193033833Y-62596324D01*
X193021170Y-62573134D01*
X193021815Y-62564102D01*
X193018652Y-62555619D01*
X193024269Y-62529799D01*
X193024537Y-62526044D01*
X193013750Y-62500000D01*
X193627301Y-62500000D01*
X195000000Y-63872698D01*
X196372698Y-62500000D01*
X193627301Y-62500000D01*
X193013750Y-62500000D01*
X192792404Y-62500000D01*
X192750016Y-62502874D01*
X192566825Y-62548432D01*
X192397709Y-62632306D01*
X192250576Y-62750575D01*
X192250575Y-62750576D01*
X192132306Y-62897709D01*
X192048432Y-63066825D01*
X192002874Y-63250016D01*
X192000000Y-63292404D01*
X192000000Y-65160095D01*
X192002874Y-65202483D01*
X192048432Y-65385674D01*
X192132306Y-65554790D01*
X192250575Y-65701923D01*
X192250576Y-65701924D01*
X192318021Y-65756138D01*
X192357940Y-65813481D01*
X192360520Y-65883303D01*
X192324941Y-65943436D01*
X192318021Y-65949432D01*
X192252278Y-66002277D01*
X192252277Y-66002278D01*
X192132969Y-66150704D01*
X192132967Y-66150707D01*
X192048360Y-66321302D01*
X192002400Y-66506107D01*
X191999500Y-66548879D01*
X191999500Y-68451122D01*
X191999501Y-68451125D01*
X192002399Y-68493886D01*
X192002399Y-68493887D01*
X192048360Y-68678696D01*
X192132967Y-68849292D01*
X192132969Y-68849295D01*
X192132970Y-68849296D01*
X192252278Y-68997722D01*
X192290385Y-69028353D01*
X192330303Y-69085697D01*
X192332883Y-69155519D01*
X192297304Y-69215651D01*
X192290388Y-69221643D01*
X192290384Y-69221648D01*
X192252276Y-69252280D01*
X192132969Y-69400704D01*
X192132967Y-69400707D01*
X192048360Y-69571302D01*
X192002400Y-69756107D01*
X191999500Y-69798879D01*
X191999500Y-70582152D01*
X191979815Y-70649191D01*
X191927011Y-70694946D01*
X191899692Y-70703769D01*
X191766508Y-70730261D01*
X191766498Y-70730264D01*
X191620827Y-70790602D01*
X191620814Y-70790609D01*
X191489711Y-70878210D01*
X191489707Y-70878213D01*
X191378213Y-70989707D01*
X191378210Y-70989711D01*
X191290609Y-71120814D01*
X191290602Y-71120827D01*
X191230264Y-71266498D01*
X191230261Y-71266510D01*
X191199500Y-71421153D01*
X191199500Y-71578846D01*
X191230261Y-71733489D01*
X191230264Y-71733501D01*
X191290602Y-71879172D01*
X191290609Y-71879185D01*
X191378210Y-72010288D01*
X191378213Y-72010292D01*
X191489707Y-72121786D01*
X191489711Y-72121789D01*
X191620814Y-72209390D01*
X191620827Y-72209397D01*
X191736033Y-72257116D01*
X191766503Y-72269737D01*
X191911792Y-72298637D01*
X191921153Y-72300499D01*
X191921156Y-72300500D01*
X191921158Y-72300500D01*
X192078844Y-72300500D01*
X192213740Y-72273667D01*
X192283332Y-72279894D01*
X192315619Y-72298637D01*
X192400704Y-72367030D01*
X192400707Y-72367032D01*
X192571302Y-72451639D01*
X192571303Y-72451639D01*
X192571307Y-72451641D01*
X192756111Y-72497600D01*
X192798877Y-72500500D01*
X197201122Y-72500499D01*
X197243889Y-72497600D01*
X197428693Y-72451641D01*
X197599296Y-72367030D01*
X197747722Y-72247722D01*
X197867030Y-72099296D01*
X197951641Y-71928693D01*
X197997600Y-71743889D01*
X198000500Y-71701123D01*
X198000499Y-69798878D01*
X197997600Y-69756111D01*
X197951641Y-69571307D01*
X197949046Y-69566075D01*
X197867032Y-69400707D01*
X197867030Y-69400704D01*
X197747724Y-69252280D01*
X197747722Y-69252278D01*
X197709613Y-69221645D01*
X197669696Y-69164304D01*
X197667116Y-69094482D01*
X197702694Y-69034350D01*
X197709595Y-69028368D01*
X197747722Y-68997722D01*
X197867030Y-68849296D01*
X197951641Y-68678693D01*
X197997600Y-68493889D01*
X198000500Y-68451123D01*
X198000500Y-68224500D01*
X198020185Y-68157461D01*
X198072989Y-68111706D01*
X198124500Y-68100500D01*
X198413331Y-68100500D01*
X198413347Y-68100501D01*
X198420943Y-68100501D01*
X198579054Y-68100501D01*
X198579057Y-68100501D01*
X198731785Y-68059577D01*
X198781904Y-68030639D01*
X198868716Y-67980520D01*
X198980520Y-67868716D01*
X198980521Y-67868714D01*
X199014662Y-67834572D01*
X199075983Y-67801089D01*
X199078150Y-67800638D01*
X199136085Y-67789113D01*
X199233497Y-67769737D01*
X199349945Y-67721502D01*
X199419412Y-67714034D01*
X199481892Y-67745309D01*
X199517544Y-67805398D01*
X199517171Y-67868156D01*
X199499500Y-67934106D01*
X199499500Y-100065891D01*
X199533608Y-100193187D01*
X199566554Y-100250250D01*
X199599500Y-100307314D01*
X199692686Y-100400500D01*
X199806814Y-100466392D01*
X199934108Y-100500500D01*
X200065892Y-100500500D01*
X206447810Y-100500500D01*
X206514849Y-100520185D01*
X206560604Y-100572989D01*
X206570548Y-100642147D01*
X206541523Y-100705703D01*
X206495262Y-100739061D01*
X206370827Y-100790602D01*
X206370814Y-100790609D01*
X206239711Y-100878210D01*
X206239707Y-100878213D01*
X206128213Y-100989707D01*
X206128210Y-100989711D01*
X206040609Y-101120814D01*
X206040602Y-101120827D01*
X205980264Y-101266498D01*
X205980261Y-101266508D01*
X205949361Y-101421850D01*
X205916976Y-101483761D01*
X205915425Y-101485339D01*
X203787584Y-103613181D01*
X203726261Y-103646666D01*
X203699903Y-103649500D01*
X200329766Y-103649500D01*
X200262727Y-103629815D01*
X200260875Y-103628602D01*
X200129185Y-103540609D01*
X200129172Y-103540602D01*
X199983501Y-103480264D01*
X199983489Y-103480261D01*
X199828845Y-103449500D01*
X199828842Y-103449500D01*
X199671158Y-103449500D01*
X199671155Y-103449500D01*
X199516510Y-103480261D01*
X199516498Y-103480264D01*
X199370827Y-103540602D01*
X199370814Y-103540609D01*
X199239711Y-103628210D01*
X199239707Y-103628213D01*
X199128213Y-103739707D01*
X199128210Y-103739711D01*
X199040609Y-103870814D01*
X199040602Y-103870827D01*
X198980264Y-104016498D01*
X198980261Y-104016510D01*
X198949500Y-104171153D01*
X198949500Y-104328846D01*
X198980261Y-104483489D01*
X198980264Y-104483501D01*
X199040602Y-104629172D01*
X199040609Y-104629185D01*
X199128210Y-104760288D01*
X199128213Y-104760292D01*
X199239707Y-104871786D01*
X199239711Y-104871789D01*
X199370814Y-104959390D01*
X199370827Y-104959397D01*
X199516498Y-105019735D01*
X199516503Y-105019737D01*
X199671153Y-105050499D01*
X199671156Y-105050500D01*
X199671158Y-105050500D01*
X199828844Y-105050500D01*
X199828845Y-105050499D01*
X199983497Y-105019737D01*
X200129179Y-104959394D01*
X200129185Y-104959390D01*
X200260875Y-104871398D01*
X200327553Y-104850520D01*
X200329766Y-104850500D01*
X203913331Y-104850500D01*
X203913347Y-104850501D01*
X203920943Y-104850501D01*
X204079054Y-104850501D01*
X204079057Y-104850501D01*
X204231785Y-104809577D01*
X204281904Y-104780639D01*
X204368716Y-104730520D01*
X204480520Y-104618716D01*
X204480520Y-104618714D01*
X204490728Y-104608507D01*
X204490729Y-104608504D01*
X206764662Y-102334572D01*
X206825983Y-102301089D01*
X206828150Y-102300638D01*
X206886085Y-102289113D01*
X206983497Y-102269737D01*
X207129179Y-102209394D01*
X207129185Y-102209390D01*
X207260875Y-102121398D01*
X207327553Y-102100520D01*
X207329766Y-102100500D01*
X213913331Y-102100500D01*
X213913347Y-102100501D01*
X213920943Y-102100501D01*
X214079054Y-102100501D01*
X214079057Y-102100501D01*
X214231785Y-102059577D01*
X214231786Y-102059575D01*
X214239635Y-102057473D01*
X214239820Y-102058165D01*
X214278364Y-102050500D01*
X214328844Y-102050500D01*
X214328845Y-102050499D01*
X214483497Y-102019737D01*
X214629179Y-101959394D01*
X214629185Y-101959390D01*
X214760875Y-101871398D01*
X214827553Y-101850520D01*
X214829766Y-101850500D01*
X221170234Y-101850500D01*
X221237273Y-101870185D01*
X221239125Y-101871398D01*
X221370814Y-101959390D01*
X221370827Y-101959397D01*
X221516498Y-102019735D01*
X221516503Y-102019737D01*
X221671153Y-102050499D01*
X221671156Y-102050500D01*
X221671158Y-102050500D01*
X221828844Y-102050500D01*
X221828845Y-102050499D01*
X221983497Y-102019737D01*
X222129179Y-101959394D01*
X222260289Y-101871789D01*
X222371789Y-101760289D01*
X222459394Y-101629179D01*
X222519737Y-101483497D01*
X222550500Y-101328842D01*
X222550500Y-101171158D01*
X222550500Y-101171155D01*
X222550499Y-101171153D01*
X222519738Y-101016510D01*
X222519737Y-101016503D01*
X222519735Y-101016498D01*
X222459397Y-100870827D01*
X222459390Y-100870814D01*
X222371789Y-100739711D01*
X222371786Y-100739707D01*
X222344260Y-100712181D01*
X222310775Y-100650858D01*
X222315759Y-100581166D01*
X222357631Y-100525233D01*
X222423095Y-100500816D01*
X222431941Y-100500500D01*
X229065890Y-100500500D01*
X229065892Y-100500500D01*
X229193186Y-100466392D01*
X229307314Y-100400500D01*
X229400500Y-100307314D01*
X229466392Y-100193186D01*
X229500500Y-100065892D01*
X229500500Y-67934108D01*
X229466392Y-67806814D01*
X229465574Y-67805398D01*
X229444986Y-67769738D01*
X229400500Y-67692686D01*
X229307314Y-67599500D01*
X229250250Y-67566554D01*
X229193187Y-67533608D01*
X229106157Y-67510289D01*
X229065892Y-67499500D01*
X229065891Y-67499500D01*
X222431941Y-67499500D01*
X222364902Y-67479815D01*
X222319147Y-67427011D01*
X222309203Y-67357853D01*
X222338228Y-67294297D01*
X222344260Y-67287819D01*
X222371786Y-67260292D01*
X222371789Y-67260289D01*
X222459394Y-67129179D01*
X222519737Y-66983497D01*
X222539113Y-66886085D01*
X222550638Y-66828150D01*
X222583023Y-66766239D01*
X222584518Y-66764716D01*
X227712416Y-61636819D01*
X227773739Y-61603334D01*
X227800097Y-61600500D01*
X233170234Y-61600500D01*
X233237273Y-61620185D01*
X233239125Y-61621398D01*
X233370814Y-61709390D01*
X233370827Y-61709397D01*
X233516498Y-61769735D01*
X233516503Y-61769737D01*
X233671153Y-61800499D01*
X233671156Y-61800500D01*
X233671158Y-61800500D01*
X233828844Y-61800500D01*
X233828845Y-61800499D01*
X233983497Y-61769737D01*
X234129179Y-61709394D01*
X234260289Y-61621789D01*
X234371789Y-61510289D01*
X234459394Y-61379179D01*
X234519737Y-61233497D01*
X234550500Y-61078842D01*
X234550500Y-60921158D01*
X234550500Y-60921155D01*
X234550499Y-60921153D01*
X234519738Y-60766510D01*
X234519737Y-60766503D01*
X234480572Y-60671951D01*
X234473104Y-60602483D01*
X234504379Y-60540004D01*
X234564468Y-60504352D01*
X234595134Y-60500500D01*
X237375500Y-60500500D01*
X237442539Y-60520185D01*
X237488294Y-60572989D01*
X237499500Y-60624500D01*
X237499500Y-107375500D01*
X237479815Y-107442539D01*
X237427011Y-107488294D01*
X237375500Y-107499500D01*
X190624500Y-107499500D01*
X190557461Y-107479815D01*
X190511706Y-107427011D01*
X190500500Y-107375500D01*
X190500500Y-60624500D01*
X190520185Y-60557461D01*
X190572989Y-60511706D01*
X190624500Y-60500500D01*
X226850902Y-60500500D01*
X226917941Y-60520185D01*
G37*
G04 #@! TD.AperFunction*
G04 #@! TD*
M02*
