G04 #@! TF.GenerationSoftware,KiCad,Pcbnew,9.0.1*
G04 #@! TF.CreationDate,2025-07-07T22:16:25-04:00*
G04 #@! TF.ProjectId,shrieker,73687269-656b-4657-922e-6b696361645f,rev?*
G04 #@! TF.SameCoordinates,Original*
G04 #@! TF.FileFunction,Legend,Top*
G04 #@! TF.FilePolarity,Positive*
%FSLAX46Y46*%
G04 Gerber Fmt 4.6, Leading zero omitted, Abs format (unit mm)*
G04 Created by KiCad (PCBNEW 9.0.1) date 2025-07-07 22:16:25*
%MOMM*%
%LPD*%
G01*
G04 APERTURE LIST*
%ADD10C,0.120000*%
%ADD11C,0.000000*%
%ADD12R,1.000000X1.500000*%
%ADD13R,1.500000X1.000000*%
G04 APERTURE END LIST*
D10*
G04 #@! TO.C,D18*
X215150000Y-60450000D02*
X215150000Y-67000000D01*
X215150000Y-67000000D02*
X215600000Y-67450000D01*
X215600000Y-67450000D02*
X220650000Y-67450000D01*
X217000000Y-61250000D02*
X218800000Y-61250000D01*
X217000000Y-66650000D02*
X218800000Y-66650000D01*
X220650000Y-60450000D02*
X215150000Y-60450000D01*
X220650000Y-60450000D02*
X220650000Y-67450000D01*
D11*
G04 #@! TO.C,G\u002A\u002A\u002A*
G36*
X209731250Y-103518750D02*
G01*
X209728125Y-103521875D01*
X209725000Y-103518750D01*
X209728125Y-103515625D01*
X209731250Y-103518750D01*
G37*
G36*
X210406250Y-103987500D02*
G01*
X210403125Y-103990625D01*
X210400000Y-103987500D01*
X210403125Y-103984375D01*
X210406250Y-103987500D01*
G37*
G36*
X211187500Y-105137500D02*
G01*
X211184375Y-105140625D01*
X211181250Y-105137500D01*
X211184375Y-105134375D01*
X211187500Y-105137500D01*
G37*
G36*
X210020312Y-105305235D02*
G01*
X210021097Y-105307516D01*
X210012500Y-105308388D01*
X210003627Y-105307405D01*
X210004687Y-105305235D01*
X210017483Y-105304410D01*
X210020312Y-105305235D01*
G37*
G36*
X210079166Y-105305208D02*
G01*
X210078308Y-105308923D01*
X210075000Y-105309375D01*
X210069855Y-105307088D01*
X210070833Y-105305208D01*
X210078250Y-105304460D01*
X210079166Y-105305208D01*
G37*
G36*
X211486936Y-103510676D02*
G01*
X211486170Y-103516489D01*
X211482727Y-103521193D01*
X211478643Y-103516463D01*
X211476350Y-103507262D01*
X211477499Y-103504792D01*
X211483677Y-103503766D01*
X211486936Y-103510676D01*
G37*
G36*
X211092187Y-105304898D02*
G01*
X211096064Y-105306260D01*
X211088966Y-105307203D01*
X211075000Y-105307502D01*
X211059570Y-105307114D01*
X211053787Y-105306105D01*
X211057812Y-105304898D01*
X211078000Y-105303852D01*
X211092187Y-105304898D01*
G37*
G36*
X209730124Y-103483058D02*
G01*
X209730973Y-103494086D01*
X209728048Y-103502139D01*
X209725668Y-103503125D01*
X209718683Y-103498215D01*
X209717214Y-103495312D01*
X209716105Y-103483954D01*
X209719790Y-103475844D01*
X209725533Y-103475329D01*
X209730124Y-103483058D01*
G37*
G36*
X208986735Y-104987777D02*
G01*
X208985560Y-104993599D01*
X208977236Y-105001262D01*
X208966038Y-105007531D01*
X208958180Y-105009375D01*
X208950652Y-105006176D01*
X208950000Y-105004128D01*
X208955096Y-104997876D01*
X208966656Y-104991419D01*
X208979089Y-104987246D01*
X208986735Y-104987777D01*
G37*
G36*
X210145312Y-105304853D02*
G01*
X210150029Y-105306079D01*
X210143648Y-105306975D01*
X210127570Y-105307369D01*
X210125000Y-105307374D01*
X210107829Y-105307054D01*
X210100183Y-105306210D01*
X210103464Y-105305015D01*
X210104687Y-105304853D01*
X210126603Y-105303819D01*
X210145312Y-105304853D01*
G37*
G36*
X212238492Y-104987787D02*
G01*
X212247242Y-104993551D01*
X212255568Y-105000421D01*
X212253587Y-105002644D01*
X212246354Y-105002926D01*
X212233850Y-105001288D01*
X212229166Y-104998958D01*
X212225150Y-104990461D01*
X212228294Y-104984660D01*
X212230055Y-104984375D01*
X212238492Y-104987787D01*
G37*
G36*
X211050936Y-102895614D02*
G01*
X211063011Y-102904255D01*
X211074337Y-102914277D01*
X211090059Y-102930954D01*
X211097825Y-102944892D01*
X211099996Y-102960415D01*
X211100000Y-102961312D01*
X211097116Y-102980229D01*
X211087910Y-102990405D01*
X211073862Y-102994120D01*
X211051548Y-102996154D01*
X211025083Y-102996559D01*
X210998580Y-102995387D01*
X210976155Y-102992690D01*
X210962500Y-102988825D01*
X210948949Y-102976039D01*
X210945268Y-102958295D01*
X210951868Y-102938809D01*
X210955451Y-102933684D01*
X210963215Y-102925325D01*
X210972282Y-102920814D01*
X210986325Y-102919203D01*
X211009018Y-102919543D01*
X211010088Y-102919582D01*
X211037671Y-102919934D01*
X211053736Y-102918374D01*
X211059157Y-102914622D01*
X211054810Y-102908396D01*
X211051946Y-102906161D01*
X211044652Y-102898228D01*
X211044660Y-102893881D01*
X211050936Y-102895614D01*
G37*
G36*
X210610743Y-102017284D02*
G01*
X210632328Y-102019735D01*
X210648789Y-102022930D01*
X210656096Y-102025889D01*
X210659849Y-102034860D01*
X210663721Y-102051479D01*
X210665277Y-102060937D01*
X210667412Y-102078764D01*
X210666295Y-102087493D01*
X210660691Y-102090365D01*
X210653954Y-102090625D01*
X210637733Y-102094481D01*
X210625926Y-102103922D01*
X210622045Y-102115752D01*
X210622809Y-102118930D01*
X210622081Y-102125598D01*
X210611575Y-102128039D01*
X210607333Y-102128125D01*
X210593520Y-102126282D01*
X210587661Y-102118413D01*
X210586352Y-102110937D01*
X210582733Y-102098569D01*
X210573026Y-102093102D01*
X210564062Y-102091791D01*
X210550943Y-102089513D01*
X210545180Y-102083494D01*
X210543773Y-102069808D01*
X210543750Y-102065229D01*
X210548056Y-102040661D01*
X210557042Y-102027332D01*
X210565982Y-102020091D01*
X210576675Y-102016601D01*
X210593013Y-102016134D01*
X210610743Y-102017284D01*
G37*
G36*
X211181464Y-103025132D02*
G01*
X211187352Y-103034017D01*
X211182729Y-103044139D01*
X211173841Y-103050080D01*
X211160749Y-103058806D01*
X211160060Y-103068007D01*
X211171751Y-103078375D01*
X211172846Y-103079049D01*
X211189506Y-103089158D01*
X211156945Y-103096141D01*
X211123064Y-103101077D01*
X211084278Y-103103059D01*
X211044567Y-103102215D01*
X211007906Y-103098675D01*
X210978276Y-103092567D01*
X210970992Y-103090116D01*
X210951555Y-103080821D01*
X210932284Y-103068651D01*
X210915505Y-103055552D01*
X210903546Y-103043468D01*
X210898732Y-103034345D01*
X210900339Y-103031040D01*
X210909108Y-103030387D01*
X210926867Y-103032150D01*
X210950418Y-103035958D01*
X210961309Y-103038087D01*
X211012991Y-103046457D01*
X211060532Y-103049780D01*
X211101860Y-103048082D01*
X211134905Y-103041390D01*
X211148651Y-103035670D01*
X211165438Y-103028043D01*
X211177993Y-103024702D01*
X211181464Y-103025132D01*
G37*
G36*
X210162006Y-102904166D02*
G01*
X210158427Y-102914722D01*
X210154687Y-102917438D01*
X210156681Y-102918659D01*
X210168799Y-102919422D01*
X210188670Y-102919610D01*
X210196789Y-102919522D01*
X210221773Y-102919376D01*
X210237201Y-102920399D01*
X210246012Y-102923357D01*
X210251143Y-102929014D01*
X210253839Y-102934375D01*
X210263818Y-102961130D01*
X210265267Y-102979306D01*
X210258227Y-102989426D01*
X210257868Y-102989619D01*
X210246610Y-102992756D01*
X210227440Y-102995814D01*
X210204938Y-102998316D01*
X210183687Y-102999786D01*
X210168268Y-102999747D01*
X210165045Y-102999277D01*
X210155582Y-102997412D01*
X210139499Y-102994579D01*
X210135937Y-102993978D01*
X210121468Y-102990862D01*
X210114661Y-102985346D01*
X210112629Y-102973518D01*
X210112500Y-102962216D01*
X210116160Y-102938624D01*
X210125893Y-102920375D01*
X210139823Y-102910396D01*
X210146354Y-102909375D01*
X210156390Y-102904649D01*
X210158360Y-102901562D01*
X210161140Y-102899011D01*
X210162006Y-102904166D01*
G37*
G36*
X210306753Y-103026088D02*
G01*
X210312136Y-103032612D01*
X210312500Y-103036479D01*
X210306501Y-103048268D01*
X210288839Y-103062553D01*
X210260018Y-103078958D01*
X210247585Y-103085038D01*
X210229137Y-103093276D01*
X210213387Y-103098480D01*
X210196561Y-103101270D01*
X210174884Y-103102264D01*
X210144580Y-103102082D01*
X210143750Y-103102069D01*
X210113521Y-103101388D01*
X210085428Y-103100403D01*
X210063437Y-103099271D01*
X210054687Y-103098572D01*
X210037843Y-103095913D01*
X210032479Y-103091091D01*
X210037695Y-103081649D01*
X210045312Y-103072982D01*
X210053423Y-103061576D01*
X210052904Y-103055369D01*
X210052448Y-103055167D01*
X210040509Y-103048931D01*
X210030021Y-103040641D01*
X210024931Y-103033667D01*
X210025303Y-103031987D01*
X210032510Y-103032002D01*
X210048345Y-103035206D01*
X210069550Y-103040925D01*
X210072168Y-103041708D01*
X210093437Y-103047710D01*
X210110889Y-103051027D01*
X210128679Y-103051891D01*
X210150965Y-103050534D01*
X210178125Y-103047626D01*
X210208852Y-103043494D01*
X210238630Y-103038486D01*
X210262816Y-103033423D01*
X210271039Y-103031225D01*
X210293615Y-103025696D01*
X210306753Y-103026088D01*
G37*
G36*
X210216968Y-102580475D02*
G01*
X210244761Y-102585419D01*
X210259348Y-102583530D01*
X210272768Y-102581839D01*
X210288051Y-102584936D01*
X210309020Y-102593733D01*
X210315598Y-102596929D01*
X210351201Y-102614979D01*
X210377854Y-102630213D01*
X210398030Y-102644894D01*
X210414201Y-102661287D01*
X210428839Y-102681655D01*
X210444415Y-102708261D01*
X210451669Y-102721540D01*
X210468791Y-102746534D01*
X210488237Y-102760667D01*
X210512377Y-102765577D01*
X210515500Y-102765625D01*
X210530536Y-102769697D01*
X210545427Y-102779198D01*
X210560666Y-102792772D01*
X210545958Y-102814445D01*
X210536357Y-102833525D01*
X210531425Y-102852970D01*
X210531250Y-102856340D01*
X210528269Y-102890167D01*
X210518405Y-102916490D01*
X210500700Y-102938622D01*
X210485895Y-102951745D01*
X210474144Y-102957387D01*
X210460318Y-102957514D01*
X210453891Y-102956597D01*
X210436573Y-102955220D01*
X210426219Y-102959124D01*
X210420691Y-102965418D01*
X210411215Y-102974461D01*
X210397968Y-102977494D01*
X210378328Y-102974626D01*
X210356110Y-102968111D01*
X210335824Y-102959875D01*
X210322982Y-102949220D01*
X210312700Y-102932174D01*
X210294594Y-102907159D01*
X210267175Y-102885937D01*
X210249598Y-102875712D01*
X210234694Y-102869638D01*
X210218032Y-102866649D01*
X210195181Y-102865683D01*
X210182599Y-102865625D01*
X210139135Y-102868543D01*
X210105697Y-102877743D01*
X210081144Y-102893891D01*
X210064333Y-102917652D01*
X210056568Y-102939144D01*
X210041744Y-102971716D01*
X210016708Y-103000325D01*
X209983650Y-103022599D01*
X209976394Y-103026030D01*
X209946421Y-103037121D01*
X209924606Y-103039986D01*
X209909773Y-103034713D01*
X209906250Y-103031250D01*
X209896411Y-103023244D01*
X209891422Y-103021667D01*
X209881756Y-103017804D01*
X209870970Y-103010260D01*
X209861821Y-102995334D01*
X209861356Y-102976411D01*
X209869411Y-102958322D01*
X209872881Y-102954350D01*
X209880080Y-102942761D01*
X209881250Y-102937053D01*
X209884770Y-102929026D01*
X209887500Y-102928125D01*
X209892241Y-102922788D01*
X209893750Y-102912887D01*
X209895123Y-102898791D01*
X209898688Y-102877615D01*
X209902737Y-102858200D01*
X209907569Y-102831808D01*
X209910583Y-102805218D01*
X209911135Y-102789926D01*
X209913304Y-102765678D01*
X209922482Y-102745799D01*
X209925023Y-102742259D01*
X209945102Y-102742259D01*
X209946358Y-102757756D01*
X209951887Y-102764598D01*
X209957344Y-102774724D01*
X209961040Y-102791763D01*
X209961581Y-102797726D01*
X209963251Y-102815316D01*
X209965541Y-102827351D01*
X209966312Y-102829237D01*
X209975892Y-102833953D01*
X209992865Y-102833352D01*
X210013543Y-102827901D01*
X210028365Y-102821388D01*
X210059417Y-102807407D01*
X210093886Y-102796831D01*
X210135147Y-102788768D01*
X210168750Y-102784271D01*
X210202563Y-102780249D01*
X210225394Y-102777001D01*
X210238683Y-102773891D01*
X210243869Y-102770285D01*
X210242389Y-102765548D01*
X210235683Y-102759043D01*
X210232332Y-102756202D01*
X210215911Y-102744873D01*
X210191955Y-102731414D01*
X210163399Y-102717145D01*
X210133178Y-102703384D01*
X210104226Y-102691453D01*
X210079479Y-102682669D01*
X210061872Y-102678353D01*
X210058671Y-102678125D01*
X210038309Y-102681382D01*
X210013107Y-102689827D01*
X209987550Y-102701467D01*
X209966121Y-102714308D01*
X209954826Y-102724274D01*
X209945102Y-102742259D01*
X209925023Y-102742259D01*
X209926704Y-102739918D01*
X209937329Y-102722474D01*
X209938081Y-102710382D01*
X209937444Y-102709053D01*
X209937058Y-102700324D01*
X209943660Y-102686068D01*
X209958015Y-102664752D01*
X209962833Y-102658237D01*
X209986993Y-102629257D01*
X210009839Y-102610311D01*
X210034527Y-102599757D01*
X210064215Y-102595954D01*
X210082420Y-102596091D01*
X210114882Y-102595343D01*
X210135904Y-102590174D01*
X210138670Y-102588662D01*
X210168296Y-102577173D01*
X210200638Y-102576472D01*
X210216968Y-102580475D01*
G37*
G36*
X211046726Y-102580473D02*
G01*
X211063819Y-102585883D01*
X211065992Y-102587301D01*
X211081378Y-102593222D01*
X211108269Y-102596236D01*
X211126350Y-102596676D01*
X211161167Y-102598588D01*
X211187398Y-102603761D01*
X211195100Y-102606749D01*
X211212780Y-102619668D01*
X211232426Y-102640876D01*
X211251585Y-102666965D01*
X211267807Y-102694530D01*
X211278641Y-102720165D01*
X211279898Y-102724576D01*
X211285645Y-102743146D01*
X211291499Y-102756258D01*
X211294293Y-102759710D01*
X211297293Y-102767282D01*
X211300155Y-102784422D01*
X211302463Y-102808201D01*
X211303394Y-102824063D01*
X211305408Y-102855569D01*
X211308722Y-102878886D01*
X211314257Y-102898318D01*
X211322936Y-102918173D01*
X211324021Y-102920364D01*
X211337809Y-102949916D01*
X211344969Y-102971691D01*
X211345607Y-102988438D01*
X211339830Y-103002912D01*
X211327794Y-103017812D01*
X211306416Y-103034975D01*
X211284354Y-103040523D01*
X211262500Y-103036446D01*
X211250450Y-103031750D01*
X211234169Y-103024770D01*
X211233430Y-103024439D01*
X211219155Y-103018492D01*
X211210418Y-103015662D01*
X211209985Y-103015625D01*
X211204240Y-103011571D01*
X211193188Y-103001522D01*
X211180026Y-102988647D01*
X211167949Y-102976116D01*
X211160151Y-102967097D01*
X211158861Y-102964918D01*
X211157643Y-102957801D01*
X211155224Y-102942951D01*
X211154291Y-102937137D01*
X211144002Y-102909205D01*
X211123393Y-102887869D01*
X211092911Y-102873375D01*
X211053005Y-102865969D01*
X211023081Y-102865055D01*
X210995134Y-102866338D01*
X210975434Y-102869581D01*
X210959770Y-102875704D01*
X210951186Y-102880736D01*
X210920130Y-102903708D01*
X210900301Y-102925870D01*
X210892594Y-102941253D01*
X210883985Y-102955294D01*
X210868273Y-102962353D01*
X210865007Y-102963028D01*
X210849670Y-102967196D01*
X210840597Y-102972051D01*
X210840187Y-102972583D01*
X210830541Y-102977789D01*
X210815491Y-102976872D01*
X210800067Y-102970584D01*
X210793750Y-102965625D01*
X210778753Y-102955156D01*
X210765750Y-102954133D01*
X210759375Y-102959375D01*
X210754350Y-102964378D01*
X210746972Y-102963908D01*
X210734988Y-102957057D01*
X210716150Y-102942916D01*
X210713587Y-102940895D01*
X210696983Y-102927263D01*
X210687305Y-102916367D01*
X210682245Y-102903798D01*
X210679494Y-102885147D01*
X210678404Y-102873708D01*
X210674965Y-102848680D01*
X210669909Y-102825951D01*
X210665082Y-102812217D01*
X210658293Y-102794159D01*
X210659720Y-102781360D01*
X210670600Y-102772338D01*
X210692166Y-102765611D01*
X210693431Y-102765362D01*
X210971670Y-102765362D01*
X210980135Y-102771418D01*
X210999423Y-102777166D01*
X211030240Y-102783016D01*
X211043750Y-102785144D01*
X211084290Y-102791632D01*
X211115241Y-102797537D01*
X211139446Y-102803599D01*
X211159744Y-102810559D01*
X211178977Y-102819158D01*
X211184134Y-102821744D01*
X211205410Y-102830786D01*
X211221582Y-102834162D01*
X211230338Y-102831537D01*
X211231250Y-102828571D01*
X211235237Y-102819908D01*
X211240993Y-102813024D01*
X211249764Y-102798795D01*
X211252399Y-102789140D01*
X211256100Y-102772700D01*
X211261405Y-102757405D01*
X211266589Y-102744248D01*
X211268749Y-102737293D01*
X211268750Y-102737290D01*
X211264119Y-102732603D01*
X211251976Y-102722727D01*
X211234938Y-102709791D01*
X211234780Y-102709674D01*
X211197588Y-102688230D01*
X211160869Y-102679056D01*
X211124996Y-102682211D01*
X211105371Y-102689404D01*
X211084299Y-102699208D01*
X211058516Y-102711033D01*
X211040625Y-102719149D01*
X211020982Y-102728350D01*
X211006300Y-102735874D01*
X211000000Y-102739902D01*
X210992524Y-102745734D01*
X210984375Y-102750681D01*
X210973319Y-102758586D01*
X210971670Y-102765362D01*
X210693431Y-102765362D01*
X210706250Y-102762839D01*
X210723747Y-102757279D01*
X210740544Y-102748161D01*
X210752641Y-102738044D01*
X210756250Y-102730838D01*
X210759724Y-102723334D01*
X210768379Y-102710378D01*
X210771541Y-102706131D01*
X210782743Y-102688604D01*
X210790385Y-102671609D01*
X210791032Y-102669353D01*
X210801339Y-102652800D01*
X210821052Y-102639534D01*
X210837149Y-102630730D01*
X210847955Y-102623622D01*
X210850000Y-102621647D01*
X210856783Y-102616517D01*
X210871528Y-102607721D01*
X210890625Y-102597385D01*
X210912150Y-102586932D01*
X210926641Y-102582232D01*
X210937675Y-102582429D01*
X210944163Y-102584556D01*
X210965212Y-102587779D01*
X210977382Y-102584657D01*
X210998621Y-102579714D01*
X211023364Y-102578369D01*
X211046726Y-102580473D01*
G37*
G36*
X212600000Y-103500000D02*
G01*
X212600000Y-105309375D01*
X211901562Y-105308523D01*
X211809574Y-105308388D01*
X211721367Y-105308212D01*
X211637711Y-105308001D01*
X211559379Y-105307757D01*
X211487140Y-105307485D01*
X211421766Y-105307188D01*
X211364028Y-105306871D01*
X211314696Y-105306538D01*
X211274543Y-105306193D01*
X211244337Y-105305839D01*
X211224852Y-105305480D01*
X211216856Y-105305121D01*
X211216830Y-105305010D01*
X211225042Y-105301437D01*
X211231896Y-105293060D01*
X211238097Y-105278076D01*
X211244352Y-105254683D01*
X211251363Y-105221078D01*
X211253008Y-105212500D01*
X211255464Y-105196875D01*
X211468750Y-105196875D01*
X211471036Y-105202019D01*
X211472916Y-105201041D01*
X211473257Y-105197656D01*
X211481232Y-105197656D01*
X211485416Y-105205208D01*
X211493993Y-105208068D01*
X211509179Y-105209367D01*
X211510416Y-105209375D01*
X211526178Y-105207125D01*
X211531249Y-105200069D01*
X211531250Y-105200000D01*
X211527121Y-105193481D01*
X211513437Y-105190795D01*
X211506250Y-105190625D01*
X211487791Y-105192390D01*
X211481232Y-105197656D01*
X211473257Y-105197656D01*
X211473664Y-105193624D01*
X211472916Y-105192708D01*
X211469201Y-105193566D01*
X211468750Y-105196875D01*
X211255464Y-105196875D01*
X211257780Y-105182137D01*
X211260895Y-105151578D01*
X211262270Y-105123530D01*
X211261825Y-105100701D01*
X211259475Y-105085799D01*
X211256994Y-105081710D01*
X211249317Y-105083264D01*
X211235999Y-105091047D01*
X211228010Y-105096966D01*
X211214125Y-105107832D01*
X211205121Y-105114558D01*
X211203406Y-105115625D01*
X211205390Y-105110415D01*
X211211650Y-105096471D01*
X211221036Y-105076321D01*
X211226140Y-105065554D01*
X211240204Y-105033933D01*
X211247682Y-105010853D01*
X211248752Y-104994346D01*
X211243591Y-104982440D01*
X211234375Y-104974425D01*
X211225258Y-104966797D01*
X211220555Y-104956666D01*
X211218882Y-104939995D01*
X211218750Y-104928830D01*
X211217651Y-104906147D01*
X211213065Y-104890005D01*
X211203056Y-104874541D01*
X211199278Y-104869850D01*
X211187716Y-104854713D01*
X211183132Y-104843274D01*
X211184096Y-104829982D01*
X211186444Y-104819988D01*
X211192032Y-104794641D01*
X211195159Y-104776704D01*
X211419069Y-104776704D01*
X211420797Y-104794130D01*
X211424999Y-104817187D01*
X211430988Y-104842743D01*
X211438080Y-104867668D01*
X211445589Y-104888828D01*
X211448261Y-104894919D01*
X211454327Y-104908667D01*
X211458525Y-104921617D01*
X211461177Y-104936439D01*
X211462605Y-104955804D01*
X211463130Y-104982382D01*
X211463080Y-105017948D01*
X211463205Y-105061394D01*
X211464174Y-105093237D01*
X211466056Y-105114353D01*
X211468922Y-105125616D01*
X211471829Y-105128125D01*
X211477971Y-105125568D01*
X211490396Y-105119395D01*
X211490850Y-105119160D01*
X211505433Y-105109991D01*
X211513840Y-105099003D01*
X211517703Y-105082619D01*
X211518654Y-105058258D01*
X211516780Y-105031411D01*
X211510799Y-105015192D01*
X211508767Y-105012785D01*
X211502197Y-105001279D01*
X211502244Y-104993789D01*
X211502134Y-104983830D01*
X211499810Y-104981132D01*
X211495285Y-104973741D01*
X211488762Y-104957574D01*
X211481541Y-104935913D01*
X211480509Y-104932495D01*
X211472346Y-104908559D01*
X211463513Y-104888011D01*
X211455840Y-104875074D01*
X211455425Y-104874597D01*
X211450237Y-104864238D01*
X212125648Y-104864238D01*
X212129460Y-104893419D01*
X212142971Y-104923552D01*
X212164267Y-104950966D01*
X212176558Y-104961974D01*
X212188266Y-104972261D01*
X212189955Y-104977186D01*
X212185818Y-104978055D01*
X212178329Y-104980502D01*
X212177740Y-104989907D01*
X212178883Y-104995312D01*
X212191222Y-105028396D01*
X212211850Y-105062946D01*
X212216551Y-105069339D01*
X212226019Y-105083049D01*
X212231017Y-105092729D01*
X212231250Y-105093971D01*
X212233961Y-105102001D01*
X212241346Y-105118776D01*
X212252281Y-105142053D01*
X212265640Y-105169584D01*
X212280300Y-105199127D01*
X212295136Y-105228434D01*
X212309023Y-105255262D01*
X212320838Y-105277365D01*
X212329455Y-105292498D01*
X212333603Y-105298341D01*
X212345454Y-105301995D01*
X212362379Y-105303046D01*
X212379527Y-105301731D01*
X212392050Y-105298290D01*
X212395323Y-105295312D01*
X212396381Y-105286210D01*
X212397036Y-105267470D01*
X212397228Y-105241946D01*
X212397201Y-105239265D01*
X212432557Y-105239265D01*
X212437045Y-105249627D01*
X212443553Y-105253125D01*
X212448842Y-105247908D01*
X212450000Y-105240993D01*
X212447109Y-105229041D01*
X212440629Y-105224166D01*
X212434253Y-105228322D01*
X212432557Y-105239265D01*
X212397201Y-105239265D01*
X212396971Y-105216416D01*
X212396899Y-105184893D01*
X212397690Y-105155291D01*
X212399197Y-105131442D01*
X212400726Y-105119541D01*
X212403052Y-105102610D01*
X212400277Y-105091281D01*
X212390400Y-105079798D01*
X212385247Y-105075000D01*
X212369612Y-105061432D01*
X212355736Y-105050572D01*
X212352688Y-105048481D01*
X212346517Y-105043762D01*
X212349638Y-105042573D01*
X212363510Y-105044400D01*
X212364062Y-105044489D01*
X212381010Y-105045525D01*
X212386756Y-105041275D01*
X212381322Y-105031603D01*
X212368166Y-105019218D01*
X212356075Y-105007007D01*
X212349798Y-104993403D01*
X212347059Y-104973169D01*
X212346871Y-104970225D01*
X212345315Y-104948211D01*
X212343571Y-104929171D01*
X212342767Y-104922507D01*
X212343929Y-104910051D01*
X212348437Y-104904799D01*
X212355177Y-104907255D01*
X212356250Y-104911761D01*
X212360147Y-104921959D01*
X212370013Y-104936662D01*
X212375970Y-104943900D01*
X212388455Y-104957071D01*
X212396416Y-104961664D01*
X212402845Y-104959088D01*
X212404637Y-104957416D01*
X212408959Y-104950883D01*
X212410593Y-104940726D01*
X212409625Y-104924023D01*
X212406344Y-104899235D01*
X212402099Y-104872925D01*
X212399970Y-104861637D01*
X212499726Y-104861637D01*
X212508875Y-104877436D01*
X212528405Y-104897067D01*
X212546875Y-104912350D01*
X212565625Y-104927130D01*
X212570156Y-104910565D01*
X212572214Y-104893045D01*
X212571199Y-104872355D01*
X212570886Y-104870227D01*
X212567838Y-104855889D01*
X212564896Y-104849277D01*
X212564194Y-104849347D01*
X212557452Y-104848498D01*
X212544467Y-104842724D01*
X212541217Y-104840957D01*
X212526115Y-104834001D01*
X212515920Y-104834295D01*
X212510565Y-104837402D01*
X212500457Y-104848637D01*
X212499726Y-104861637D01*
X212399970Y-104861637D01*
X212397592Y-104849028D01*
X212393714Y-104832226D01*
X212393303Y-104830806D01*
X212388958Y-104809676D01*
X212387500Y-104791664D01*
X212386417Y-104780022D01*
X212383808Y-104775782D01*
X212443863Y-104775782D01*
X212445779Y-104787788D01*
X212450385Y-104793988D01*
X212457559Y-104802588D01*
X212462730Y-104813107D01*
X212469962Y-104825744D01*
X212476387Y-104826542D01*
X212480506Y-104816141D01*
X212481250Y-104805179D01*
X212477664Y-104784547D01*
X212468432Y-104768226D01*
X212455842Y-104759820D01*
X212452156Y-104759375D01*
X212446086Y-104764421D01*
X212443863Y-104775782D01*
X212383808Y-104775782D01*
X212381349Y-104771787D01*
X212369568Y-104764177D01*
X212352941Y-104756433D01*
X212332515Y-104746500D01*
X212315795Y-104736780D01*
X212308432Y-104731200D01*
X212294919Y-104722681D01*
X212284300Y-104725881D01*
X212277675Y-104740147D01*
X212276267Y-104750294D01*
X212274410Y-104775481D01*
X212227819Y-104776188D01*
X212204891Y-104775825D01*
X212187210Y-104774214D01*
X212178147Y-104771689D01*
X212177745Y-104771260D01*
X212170085Y-104765633D01*
X212163887Y-104770495D01*
X212162500Y-104778125D01*
X212159882Y-104788281D01*
X212156250Y-104790625D01*
X212150277Y-104795457D01*
X212150000Y-104797472D01*
X212146720Y-104807062D01*
X212138814Y-104820652D01*
X212138638Y-104820910D01*
X212130892Y-104838054D01*
X212126083Y-104859509D01*
X212125648Y-104864238D01*
X211450237Y-104864238D01*
X211446181Y-104856139D01*
X211443750Y-104836297D01*
X211442095Y-104819211D01*
X211437889Y-104800461D01*
X211432263Y-104783377D01*
X211426353Y-104771286D01*
X211421293Y-104767520D01*
X211420500Y-104768041D01*
X211419069Y-104776704D01*
X211195159Y-104776704D01*
X211196931Y-104766542D01*
X211200798Y-104738605D01*
X211201379Y-104732808D01*
X212061154Y-104732808D01*
X212063471Y-104748383D01*
X212073832Y-104772393D01*
X212073994Y-104772718D01*
X212086401Y-104797227D01*
X212094658Y-104811874D01*
X212100226Y-104817965D01*
X212104564Y-104816809D01*
X212109134Y-104809712D01*
X212111119Y-104805949D01*
X212116940Y-104789883D01*
X212115041Y-104773856D01*
X212113130Y-104768139D01*
X212108433Y-104753038D01*
X212106746Y-104743224D01*
X212106796Y-104742769D01*
X212107357Y-104731813D01*
X212106227Y-104720540D01*
X212104136Y-104713421D01*
X212102110Y-104714062D01*
X212094210Y-104719769D01*
X212081397Y-104721875D01*
X212067068Y-104724396D01*
X212061154Y-104732808D01*
X211201379Y-104732808D01*
X211203291Y-104713746D01*
X211204066Y-104694879D01*
X211202781Y-104684919D01*
X211202391Y-104684375D01*
X211193282Y-104683122D01*
X211180863Y-104692814D01*
X211166107Y-104712649D01*
X211164080Y-104715912D01*
X211150906Y-104733970D01*
X211133686Y-104753302D01*
X211126840Y-104759979D01*
X211110430Y-104775800D01*
X211089950Y-104796456D01*
X211069757Y-104817550D01*
X211069239Y-104818103D01*
X211052975Y-104834971D01*
X211037698Y-104849260D01*
X211020984Y-104862828D01*
X211000407Y-104877535D01*
X210973541Y-104895239D01*
X210944600Y-104913622D01*
X210907738Y-104936252D01*
X210876671Y-104953608D01*
X210847066Y-104967745D01*
X210814592Y-104980716D01*
X210774917Y-104994575D01*
X210771310Y-104995781D01*
X210722017Y-105011512D01*
X210681549Y-105022537D01*
X210647301Y-105029213D01*
X210616671Y-105031898D01*
X210587055Y-105030949D01*
X210555848Y-105026724D01*
X210551583Y-105025961D01*
X210467434Y-105005430D01*
X210383230Y-104975204D01*
X210302361Y-104936783D01*
X210228215Y-104891667D01*
X210197560Y-104869281D01*
X210179090Y-104853751D01*
X210156590Y-104833021D01*
X210131976Y-104809069D01*
X210107159Y-104783873D01*
X210084052Y-104759412D01*
X210064568Y-104737664D01*
X210050621Y-104720608D01*
X210044351Y-104710827D01*
X210034890Y-104695348D01*
X210024675Y-104685622D01*
X210017021Y-104681817D01*
X210011598Y-104682179D01*
X210008382Y-104687929D01*
X210007350Y-104700289D01*
X210008476Y-104720480D01*
X210011736Y-104749723D01*
X210017108Y-104789240D01*
X210021967Y-104822694D01*
X210019332Y-104841489D01*
X210007321Y-104866021D01*
X210005945Y-104868224D01*
X209993281Y-104892385D01*
X209988030Y-104915743D01*
X209987499Y-104928918D01*
X209984683Y-104956220D01*
X209975643Y-104975583D01*
X209975000Y-104976419D01*
X209966096Y-104991493D01*
X209962499Y-105004834D01*
X209965053Y-105016065D01*
X209971766Y-105034034D01*
X209981218Y-105055789D01*
X209991989Y-105078378D01*
X210002658Y-105098848D01*
X210011805Y-105114246D01*
X210018011Y-105121621D01*
X210018810Y-105121875D01*
X210024543Y-105126808D01*
X210024970Y-105129687D01*
X210021284Y-105130042D01*
X210011843Y-105122610D01*
X210003413Y-105114062D01*
X209984124Y-105097143D01*
X209967423Y-105090659D01*
X209966303Y-105090625D01*
X209956337Y-105092076D01*
X209951333Y-105098698D01*
X209949048Y-105113897D01*
X209948796Y-105117187D01*
X209948727Y-105143539D01*
X209951399Y-105175283D01*
X209956230Y-105209254D01*
X209962633Y-105242288D01*
X209970026Y-105271219D01*
X209977825Y-105292883D01*
X209982829Y-105301562D01*
X209981630Y-105302817D01*
X209975542Y-105303939D01*
X209963987Y-105304934D01*
X209946385Y-105305808D01*
X209922157Y-105306569D01*
X209890722Y-105307222D01*
X209851502Y-105307775D01*
X209803917Y-105308233D01*
X209747387Y-105308604D01*
X209681333Y-105308893D01*
X209605175Y-105309109D01*
X209518334Y-105309256D01*
X209420231Y-105309342D01*
X209310285Y-105309374D01*
X209294515Y-105309375D01*
X208600000Y-105309375D01*
X208600000Y-105235271D01*
X208762165Y-105235271D01*
X208764235Y-105249262D01*
X208769052Y-105258295D01*
X208771875Y-105259375D01*
X208780198Y-105256415D01*
X208781250Y-105253906D01*
X208779673Y-105238911D01*
X208775873Y-105224359D01*
X208771246Y-105214560D01*
X208767989Y-105212970D01*
X208763273Y-105221461D01*
X208762165Y-105235271D01*
X208600000Y-105235271D01*
X208600000Y-105134945D01*
X208600000Y-104960516D01*
X208614352Y-104949237D01*
X208800454Y-104949237D01*
X208802010Y-104959523D01*
X208805986Y-104964410D01*
X208812236Y-104965625D01*
X208822133Y-104960446D01*
X208834056Y-104947438D01*
X208845423Y-104930389D01*
X208853651Y-104913090D01*
X208856250Y-104901013D01*
X208860355Y-104892084D01*
X208864620Y-104890625D01*
X208868428Y-104891204D01*
X208870556Y-104894357D01*
X208870977Y-104902201D01*
X208869668Y-104916856D01*
X208866603Y-104940441D01*
X208863792Y-104960604D01*
X208855831Y-104992536D01*
X208840751Y-105017315D01*
X208825000Y-105032511D01*
X208820127Y-105038825D01*
X208822768Y-105040426D01*
X208832268Y-105044892D01*
X208833526Y-105055619D01*
X208826847Y-105069749D01*
X208818634Y-105079175D01*
X208806746Y-105091790D01*
X208802699Y-105102129D01*
X208804741Y-105115929D01*
X208805994Y-105120577D01*
X208808555Y-105136049D01*
X208810640Y-105160522D01*
X208812018Y-105190501D01*
X208812465Y-105219270D01*
X208812805Y-105248824D01*
X208813705Y-105273678D01*
X208815030Y-105291243D01*
X208816642Y-105298932D01*
X208816666Y-105298958D01*
X208825005Y-105301537D01*
X208840900Y-105303000D01*
X208847491Y-105303125D01*
X208866423Y-105301516D01*
X208878643Y-105295020D01*
X208886751Y-105285426D01*
X208896664Y-105268874D01*
X208907337Y-105247222D01*
X208911716Y-105236989D01*
X208921226Y-105215111D01*
X208927849Y-105201045D01*
X209681250Y-105201045D01*
X209684998Y-105207083D01*
X209697722Y-105208600D01*
X209704687Y-105208189D01*
X209719416Y-105205488D01*
X209726740Y-105201204D01*
X209726931Y-105200000D01*
X209720404Y-105193748D01*
X209707266Y-105189289D01*
X209693403Y-105188298D01*
X209689062Y-105189216D01*
X209681956Y-105197032D01*
X209681250Y-105201045D01*
X208927849Y-105201045D01*
X208934430Y-105187068D01*
X208949842Y-105155770D01*
X208965976Y-105124133D01*
X208981346Y-105095067D01*
X208990935Y-105077835D01*
X209688789Y-105077835D01*
X209695677Y-105100507D01*
X209710324Y-105115429D01*
X209728958Y-105121149D01*
X209735839Y-105116502D01*
X209739787Y-105107812D01*
X209741479Y-105096296D01*
X209743337Y-105075253D01*
X209745139Y-105047650D01*
X209746663Y-105016453D01*
X209746697Y-105015625D01*
X209748388Y-104983196D01*
X209750632Y-104953138D01*
X209753133Y-104928858D01*
X209755522Y-104914062D01*
X209758119Y-104899218D01*
X209757613Y-104891126D01*
X209756841Y-104890625D01*
X209747006Y-104895989D01*
X209739510Y-104908637D01*
X209737500Y-104919545D01*
X209734690Y-104931758D01*
X209727290Y-104950918D01*
X209716841Y-104973083D01*
X209715755Y-104975183D01*
X209698721Y-105013985D01*
X209689768Y-105048598D01*
X209688789Y-105077835D01*
X208990935Y-105077835D01*
X208994467Y-105071488D01*
X209003852Y-105056306D01*
X209003941Y-105056179D01*
X209021723Y-105022174D01*
X209028028Y-104989039D01*
X209032886Y-104972804D01*
X209043497Y-104956168D01*
X209044836Y-104954664D01*
X209064929Y-104929026D01*
X209078898Y-104903171D01*
X209085364Y-104880092D01*
X209084832Y-104867748D01*
X209083020Y-104859852D01*
X209762523Y-104859852D01*
X209764430Y-104870073D01*
X209767187Y-104871826D01*
X209772866Y-104866750D01*
X209779687Y-104854955D01*
X209784808Y-104837358D01*
X209787211Y-104816053D01*
X209787238Y-104812816D01*
X209786976Y-104787500D01*
X209775000Y-104809375D01*
X209768284Y-104825696D01*
X209763966Y-104843791D01*
X209762523Y-104859852D01*
X209083020Y-104859852D01*
X209080128Y-104847251D01*
X209076914Y-104831981D01*
X209070162Y-104814314D01*
X209061668Y-104802293D01*
X209052609Y-104787678D01*
X209049999Y-104775668D01*
X209045259Y-104761321D01*
X209031812Y-104755270D01*
X209015128Y-104756933D01*
X209003100Y-104764202D01*
X209000507Y-104774687D01*
X209007550Y-104783959D01*
X209013789Y-104786523D01*
X209023036Y-104790608D01*
X209023902Y-104793806D01*
X209015382Y-104795642D01*
X209003045Y-104792946D01*
X208992531Y-104787610D01*
X208989270Y-104782187D01*
X208986565Y-104776117D01*
X208984375Y-104775973D01*
X208961638Y-104779176D01*
X208948613Y-104779380D01*
X208942703Y-104775771D01*
X208941312Y-104767533D01*
X208941450Y-104762500D01*
X208943639Y-104743593D01*
X208946845Y-104729769D01*
X208948235Y-104724437D01*
X209089797Y-104724437D01*
X209090230Y-104739763D01*
X209091510Y-104754029D01*
X209096213Y-104784694D01*
X209102962Y-104803153D01*
X209111692Y-104809366D01*
X209122341Y-104803293D01*
X209134847Y-104784892D01*
X209135965Y-104782812D01*
X209147122Y-104758353D01*
X209149825Y-104741719D01*
X209145601Y-104734375D01*
X209793750Y-104734375D01*
X209796036Y-104739519D01*
X209797916Y-104738541D01*
X209798664Y-104731124D01*
X209797916Y-104730208D01*
X209794201Y-104731066D01*
X209793750Y-104734375D01*
X209145601Y-104734375D01*
X209143846Y-104731323D01*
X209128955Y-104725577D01*
X209127681Y-104725329D01*
X209110201Y-104721585D01*
X209097303Y-104718033D01*
X209096458Y-104717725D01*
X209091770Y-104717846D01*
X209089797Y-104724437D01*
X208948235Y-104724437D01*
X208949093Y-104721143D01*
X208946244Y-104718623D01*
X208935599Y-104721467D01*
X208927269Y-104724400D01*
X208912521Y-104731027D01*
X208904724Y-104737233D01*
X208904324Y-104738854D01*
X208899552Y-104743587D01*
X208886037Y-104749278D01*
X208875217Y-104752465D01*
X208847353Y-104763314D01*
X208828702Y-104778633D01*
X208821083Y-104795542D01*
X208819499Y-104806054D01*
X208816500Y-104825693D01*
X208812580Y-104851230D01*
X208809881Y-104868750D01*
X208804431Y-104905575D01*
X208801275Y-104931830D01*
X208800454Y-104949237D01*
X208614352Y-104949237D01*
X208639327Y-104929609D01*
X208659876Y-104913886D01*
X208678289Y-104900542D01*
X208691072Y-104892096D01*
X208692452Y-104891319D01*
X208702065Y-104882808D01*
X208705911Y-104868433D01*
X208706250Y-104858958D01*
X208703580Y-104841014D01*
X208696926Y-104830242D01*
X208688320Y-104828393D01*
X208680180Y-104836507D01*
X208670651Y-104844068D01*
X208654256Y-104849890D01*
X208649704Y-104850772D01*
X208634159Y-104854121D01*
X208625495Y-104857660D01*
X208624861Y-104858611D01*
X208621282Y-104865773D01*
X208612831Y-104877699D01*
X208612500Y-104878125D01*
X208609324Y-104881970D01*
X208606751Y-104883820D01*
X208604718Y-104882563D01*
X208603158Y-104877088D01*
X208602009Y-104866284D01*
X208601205Y-104849040D01*
X208600683Y-104824244D01*
X208600471Y-104801070D01*
X208724858Y-104801070D01*
X208727975Y-104815287D01*
X208735259Y-104822975D01*
X208735937Y-104823144D01*
X208745717Y-104819449D01*
X208754821Y-104807149D01*
X208761042Y-104790043D01*
X208762500Y-104777407D01*
X208757882Y-104768094D01*
X208747083Y-104765796D01*
X208734677Y-104771166D01*
X208732499Y-104773125D01*
X208726251Y-104785343D01*
X208724858Y-104801070D01*
X208600471Y-104801070D01*
X208600377Y-104790785D01*
X208600223Y-104747552D01*
X208600157Y-104693434D01*
X208600138Y-104665011D01*
X208600040Y-104501816D01*
X209278496Y-104501816D01*
X209280680Y-104503125D01*
X209288651Y-104498857D01*
X209293750Y-104493750D01*
X209298189Y-104486334D01*
X209296259Y-104485639D01*
X211912500Y-104485639D01*
X211916621Y-104496087D01*
X211920312Y-104498623D01*
X211929668Y-104499680D01*
X211929449Y-104493811D01*
X211923065Y-104486011D01*
X211915174Y-104479045D01*
X211912669Y-104481244D01*
X211912500Y-104485639D01*
X209296259Y-104485639D01*
X209292762Y-104484380D01*
X209292058Y-104484375D01*
X209281720Y-104489429D01*
X209278989Y-104493750D01*
X209278496Y-104501816D01*
X208600040Y-104501816D01*
X208600000Y-104436273D01*
X208626562Y-104425318D01*
X208648812Y-104416041D01*
X208670650Y-104406784D01*
X208675000Y-104404914D01*
X208698997Y-104395446D01*
X208725738Y-104386271D01*
X208751479Y-104378528D01*
X208772476Y-104373357D01*
X208783626Y-104371836D01*
X208798665Y-104368938D01*
X208814776Y-104362461D01*
X208831010Y-104355792D01*
X208844095Y-104353125D01*
X208855521Y-104350437D01*
X208858947Y-104347567D01*
X208867098Y-104341950D01*
X208878092Y-104338066D01*
X208890979Y-104333586D01*
X208911271Y-104325185D01*
X208935154Y-104314462D01*
X208941841Y-104311321D01*
X208971912Y-104298941D01*
X209007433Y-104287086D01*
X209041479Y-104278029D01*
X209046502Y-104276955D01*
X209052795Y-104275483D01*
X210319019Y-104275483D01*
X210322887Y-104289091D01*
X210330353Y-104299188D01*
X210339175Y-104314808D01*
X210339001Y-104325145D01*
X210340254Y-104342195D01*
X210348236Y-104358490D01*
X210360143Y-104369574D01*
X210368413Y-104371875D01*
X210379950Y-104376083D01*
X210394681Y-104386637D01*
X210399902Y-104391489D01*
X210418596Y-104405714D01*
X210437596Y-104413166D01*
X210439160Y-104413391D01*
X210454951Y-104416864D01*
X210465026Y-104421901D01*
X210475514Y-104426566D01*
X210488381Y-104428125D01*
X210502343Y-104430186D01*
X210509375Y-104434375D01*
X210516976Y-104436820D01*
X210535325Y-104438751D01*
X210562675Y-104440054D01*
X210597279Y-104440612D01*
X210603713Y-104440625D01*
X210642394Y-104440305D01*
X210670499Y-104439233D01*
X210689937Y-104437239D01*
X210702620Y-104434150D01*
X210708463Y-104431272D01*
X210722425Y-104425520D01*
X210743529Y-104420459D01*
X210760493Y-104417973D01*
X210782518Y-104414927D01*
X210795902Y-104410420D01*
X210804501Y-104402731D01*
X210808582Y-104396533D01*
X210822246Y-104382007D01*
X210840711Y-104371846D01*
X210858341Y-104362021D01*
X210867116Y-104345970D01*
X210868056Y-104321653D01*
X210867675Y-104317942D01*
X210865625Y-104300000D01*
X210818750Y-104301406D01*
X210780314Y-104303581D01*
X210741868Y-104307560D01*
X210705843Y-104312913D01*
X210674668Y-104319210D01*
X210650774Y-104326018D01*
X210636591Y-104332909D01*
X210635485Y-104333889D01*
X210622534Y-104339429D01*
X210603267Y-104339945D01*
X210582740Y-104335599D01*
X210574040Y-104331895D01*
X210558909Y-104326543D01*
X210536740Y-104321565D01*
X210517790Y-104318729D01*
X210491635Y-104314794D01*
X210466096Y-104309419D01*
X210452145Y-104305495D01*
X210430041Y-104300038D01*
X210403674Y-104296161D01*
X210391731Y-104295262D01*
X210372930Y-104293922D01*
X210360514Y-104292051D01*
X210357513Y-104290625D01*
X210356467Y-104281819D01*
X210868750Y-104281819D01*
X210873109Y-104287390D01*
X210878125Y-104286635D01*
X210885866Y-104278151D01*
X210887500Y-104270441D01*
X210886043Y-104261874D01*
X210879845Y-104264238D01*
X210878125Y-104265625D01*
X210870187Y-104276161D01*
X210868750Y-104281819D01*
X210356467Y-104281819D01*
X210356395Y-104281213D01*
X210350898Y-104283504D01*
X210347337Y-104287867D01*
X210340749Y-104295072D01*
X210338909Y-104291558D01*
X210338946Y-104290625D01*
X210338231Y-104270327D01*
X210332917Y-104260625D01*
X210328125Y-104259375D01*
X210320684Y-104264127D01*
X210319019Y-104275483D01*
X209052795Y-104275483D01*
X209088452Y-104267142D01*
X209130258Y-104254563D01*
X209175082Y-104238114D01*
X209226082Y-104216696D01*
X209250000Y-104206000D01*
X209323951Y-104177405D01*
X209405874Y-104155299D01*
X209466409Y-104143806D01*
X209490230Y-104139310D01*
X209510761Y-104133507D01*
X209531486Y-104124978D01*
X209555889Y-104112301D01*
X209570763Y-104103721D01*
X209633973Y-104103721D01*
X209635847Y-104111888D01*
X209644440Y-104115362D01*
X209657644Y-104111319D01*
X209676674Y-104099774D01*
X209684319Y-104093750D01*
X210293750Y-104093750D01*
X210296875Y-104096875D01*
X210300000Y-104093750D01*
X210296875Y-104090625D01*
X210293750Y-104093750D01*
X209684319Y-104093750D01*
X209693539Y-104086485D01*
X209699346Y-104077249D01*
X209697005Y-104075177D01*
X211509196Y-104075177D01*
X211515824Y-104085289D01*
X211532508Y-104098881D01*
X211540625Y-104104114D01*
X211559798Y-104113716D01*
X211571086Y-104114054D01*
X211574989Y-104105131D01*
X211575000Y-104104370D01*
X211569078Y-104093845D01*
X211552202Y-104082187D01*
X211546467Y-104079253D01*
X211524835Y-104070805D01*
X211512306Y-104069898D01*
X211509196Y-104075177D01*
X209697005Y-104075177D01*
X209693945Y-104072469D01*
X209687189Y-104071875D01*
X209670239Y-104074983D01*
X209653807Y-104082817D01*
X209640762Y-104093142D01*
X209633973Y-104103721D01*
X209570763Y-104103721D01*
X209585159Y-104095417D01*
X209616873Y-104076792D01*
X209635052Y-104066218D01*
X210925409Y-104066218D01*
X210929439Y-104071708D01*
X210931446Y-104071875D01*
X210939013Y-104066869D01*
X210941593Y-104062230D01*
X210942685Y-104051482D01*
X210938006Y-104047633D01*
X210931005Y-104053306D01*
X210925409Y-104066218D01*
X209635052Y-104066218D01*
X209650135Y-104057445D01*
X209680562Y-104039916D01*
X209700000Y-104028863D01*
X209732089Y-104008311D01*
X209756694Y-103987462D01*
X209765625Y-103977167D01*
X209778875Y-103961693D01*
X210220366Y-103961693D01*
X210221538Y-103965080D01*
X210230984Y-103970850D01*
X210243955Y-103971124D01*
X210252931Y-103965938D01*
X210251696Y-103958874D01*
X210243042Y-103952652D01*
X210231953Y-103949643D01*
X210223623Y-103952001D01*
X210220366Y-103961693D01*
X209778875Y-103961693D01*
X209782893Y-103957000D01*
X209803259Y-103937346D01*
X209809375Y-103932281D01*
X209829370Y-103915843D01*
X209841048Y-103902656D01*
X209846249Y-103888692D01*
X209846817Y-103869920D01*
X209845564Y-103853125D01*
X209844708Y-103848291D01*
X210251328Y-103848291D01*
X210252983Y-103866433D01*
X210257260Y-103880013D01*
X210261813Y-103894729D01*
X210263749Y-103913313D01*
X210263750Y-103913622D01*
X210264911Y-103924590D01*
X210269464Y-103935389D01*
X210279013Y-103948317D01*
X210295161Y-103965674D01*
X210311173Y-103981615D01*
X210331076Y-104000706D01*
X210347852Y-104015999D01*
X210359443Y-104025666D01*
X210363529Y-104028125D01*
X210370114Y-104023437D01*
X210378699Y-104012500D01*
X210390481Y-104000693D01*
X210405981Y-103997711D01*
X210427392Y-104003433D01*
X210440214Y-104009140D01*
X210467002Y-104021006D01*
X210498274Y-104033216D01*
X210530932Y-104044738D01*
X210561877Y-104054544D01*
X210588013Y-104061602D01*
X210606242Y-104064883D01*
X210608114Y-104064985D01*
X210629194Y-104062525D01*
X210652095Y-104055615D01*
X210657512Y-104053227D01*
X210679215Y-104044352D01*
X210701030Y-104037809D01*
X210705648Y-104036856D01*
X210721052Y-104032275D01*
X210741166Y-104023917D01*
X210762504Y-104013551D01*
X210781583Y-104002951D01*
X210794918Y-103993886D01*
X210798958Y-103989430D01*
X210806078Y-103985399D01*
X210814748Y-103984375D01*
X210823417Y-103985797D01*
X210826732Y-103992354D01*
X210826247Y-104007483D01*
X210826067Y-104009412D01*
X210823679Y-104034449D01*
X210850127Y-104020349D01*
X210866388Y-104010464D01*
X210877363Y-104001532D01*
X210879581Y-103998437D01*
X210885714Y-103991195D01*
X210887936Y-103990625D01*
X210894493Y-103986481D01*
X210906281Y-103976108D01*
X210920201Y-103962592D01*
X210920289Y-103962500D01*
X210981250Y-103962500D01*
X210984375Y-103965625D01*
X210987500Y-103962500D01*
X210984375Y-103959375D01*
X210981250Y-103962500D01*
X210920289Y-103962500D01*
X210933150Y-103949020D01*
X210942027Y-103938480D01*
X210944148Y-103934678D01*
X210944986Y-103926640D01*
X210946455Y-103911987D01*
X210946500Y-103911536D01*
X210951257Y-103892254D01*
X210958601Y-103877333D01*
X210966416Y-103859817D01*
X210968750Y-103845365D01*
X210967433Y-103833179D01*
X210960869Y-103830236D01*
X210951562Y-103831911D01*
X210908632Y-103848365D01*
X210870970Y-103874348D01*
X210839390Y-103896122D01*
X210798311Y-103916854D01*
X210750734Y-103935346D01*
X210699659Y-103950399D01*
X210658998Y-103959039D01*
X210621144Y-103964280D01*
X210590812Y-103965071D01*
X210563853Y-103961443D01*
X210556975Y-103959803D01*
X210537906Y-103955266D01*
X210513253Y-103949878D01*
X210497286Y-103946598D01*
X210449174Y-103932624D01*
X210397996Y-103910018D01*
X210347446Y-103880661D01*
X210301826Y-103846949D01*
X210288945Y-103841169D01*
X210284227Y-103840625D01*
X210270243Y-103837740D01*
X210263032Y-103834659D01*
X210255271Y-103832291D01*
X210252025Y-103838289D01*
X210251328Y-103848291D01*
X209844708Y-103848291D01*
X209838995Y-103816018D01*
X209836313Y-103808456D01*
X210309040Y-103808456D01*
X210317042Y-103823055D01*
X210319646Y-103825954D01*
X210333992Y-103836371D01*
X210344574Y-103837238D01*
X210357567Y-103838891D01*
X210368430Y-103846555D01*
X210383175Y-103856141D01*
X210396520Y-103859375D01*
X210411735Y-103863834D01*
X210419958Y-103870883D01*
X210439558Y-103888080D01*
X210466595Y-103896301D01*
X210476948Y-103896875D01*
X210493656Y-103899238D01*
X210505156Y-103904982D01*
X210505646Y-103905523D01*
X210514423Y-103908796D01*
X210532892Y-103911365D01*
X210558264Y-103913200D01*
X210587749Y-103914268D01*
X210618558Y-103914540D01*
X210647902Y-103913985D01*
X210672991Y-103912572D01*
X210691035Y-103910271D01*
X210698687Y-103907645D01*
X210709236Y-103902990D01*
X210727228Y-103898269D01*
X210738969Y-103896085D01*
X210767612Y-103888064D01*
X210785846Y-103875183D01*
X210800018Y-103864245D01*
X210814278Y-103859389D01*
X210814909Y-103859375D01*
X210829972Y-103854890D01*
X210840692Y-103846800D01*
X210856999Y-103836864D01*
X210868208Y-103835863D01*
X210880824Y-103834377D01*
X210890242Y-103824862D01*
X210894668Y-103816858D01*
X210902070Y-103793013D01*
X210898038Y-103774132D01*
X210882633Y-103760384D01*
X210872766Y-103756174D01*
X210856896Y-103750197D01*
X210846771Y-103745421D01*
X210845617Y-103744575D01*
X210838265Y-103744671D01*
X210825529Y-103749726D01*
X210807269Y-103754959D01*
X210779827Y-103755986D01*
X210765384Y-103755224D01*
X210723721Y-103752476D01*
X210692445Y-103751105D01*
X210669504Y-103751240D01*
X210652845Y-103753014D01*
X210640417Y-103756558D01*
X210630169Y-103762001D01*
X210627175Y-103764051D01*
X210607476Y-103778102D01*
X210571374Y-103759111D01*
X210542410Y-103746726D01*
X210518250Y-103743696D01*
X210495506Y-103749932D01*
X210483138Y-103756794D01*
X210471035Y-103761884D01*
X210465105Y-103758535D01*
X210455911Y-103754549D01*
X210437151Y-103754458D01*
X210431967Y-103754988D01*
X210406747Y-103755319D01*
X210388255Y-103750419D01*
X210376514Y-103746101D01*
X210363481Y-103747068D01*
X210346354Y-103752706D01*
X210327865Y-103759975D01*
X210317790Y-103765911D01*
X210312920Y-103773773D01*
X210310044Y-103786817D01*
X210309458Y-103790149D01*
X210309040Y-103808456D01*
X209836313Y-103808456D01*
X209826904Y-103781931D01*
X209810901Y-103755278D01*
X209809035Y-103753061D01*
X209800881Y-103740903D01*
X209789702Y-103720659D01*
X209777179Y-103695824D01*
X209764992Y-103669891D01*
X209755263Y-103647379D01*
X210451177Y-103647379D01*
X210459845Y-103655225D01*
X210460937Y-103655589D01*
X210471996Y-103657854D01*
X210491769Y-103660963D01*
X210516547Y-103664347D01*
X210524428Y-103665334D01*
X210548807Y-103668678D01*
X210568132Y-103671998D01*
X210579268Y-103674730D01*
X210580656Y-103675448D01*
X210584507Y-103676916D01*
X210593122Y-103677186D01*
X210608148Y-103676117D01*
X210631235Y-103673563D01*
X210664030Y-103669381D01*
X210689489Y-103665972D01*
X210714682Y-103661894D01*
X210736416Y-103657187D01*
X210750536Y-103652773D01*
X210751792Y-103652165D01*
X210758448Y-103647867D01*
X210759514Y-103643112D01*
X210753810Y-103635574D01*
X210740153Y-103622922D01*
X210734348Y-103617799D01*
X210711776Y-103600098D01*
X210694243Y-103592071D01*
X210679578Y-103593181D01*
X210667379Y-103601240D01*
X210655778Y-103609926D01*
X210642364Y-103614996D01*
X210623430Y-103617363D01*
X210599541Y-103617934D01*
X210573153Y-103616081D01*
X210553672Y-103609461D01*
X210545451Y-103604336D01*
X210523875Y-103592879D01*
X210506123Y-103592804D01*
X210490586Y-103604234D01*
X210486898Y-103608852D01*
X210474665Y-103622004D01*
X210462771Y-103629810D01*
X210461711Y-103630142D01*
X210451854Y-103637228D01*
X210451177Y-103647379D01*
X209755263Y-103647379D01*
X209754821Y-103646356D01*
X209748347Y-103628713D01*
X209747274Y-103624620D01*
X209746134Y-103609895D01*
X209752330Y-103601069D01*
X209758079Y-103597568D01*
X209777475Y-103581489D01*
X209789261Y-103560100D01*
X209792713Y-103536805D01*
X209787110Y-103515010D01*
X209778125Y-103503125D01*
X209767278Y-103489424D01*
X209762784Y-103476491D01*
X209765258Y-103467633D01*
X209771156Y-103465625D01*
X209781321Y-103460857D01*
X209790500Y-103449680D01*
X209795939Y-103436778D01*
X209794881Y-103426838D01*
X209794331Y-103426206D01*
X209789059Y-103415071D01*
X209787499Y-103403344D01*
X209783821Y-103383661D01*
X209774254Y-103361855D01*
X209760999Y-103341182D01*
X209746257Y-103324895D01*
X209732229Y-103316247D01*
X209728161Y-103315624D01*
X209721132Y-103320973D01*
X209717253Y-103331076D01*
X209719113Y-103349243D01*
X209729079Y-103370429D01*
X209744949Y-103390580D01*
X209753894Y-103398596D01*
X209763939Y-103408832D01*
X209766556Y-103420833D01*
X209764976Y-103433401D01*
X209760792Y-103452891D01*
X209756359Y-103460907D01*
X209750044Y-103458398D01*
X209740973Y-103447347D01*
X209731243Y-103435926D01*
X209724560Y-103431260D01*
X209723681Y-103431526D01*
X209720925Y-103428205D01*
X209718011Y-103415963D01*
X209717251Y-103410932D01*
X209712223Y-103390769D01*
X209702163Y-103362890D01*
X209688451Y-103330307D01*
X209672465Y-103296035D01*
X209655584Y-103263088D01*
X209639189Y-103234479D01*
X209630200Y-103220710D01*
X209610963Y-103188266D01*
X209595211Y-103152132D01*
X209583532Y-103114901D01*
X209577453Y-103083933D01*
X209794590Y-103083933D01*
X209795364Y-103110382D01*
X209797230Y-103130059D01*
X209800250Y-103144861D01*
X209800835Y-103146875D01*
X209805035Y-103168695D01*
X209807890Y-103201180D01*
X209809267Y-103242555D01*
X209809375Y-103259375D01*
X209810081Y-103304897D01*
X209812601Y-103339405D01*
X209817535Y-103364329D01*
X209825483Y-103381094D01*
X209837047Y-103391129D01*
X209852828Y-103395863D01*
X209867187Y-103396789D01*
X209878165Y-103394806D01*
X209881250Y-103391437D01*
X209886703Y-103386719D01*
X209900556Y-103380884D01*
X209909716Y-103378029D01*
X209928459Y-103373650D01*
X209939402Y-103373900D01*
X209945654Y-103377998D01*
X209949881Y-103385327D01*
X209945312Y-103388802D01*
X209938033Y-103396459D01*
X209940440Y-103408780D01*
X209951921Y-103423341D01*
X209954687Y-103425827D01*
X209973519Y-103437777D01*
X209991760Y-103438988D01*
X210012383Y-103429410D01*
X210019098Y-103424707D01*
X210036159Y-103413467D01*
X210059186Y-103400024D01*
X210080326Y-103388769D01*
X210106837Y-103373067D01*
X210134615Y-103353018D01*
X210152705Y-103337500D01*
X210175219Y-103318159D01*
X210200537Y-103299631D01*
X210219254Y-103288152D01*
X210238958Y-103277325D01*
X210255092Y-103267929D01*
X210262500Y-103263152D01*
X210282972Y-103249987D01*
X210300146Y-103242393D01*
X210312072Y-103240798D01*
X210316797Y-103245629D01*
X210315461Y-103251562D01*
X210311522Y-103263294D01*
X210306026Y-103282554D01*
X210301353Y-103300485D01*
X210293423Y-103325724D01*
X210284628Y-103340174D01*
X210278901Y-103344235D01*
X210267259Y-103353131D01*
X210254714Y-103367930D01*
X210252068Y-103371875D01*
X210239304Y-103391017D01*
X210226349Y-103409018D01*
X210224906Y-103410901D01*
X210215064Y-103430226D01*
X210209478Y-103454570D01*
X210209259Y-103456885D01*
X210206733Y-103473883D01*
X210200877Y-103487645D01*
X210189394Y-103502217D01*
X210175516Y-103516296D01*
X210160869Y-103531230D01*
X210151491Y-103542120D01*
X210149207Y-103546826D01*
X210149458Y-103546875D01*
X210155140Y-103552073D01*
X210158060Y-103559375D01*
X210160950Y-103565633D01*
X210167366Y-103569380D01*
X210179987Y-103571242D01*
X210201491Y-103571845D01*
X210211546Y-103571875D01*
X210235460Y-103571134D01*
X210254277Y-103569168D01*
X210264731Y-103566361D01*
X210265688Y-103565523D01*
X210273059Y-103561841D01*
X210275242Y-103562650D01*
X210280962Y-103559837D01*
X210288113Y-103548508D01*
X210289861Y-103544613D01*
X210301396Y-103525846D01*
X210317148Y-103509591D01*
X210318175Y-103508811D01*
X210332790Y-103493130D01*
X210337310Y-103476687D01*
X210331162Y-103462196D01*
X210328544Y-103459723D01*
X210320957Y-103448053D01*
X210319897Y-103441770D01*
X210319281Y-103429990D01*
X210317371Y-103410751D01*
X210315491Y-103395312D01*
X210313096Y-103376025D01*
X210313753Y-103365010D01*
X210319789Y-103360600D01*
X210333531Y-103361127D01*
X210357308Y-103364924D01*
X210357793Y-103365003D01*
X210379413Y-103367072D01*
X210395360Y-103364011D01*
X210406381Y-103358381D01*
X210435287Y-103347504D01*
X210465348Y-103348712D01*
X210495353Y-103361815D01*
X210512500Y-103375011D01*
X210521956Y-103382569D01*
X210531309Y-103386001D01*
X210544600Y-103385850D01*
X210565869Y-103382659D01*
X210567433Y-103382392D01*
X210597537Y-103378892D01*
X210622099Y-103380371D01*
X210634710Y-103383144D01*
X210660574Y-103388971D01*
X210678553Y-103389554D01*
X210692306Y-103384441D01*
X210704117Y-103374576D01*
X210724889Y-103358882D01*
X210747955Y-103349300D01*
X210770010Y-103346506D01*
X210787751Y-103351176D01*
X210793750Y-103356250D01*
X210804510Y-103361713D01*
X210822693Y-103364931D01*
X210843390Y-103365709D01*
X210861693Y-103363853D01*
X210872523Y-103359351D01*
X210882474Y-103357131D01*
X210889438Y-103360914D01*
X210896125Y-103368510D01*
X210896479Y-103379650D01*
X210893789Y-103390583D01*
X210889410Y-103410487D01*
X210887502Y-103428471D01*
X210887500Y-103428977D01*
X210884329Y-103442581D01*
X210878125Y-103449135D01*
X210869396Y-103457935D01*
X210869288Y-103472265D01*
X210877137Y-103489284D01*
X210891207Y-103505220D01*
X210906994Y-103521127D01*
X210919726Y-103537364D01*
X210922649Y-103542247D01*
X210934228Y-103556093D01*
X210951153Y-103567702D01*
X210968708Y-103574436D01*
X210980198Y-103574487D01*
X210991185Y-103572890D01*
X211009179Y-103571911D01*
X211017698Y-103571779D01*
X211037033Y-103570633D01*
X211051744Y-103567856D01*
X211055276Y-103566358D01*
X211059456Y-103557568D01*
X211055303Y-103544223D01*
X211044906Y-103528669D01*
X211030358Y-103513250D01*
X211013746Y-103500313D01*
X210997163Y-103492201D01*
X210987780Y-103490625D01*
X210978020Y-103490122D01*
X210978485Y-103486686D01*
X210986148Y-103479687D01*
X210997065Y-103465198D01*
X211002709Y-103451066D01*
X211003664Y-103438511D01*
X210998476Y-103427433D01*
X210985116Y-103413579D01*
X210984618Y-103413122D01*
X210971506Y-103399182D01*
X210963575Y-103387028D01*
X210962500Y-103383016D01*
X210958087Y-103373314D01*
X210946903Y-103359962D01*
X210939905Y-103353332D01*
X210926270Y-103339293D01*
X210917137Y-103323419D01*
X210910134Y-103301141D01*
X210907918Y-103291747D01*
X210902264Y-103269431D01*
X210896585Y-103251542D01*
X210892246Y-103242187D01*
X210888755Y-103236849D01*
X210890532Y-103235280D01*
X210898920Y-103237957D01*
X210915268Y-103245356D01*
X210940919Y-103257952D01*
X210950848Y-103262926D01*
X210991418Y-103285889D01*
X211025095Y-103310152D01*
X211038521Y-103322301D01*
X211054560Y-103337646D01*
X211067421Y-103348687D01*
X211074412Y-103353117D01*
X211074532Y-103353125D01*
X211082363Y-103357395D01*
X211087799Y-103362861D01*
X211098840Y-103371716D01*
X211115337Y-103380685D01*
X211117916Y-103381804D01*
X211137601Y-103391900D01*
X211158260Y-103405156D01*
X211162105Y-103408005D01*
X211182186Y-103419911D01*
X211206515Y-103429772D01*
X211215566Y-103432305D01*
X211241025Y-103435572D01*
X211257569Y-103430677D01*
X211266400Y-103416795D01*
X211268750Y-103395906D01*
X211269890Y-103379940D01*
X211274456Y-103373058D01*
X211281250Y-103371875D01*
X211291398Y-103374922D01*
X211293750Y-103379166D01*
X211296152Y-103383484D01*
X211297668Y-103382539D01*
X211305404Y-103382167D01*
X211319569Y-103386209D01*
X211323181Y-103387643D01*
X211339307Y-103393079D01*
X211351531Y-103392294D01*
X211362953Y-103387265D01*
X211377442Y-103378610D01*
X211387913Y-103368550D01*
X211394952Y-103355045D01*
X211399146Y-103336056D01*
X211401083Y-103309544D01*
X211401350Y-103273468D01*
X211401099Y-103254679D01*
X211400917Y-103212900D01*
X211401927Y-103182038D01*
X211404100Y-103162652D01*
X211406464Y-103155991D01*
X211408957Y-103146785D01*
X211410897Y-103127343D01*
X211412284Y-103099917D01*
X211413119Y-103066756D01*
X211413401Y-103030113D01*
X211413132Y-102992240D01*
X211412310Y-102955387D01*
X211410937Y-102921807D01*
X211409013Y-102893750D01*
X211406537Y-102873467D01*
X211406437Y-102872911D01*
X211400558Y-102849473D01*
X211390673Y-102819519D01*
X211377917Y-102785682D01*
X211363420Y-102750596D01*
X211348317Y-102716893D01*
X211333738Y-102687206D01*
X211320816Y-102664170D01*
X211310816Y-102650548D01*
X211303342Y-102641031D01*
X211292147Y-102624515D01*
X211281179Y-102607053D01*
X211269621Y-102589125D01*
X211260128Y-102576453D01*
X211254929Y-102571875D01*
X211250428Y-102566861D01*
X211250000Y-102563421D01*
X211245352Y-102555829D01*
X211233031Y-102543294D01*
X211215470Y-102528234D01*
X211210937Y-102524660D01*
X211187665Y-102506284D01*
X211164177Y-102487223D01*
X211145553Y-102471599D01*
X211145527Y-102471577D01*
X211130717Y-102459872D01*
X211112784Y-102448048D01*
X211089909Y-102435121D01*
X211060276Y-102420104D01*
X211022069Y-102402011D01*
X210991572Y-102388042D01*
X210966668Y-102377011D01*
X210945219Y-102368498D01*
X210924766Y-102361986D01*
X210902846Y-102356957D01*
X210876999Y-102352894D01*
X210844764Y-102349281D01*
X210803680Y-102345599D01*
X210780497Y-102343688D01*
X210708328Y-102338512D01*
X210644414Y-102335607D01*
X210584716Y-102334972D01*
X210525197Y-102336609D01*
X210461820Y-102340517D01*
X210422707Y-102343737D01*
X210377919Y-102347755D01*
X210342682Y-102351423D01*
X210314136Y-102355522D01*
X210289424Y-102360838D01*
X210265687Y-102368156D01*
X210240068Y-102378259D01*
X210209707Y-102391931D01*
X210171746Y-102409957D01*
X210158862Y-102416133D01*
X210086316Y-102456390D01*
X210021997Y-102503364D01*
X209967227Y-102555980D01*
X209930549Y-102602312D01*
X209914386Y-102625710D01*
X209898364Y-102648798D01*
X209885948Y-102666580D01*
X209885937Y-102666596D01*
X209875797Y-102682122D01*
X209869624Y-102693673D01*
X209868750Y-102696684D01*
X209866417Y-102705311D01*
X209860351Y-102721911D01*
X209851945Y-102743057D01*
X209842594Y-102765323D01*
X209833694Y-102785281D01*
X209827665Y-102797608D01*
X209817804Y-102820648D01*
X209810027Y-102849251D01*
X209804088Y-102885021D01*
X209799740Y-102929561D01*
X209796738Y-102984476D01*
X209796065Y-103003125D01*
X209794845Y-103048813D01*
X209794590Y-103083933D01*
X209577453Y-103083933D01*
X209576517Y-103079163D01*
X209574751Y-103047511D01*
X209578826Y-103022535D01*
X209583149Y-103013493D01*
X209590709Y-103004199D01*
X209599822Y-103000983D01*
X209615229Y-103002544D01*
X209619969Y-103003407D01*
X209641194Y-103009071D01*
X209666429Y-103018116D01*
X209681250Y-103024478D01*
X209707907Y-103035516D01*
X209727302Y-103039649D01*
X209742406Y-103037150D01*
X209752757Y-103031051D01*
X209759679Y-103024256D01*
X209758639Y-103021874D01*
X209748900Y-103018444D01*
X209741978Y-103014062D01*
X209738862Y-103010815D01*
X209736541Y-103005396D01*
X209734975Y-102996350D01*
X209734124Y-102982224D01*
X209733949Y-102961562D01*
X209734410Y-102932910D01*
X209735468Y-102894814D01*
X209737083Y-102845819D01*
X209737262Y-102840625D01*
X209739282Y-102785371D01*
X209741313Y-102739857D01*
X209743610Y-102701324D01*
X209746428Y-102667015D01*
X209750020Y-102634170D01*
X209754642Y-102600031D01*
X209760549Y-102561841D01*
X209766101Y-102528125D01*
X209773954Y-102481505D01*
X209780349Y-102445053D01*
X209785839Y-102416596D01*
X209790978Y-102393966D01*
X209796320Y-102374992D01*
X209802416Y-102357503D01*
X209809822Y-102339328D01*
X209819090Y-102318299D01*
X209820290Y-102315625D01*
X209831630Y-102289602D01*
X209843956Y-102260222D01*
X209850639Y-102243750D01*
X209861461Y-102219344D01*
X209875928Y-102190324D01*
X209891046Y-102162669D01*
X209892158Y-102160757D01*
X209904342Y-102139235D01*
X209909639Y-102129136D01*
X210488694Y-102129136D01*
X210491967Y-102144923D01*
X210500870Y-102155156D01*
X210516894Y-102161033D01*
X210541527Y-102163750D01*
X210576260Y-102164502D01*
X210603125Y-102164508D01*
X210635144Y-102164126D01*
X210663818Y-102163178D01*
X210686194Y-102161801D01*
X210699317Y-102160135D01*
X210700000Y-102159960D01*
X210706754Y-102157650D01*
X210711192Y-102153759D01*
X210713774Y-102145999D01*
X210714960Y-102132085D01*
X210715210Y-102109729D01*
X210715052Y-102085153D01*
X210714654Y-102054411D01*
X210713695Y-102033472D01*
X210711641Y-102019642D01*
X210707955Y-102010223D01*
X210702101Y-102002520D01*
X210697733Y-101998007D01*
X210688932Y-101990149D01*
X210679470Y-101985059D01*
X210666301Y-101981986D01*
X210646381Y-101980184D01*
X210620586Y-101979044D01*
X210575172Y-101979241D01*
X210540712Y-101983494D01*
X210517532Y-101991738D01*
X210506831Y-102002038D01*
X210503590Y-102012696D01*
X210499606Y-102032531D01*
X210495483Y-102058292D01*
X210493083Y-102076118D01*
X210489563Y-102106600D01*
X210488694Y-102129136D01*
X209909639Y-102129136D01*
X209913588Y-102121608D01*
X209918394Y-102110792D01*
X209918750Y-102109195D01*
X209923511Y-102103300D01*
X209925000Y-102103125D01*
X209930997Y-102098311D01*
X209931250Y-102096432D01*
X209935047Y-102086795D01*
X209944966Y-102070762D01*
X209958798Y-102051255D01*
X209974333Y-102031195D01*
X209989363Y-102013507D01*
X210001678Y-102001111D01*
X210005524Y-101998177D01*
X210018053Y-101989581D01*
X210025000Y-101983663D01*
X210037525Y-101972883D01*
X210059256Y-101959830D01*
X210087403Y-101945740D01*
X210119175Y-101931853D01*
X210151782Y-101919404D01*
X210182432Y-101909632D01*
X210203125Y-101904676D01*
X210245149Y-101894629D01*
X210280037Y-101880912D01*
X210313086Y-101861136D01*
X210333628Y-101845849D01*
X210364132Y-101821875D01*
X210599253Y-101821884D01*
X210660057Y-101821835D01*
X210709806Y-101821829D01*
X210749945Y-101822091D01*
X210781919Y-101822843D01*
X210807172Y-101824309D01*
X210827148Y-101826712D01*
X210843292Y-101830275D01*
X210857049Y-101835221D01*
X210869862Y-101841774D01*
X210883176Y-101850157D01*
X210898435Y-101860592D01*
X210912633Y-101870312D01*
X210941147Y-101887441D01*
X210963385Y-101895767D01*
X210973304Y-101896875D01*
X210992514Y-101899363D01*
X211019471Y-101906070D01*
X211050628Y-101915855D01*
X211082438Y-101927579D01*
X211111354Y-101940103D01*
X211117911Y-101943325D01*
X211165204Y-101969831D01*
X211202491Y-101996835D01*
X211232182Y-102026287D01*
X211250662Y-102050777D01*
X211289322Y-102110881D01*
X211322173Y-102166906D01*
X211348202Y-102217052D01*
X211362922Y-102250430D01*
X211374194Y-102278305D01*
X211385811Y-102306244D01*
X211395497Y-102328782D01*
X211396593Y-102331250D01*
X211407173Y-102358220D01*
X211416907Y-102390489D01*
X211426262Y-102429969D01*
X211435704Y-102478576D01*
X211443075Y-102521875D01*
X211456205Y-102608228D01*
X211465738Y-102683770D01*
X211471646Y-102748199D01*
X211473898Y-102801213D01*
X211473207Y-102832694D01*
X211472220Y-102868107D01*
X211472816Y-102907934D01*
X211474855Y-102944288D01*
X211475236Y-102948529D01*
X211477646Y-102975804D01*
X211478376Y-102993447D01*
X211477111Y-103004252D01*
X211473537Y-103011013D01*
X211467592Y-103016329D01*
X211458778Y-103026500D01*
X211459989Y-103034249D01*
X211468892Y-103039038D01*
X211483155Y-103040328D01*
X211500446Y-103037583D01*
X211518433Y-103030262D01*
X211521137Y-103028682D01*
X211546095Y-103015794D01*
X211572120Y-103006274D01*
X211595730Y-103001060D01*
X211613444Y-103001091D01*
X211617790Y-103002611D01*
X211629645Y-103015691D01*
X211635403Y-103037598D01*
X211635343Y-103066405D01*
X211629744Y-103100186D01*
X211618882Y-103137014D01*
X211603036Y-103174963D01*
X211589129Y-103201159D01*
X211565481Y-103242271D01*
X211547241Y-103275478D01*
X211533116Y-103303427D01*
X211521814Y-103328762D01*
X211512040Y-103354132D01*
X211506350Y-103370534D01*
X211496345Y-103396978D01*
X211485256Y-103421148D01*
X211475103Y-103438754D01*
X211472805Y-103441801D01*
X211456665Y-103461282D01*
X211450207Y-103444296D01*
X211445080Y-103428031D01*
X211445680Y-103416030D01*
X211453268Y-103403744D01*
X211464988Y-103390888D01*
X211481058Y-103369616D01*
X211490075Y-103348056D01*
X211490937Y-103329461D01*
X211488135Y-103322551D01*
X211482592Y-103318058D01*
X211473754Y-103320721D01*
X211463051Y-103327731D01*
X211441879Y-103347836D01*
X211427811Y-103373899D01*
X211420027Y-103407949D01*
X211417829Y-103439574D01*
X211421996Y-103454573D01*
X211430620Y-103466380D01*
X211440149Y-103478547D01*
X211443705Y-103489781D01*
X211440430Y-103496359D01*
X211437660Y-103496875D01*
X211430970Y-103501886D01*
X211422672Y-103514139D01*
X211421677Y-103516007D01*
X211415921Y-103539533D01*
X211421001Y-103562990D01*
X211435779Y-103582711D01*
X211444207Y-103588764D01*
X211457999Y-103600492D01*
X211462447Y-103616007D01*
X211462499Y-103618628D01*
X211459289Y-103635625D01*
X211450623Y-103659821D01*
X211437953Y-103687998D01*
X211422727Y-103716934D01*
X211406396Y-103743409D01*
X211406165Y-103743750D01*
X211389242Y-103771313D01*
X211376016Y-103798103D01*
X211367642Y-103821315D01*
X211365277Y-103838145D01*
X211365880Y-103841428D01*
X211366380Y-103855934D01*
X211361971Y-103873150D01*
X211361943Y-103873218D01*
X211357877Y-103884999D01*
X211358970Y-103893581D01*
X211366883Y-103902952D01*
X211378563Y-103913125D01*
X211405825Y-103936799D01*
X211426008Y-103956125D01*
X211442136Y-103974114D01*
X211450943Y-103985281D01*
X211467281Y-104001248D01*
X211492478Y-104018913D01*
X211516568Y-104032589D01*
X211545758Y-104048336D01*
X211576981Y-104066138D01*
X211603940Y-104082396D01*
X211606250Y-104083855D01*
X211646379Y-104108067D01*
X211680908Y-104125523D01*
X211713605Y-104137747D01*
X211748237Y-104146262D01*
X211769827Y-104149969D01*
X211818390Y-104159013D01*
X211866721Y-104170996D01*
X211911247Y-104184871D01*
X211948396Y-104199596D01*
X211961184Y-104205913D01*
X211983957Y-104217246D01*
X212007234Y-104227491D01*
X212015625Y-104230737D01*
X212036212Y-104238308D01*
X212061227Y-104247693D01*
X212075000Y-104252935D01*
X212097386Y-104260346D01*
X212126766Y-104268497D01*
X212157825Y-104275946D01*
X212167058Y-104277907D01*
X212196762Y-104285018D01*
X212225655Y-104293688D01*
X212248817Y-104302388D01*
X212254558Y-104305104D01*
X212291721Y-104322964D01*
X212331453Y-104339169D01*
X212377143Y-104355001D01*
X212425000Y-104369655D01*
X212456711Y-104379287D01*
X212487227Y-104389162D01*
X212512705Y-104398003D01*
X212527170Y-104403598D01*
X212545994Y-104410331D01*
X212561013Y-104413450D01*
X212566302Y-104413104D01*
X212567313Y-104411403D01*
X212568242Y-104406795D01*
X212569091Y-104398817D01*
X212569864Y-104387002D01*
X212570562Y-104370885D01*
X212571189Y-104350002D01*
X212571746Y-104323886D01*
X212572235Y-104292074D01*
X212572661Y-104254098D01*
X212573024Y-104209495D01*
X212573327Y-104157798D01*
X212573573Y-104098544D01*
X212573765Y-104031265D01*
X212573904Y-103955498D01*
X212573993Y-103870776D01*
X212574035Y-103776635D01*
X212574033Y-103672610D01*
X212573987Y-103558234D01*
X212573902Y-103433044D01*
X212573779Y-103296572D01*
X212573621Y-103148355D01*
X212573507Y-103050169D01*
X212571875Y-101690625D01*
X212585937Y-101690625D01*
X212600000Y-101690625D01*
X212600000Y-103500000D01*
G37*
D10*
G04 #@! TO.C,D11*
X229950000Y-101100000D02*
X229950000Y-106150000D01*
X230400000Y-100650000D02*
X229950000Y-101100000D01*
X230750000Y-102500000D02*
X230750000Y-104300000D01*
X236150000Y-102500000D02*
X236150000Y-104300000D01*
X236950000Y-100650000D02*
X230400000Y-100650000D01*
X236950000Y-106150000D02*
X229950000Y-106150000D01*
X236950000Y-106150000D02*
X236950000Y-100650000D01*
G04 #@! TO.C,D13*
X230000000Y-85200000D02*
X230000000Y-90250000D01*
X230450000Y-84750000D02*
X230000000Y-85200000D01*
X230800000Y-86600000D02*
X230800000Y-88400000D01*
X236200000Y-86600000D02*
X236200000Y-88400000D01*
X237000000Y-84750000D02*
X230450000Y-84750000D01*
X237000000Y-90250000D02*
X230000000Y-90250000D01*
X237000000Y-90250000D02*
X237000000Y-84750000D01*
G04 #@! TO.C,D8*
X207850000Y-100500000D02*
X207850000Y-107050000D01*
X207850000Y-107050000D02*
X208300000Y-107500000D01*
X208300000Y-107500000D02*
X213350000Y-107500000D01*
X209700000Y-101300000D02*
X211500000Y-101300000D01*
X209700000Y-106700000D02*
X211500000Y-106700000D01*
X213350000Y-100500000D02*
X207850000Y-100500000D01*
X213350000Y-100500000D02*
X213350000Y-107500000D01*
G04 #@! TO.C,D3*
X191500000Y-77100000D02*
X191500000Y-82150000D01*
X191950000Y-76650000D02*
X191500000Y-77100000D01*
X192300000Y-78500000D02*
X192300000Y-80300000D01*
X197700000Y-78500000D02*
X197700000Y-80300000D01*
X198500000Y-76650000D02*
X191950000Y-76650000D01*
X198500000Y-82150000D02*
X191500000Y-82150000D01*
X198500000Y-82150000D02*
X198500000Y-76650000D01*
G04 #@! TO.C,D9*
X215350000Y-100500000D02*
X215350000Y-107050000D01*
X215350000Y-107050000D02*
X215800000Y-107500000D01*
X215800000Y-107500000D02*
X220850000Y-107500000D01*
X217200000Y-101300000D02*
X219000000Y-101300000D01*
X217200000Y-106700000D02*
X219000000Y-106700000D01*
X220850000Y-100500000D02*
X215350000Y-100500000D01*
X220850000Y-100500000D02*
X220850000Y-107500000D01*
G04 #@! TO.C,D6*
X191550000Y-101100000D02*
X191550000Y-106150000D01*
X192000000Y-100650000D02*
X191550000Y-101100000D01*
X192350000Y-102500000D02*
X192350000Y-104300000D01*
X197750000Y-102500000D02*
X197750000Y-104300000D01*
X198550000Y-100650000D02*
X192000000Y-100650000D01*
X198550000Y-106150000D02*
X191550000Y-106150000D01*
X198550000Y-106150000D02*
X198550000Y-100650000D01*
G04 #@! TO.C,D5*
X191550000Y-93300000D02*
X191550000Y-98350000D01*
X192000000Y-92850000D02*
X191550000Y-93300000D01*
X192350000Y-94700000D02*
X192350000Y-96500000D01*
X197750000Y-94700000D02*
X197750000Y-96500000D01*
X198550000Y-92850000D02*
X192000000Y-92850000D01*
X198550000Y-98350000D02*
X191550000Y-98350000D01*
X198550000Y-98350000D02*
X198550000Y-92850000D01*
G04 #@! TO.C,D4*
X191500000Y-85100000D02*
X191500000Y-90150000D01*
X191950000Y-84650000D02*
X191500000Y-85100000D01*
X192300000Y-86500000D02*
X192300000Y-88300000D01*
X197700000Y-86500000D02*
X197700000Y-88300000D01*
X198500000Y-84650000D02*
X191950000Y-84650000D01*
X198500000Y-90150000D02*
X191500000Y-90150000D01*
X198500000Y-90150000D02*
X198500000Y-84650000D01*
G04 #@! TO.C,D10*
X222850000Y-100550000D02*
X222850000Y-107100000D01*
X222850000Y-107100000D02*
X223300000Y-107550000D01*
X223300000Y-107550000D02*
X228350000Y-107550000D01*
X224700000Y-101350000D02*
X226500000Y-101350000D01*
X224700000Y-106750000D02*
X226500000Y-106750000D01*
X228350000Y-100550000D02*
X222850000Y-100550000D01*
X228350000Y-100550000D02*
X228350000Y-107550000D01*
G04 #@! TO.C,D17*
X222750000Y-60500000D02*
X222750000Y-67050000D01*
X222750000Y-67050000D02*
X223200000Y-67500000D01*
X223200000Y-67500000D02*
X228250000Y-67500000D01*
X224600000Y-61300000D02*
X226400000Y-61300000D01*
X224600000Y-66700000D02*
X226400000Y-66700000D01*
X228250000Y-60500000D02*
X222750000Y-60500000D01*
X228250000Y-60500000D02*
X228250000Y-67500000D01*
G04 #@! TO.C,D19*
X207750000Y-60500000D02*
X207750000Y-67050000D01*
X207750000Y-67050000D02*
X208200000Y-67500000D01*
X208200000Y-67500000D02*
X213250000Y-67500000D01*
X209600000Y-61300000D02*
X211400000Y-61300000D01*
X209600000Y-66700000D02*
X211400000Y-66700000D01*
X213250000Y-60500000D02*
X207750000Y-60500000D01*
X213250000Y-60500000D02*
X213250000Y-67500000D01*
G04 #@! TO.C,D2*
X191500000Y-69200000D02*
X191500000Y-74250000D01*
X191950000Y-68750000D02*
X191500000Y-69200000D01*
X192300000Y-70600000D02*
X192300000Y-72400000D01*
X197700000Y-70600000D02*
X197700000Y-72400000D01*
X198500000Y-68750000D02*
X191950000Y-68750000D01*
X198500000Y-74250000D02*
X191500000Y-74250000D01*
X198500000Y-74250000D02*
X198500000Y-68750000D01*
G04 #@! TO.C,D16*
X230050000Y-61800000D02*
X230050000Y-66850000D01*
X230500000Y-61350000D02*
X230050000Y-61800000D01*
X230850000Y-63200000D02*
X230850000Y-65000000D01*
X236250000Y-63200000D02*
X236250000Y-65000000D01*
X237050000Y-61350000D02*
X230500000Y-61350000D01*
X237050000Y-66850000D02*
X230050000Y-66850000D01*
X237050000Y-66850000D02*
X237050000Y-61350000D01*
G04 #@! TO.C,D12*
X230050000Y-93100000D02*
X230050000Y-98150000D01*
X230500000Y-92650000D02*
X230050000Y-93100000D01*
X230850000Y-94500000D02*
X230850000Y-96300000D01*
X236250000Y-94500000D02*
X236250000Y-96300000D01*
X237050000Y-92650000D02*
X230500000Y-92650000D01*
X237050000Y-98150000D02*
X230050000Y-98150000D01*
X237050000Y-98150000D02*
X237050000Y-92650000D01*
G04 #@! TO.C,D20*
X200350000Y-60450000D02*
X200350000Y-67000000D01*
X200350000Y-67000000D02*
X200800000Y-67450000D01*
X200800000Y-67450000D02*
X205850000Y-67450000D01*
X202200000Y-61250000D02*
X204000000Y-61250000D01*
X202200000Y-66650000D02*
X204000000Y-66650000D01*
X205850000Y-60450000D02*
X200350000Y-60450000D01*
X205850000Y-60450000D02*
X205850000Y-67450000D01*
G04 #@! TO.C,D15*
X230000000Y-69200000D02*
X230000000Y-74250000D01*
X230450000Y-68750000D02*
X230000000Y-69200000D01*
X230800000Y-70600000D02*
X230800000Y-72400000D01*
X236200000Y-70600000D02*
X236200000Y-72400000D01*
X237000000Y-68750000D02*
X230450000Y-68750000D01*
X237000000Y-74250000D02*
X230000000Y-74250000D01*
X237000000Y-74250000D02*
X237000000Y-68750000D01*
G04 #@! TO.C,D7*
X200250000Y-100450000D02*
X200250000Y-107000000D01*
X200250000Y-107000000D02*
X200700000Y-107450000D01*
X200700000Y-107450000D02*
X205750000Y-107450000D01*
X202100000Y-101250000D02*
X203900000Y-101250000D01*
X202100000Y-106650000D02*
X203900000Y-106650000D01*
X205750000Y-100450000D02*
X200250000Y-100450000D01*
X205750000Y-100450000D02*
X205750000Y-107450000D01*
G04 #@! TO.C,D14*
X230000000Y-77200000D02*
X230000000Y-82250000D01*
X230450000Y-76750000D02*
X230000000Y-77200000D01*
X230800000Y-78600000D02*
X230800000Y-80400000D01*
X236200000Y-78600000D02*
X236200000Y-80400000D01*
X237000000Y-76750000D02*
X230450000Y-76750000D01*
X237000000Y-82250000D02*
X230000000Y-82250000D01*
X237000000Y-82250000D02*
X237000000Y-76750000D01*
G04 #@! TO.C,D1*
X191500000Y-61700000D02*
X191500000Y-66750000D01*
X191950000Y-61250000D02*
X191500000Y-61700000D01*
X192300000Y-63100000D02*
X192300000Y-64900000D01*
X197700000Y-63100000D02*
X197700000Y-64900000D01*
X198500000Y-61250000D02*
X191950000Y-61250000D01*
X198500000Y-66750000D02*
X191500000Y-66750000D01*
X198500000Y-66750000D02*
X198500000Y-61250000D01*
G04 #@! TD*
%LPC*%
D12*
G04 #@! TO.C,D18*
X216300000Y-66400000D03*
X219500000Y-66400000D03*
X219500000Y-61500000D03*
X216300000Y-61500000D03*
G04 #@! TD*
D13*
G04 #@! TO.C,D11*
X231000000Y-101800000D03*
X231000000Y-105000000D03*
X235900000Y-105000000D03*
X235900000Y-101800000D03*
G04 #@! TD*
G04 #@! TO.C,D13*
X231050000Y-85900000D03*
X231050000Y-89100000D03*
X235950000Y-89100000D03*
X235950000Y-85900000D03*
G04 #@! TD*
D12*
G04 #@! TO.C,D8*
X209000000Y-106450000D03*
X212200000Y-106450000D03*
X212200000Y-101550000D03*
X209000000Y-101550000D03*
G04 #@! TD*
D13*
G04 #@! TO.C,D3*
X192550000Y-77800000D03*
X192550000Y-81000000D03*
X197450000Y-81000000D03*
X197450000Y-77800000D03*
G04 #@! TD*
D12*
G04 #@! TO.C,D9*
X216500000Y-106450000D03*
X219700000Y-106450000D03*
X219700000Y-101550000D03*
X216500000Y-101550000D03*
G04 #@! TD*
D13*
G04 #@! TO.C,D6*
X192600000Y-101800000D03*
X192600000Y-105000000D03*
X197500000Y-105000000D03*
X197500000Y-101800000D03*
G04 #@! TD*
G04 #@! TO.C,D5*
X192600000Y-94000000D03*
X192600000Y-97200000D03*
X197500000Y-97200000D03*
X197500000Y-94000000D03*
G04 #@! TD*
G04 #@! TO.C,D4*
X192550000Y-85800000D03*
X192550000Y-89000000D03*
X197450000Y-89000000D03*
X197450000Y-85800000D03*
G04 #@! TD*
D12*
G04 #@! TO.C,D10*
X224000000Y-106500000D03*
X227200000Y-106500000D03*
X227200000Y-101600000D03*
X224000000Y-101600000D03*
G04 #@! TD*
G04 #@! TO.C,D17*
X223900000Y-66450000D03*
X227100000Y-66450000D03*
X227100000Y-61550000D03*
X223900000Y-61550000D03*
G04 #@! TD*
G04 #@! TO.C,D19*
X208900000Y-66450000D03*
X212100000Y-66450000D03*
X212100000Y-61550000D03*
X208900000Y-61550000D03*
G04 #@! TD*
D13*
G04 #@! TO.C,D2*
X192550000Y-69900000D03*
X192550000Y-73100000D03*
X197450000Y-73100000D03*
X197450000Y-69900000D03*
G04 #@! TD*
G04 #@! TO.C,D16*
X231100000Y-62500000D03*
X231100000Y-65700000D03*
X236000000Y-65700000D03*
X236000000Y-62500000D03*
G04 #@! TD*
G04 #@! TO.C,D12*
X231100000Y-93800000D03*
X231100000Y-97000000D03*
X236000000Y-97000000D03*
X236000000Y-93800000D03*
G04 #@! TD*
D12*
G04 #@! TO.C,D20*
X201500000Y-66400000D03*
X204700000Y-66400000D03*
X204700000Y-61500000D03*
X201500000Y-61500000D03*
G04 #@! TD*
D13*
G04 #@! TO.C,D15*
X231050000Y-69900000D03*
X231050000Y-73100000D03*
X235950000Y-73100000D03*
X235950000Y-69900000D03*
G04 #@! TD*
D12*
G04 #@! TO.C,D7*
X201400000Y-106400000D03*
X204600000Y-106400000D03*
X204600000Y-101500000D03*
X201400000Y-101500000D03*
G04 #@! TD*
D13*
G04 #@! TO.C,D14*
X231050000Y-77900000D03*
X231050000Y-81100000D03*
X235950000Y-81100000D03*
X235950000Y-77900000D03*
G04 #@! TD*
G04 #@! TO.C,D1*
X192550000Y-62400000D03*
X192550000Y-65600000D03*
X197450000Y-65600000D03*
X197450000Y-62400000D03*
G04 #@! TD*
%LPD*%
M02*
