ISO-10303-21;
HEADER;
/* Generated by software containing ST-Developer
 * from STEP Tools, Inc. (www.steptools.com) 
 */

FILE_DESCRIPTION(
/* description */ (''),
/* implementation_level */ '2;1');

FILE_NAME(
/* name */ 'sculk shrieker trim corner.step',
/* time_stamp */ '2025-07-07T22:48:46-04:00',
/* author */ (''),
/* organization */ (''),
/* preprocessor_version */ 'ST-DEVELOPER v20.1',
/* originating_system */ 'Autodesk Translation Framework v14.10.0.0',
/* authorisation */ '');

FILE_SCHEMA (('AUTOMOTIVE_DESIGN { 1 0 10303 214 3 1 1 }'));
ENDSEC;

DATA;
#10=MECHANICAL_DESIGN_GEOMETRIC_PRESENTATION_REPRESENTATION('',(#25),#533);
#11=ITEM_DEFINED_TRANSFORMATION($,$,#334,#350);
#12=ITEM_DEFINED_TRANSFORMATION($,$,#333,#352);
#13=ITEM_DEFINED_TRANSFORMATION($,$,#351,#353);
#14=(
REPRESENTATION_RELATIONSHIP($,$,#551,#550)
REPRESENTATION_RELATIONSHIP_WITH_TRANSFORMATION(#11)
SHAPE_REPRESENTATION_RELATIONSHIP()
);
#15=(
REPRESENTATION_RELATIONSHIP($,$,#550,#549)
REPRESENTATION_RELATIONSHIP_WITH_TRANSFORMATION(#12)
SHAPE_REPRESENTATION_RELATIONSHIP()
);
#16=(
REPRESENTATION_RELATIONSHIP($,$,#552,#549)
REPRESENTATION_RELATIONSHIP_WITH_TRANSFORMATION(#13)
SHAPE_REPRESENTATION_RELATIONSHIP()
);
#17=CONTEXT_DEPENDENT_SHAPE_REPRESENTATION(#14,#545);
#18=CONTEXT_DEPENDENT_SHAPE_REPRESENTATION(#15,#547);
#19=CONTEXT_DEPENDENT_SHAPE_REPRESENTATION(#16,#548);
#20=NEXT_ASSEMBLY_USAGE_OCCURRENCE('Component17:1','Component17:1',
'Component17:1',#555,#556,'Component17:1');
#21=NEXT_ASSEMBLY_USAGE_OCCURRENCE('decor:1','decor:1','decor:1',#554,#555,
'decor:1');
#22=NEXT_ASSEMBLY_USAGE_OCCURRENCE('body:1','body:1','body:1',#554,#557,
'body:1');
#23=SHAPE_REPRESENTATION_RELATIONSHIP('SRR','None',#551,#24);
#24=ADVANCED_BREP_SHAPE_REPRESENTATION('',(#26),#531);
#25=STYLED_ITEM('',(#574),#26);
#26=MANIFOLD_SOLID_BREP('Body1',#308);
#27=FACE_OUTER_BOUND('',#42,.T.);
#28=FACE_OUTER_BOUND('',#43,.T.);
#29=FACE_OUTER_BOUND('',#44,.T.);
#30=FACE_OUTER_BOUND('',#45,.T.);
#31=FACE_OUTER_BOUND('',#46,.T.);
#32=FACE_OUTER_BOUND('',#47,.T.);
#33=FACE_OUTER_BOUND('',#48,.T.);
#34=FACE_OUTER_BOUND('',#49,.T.);
#35=FACE_OUTER_BOUND('',#50,.T.);
#36=FACE_OUTER_BOUND('',#51,.T.);
#37=FACE_OUTER_BOUND('',#52,.T.);
#38=FACE_OUTER_BOUND('',#53,.T.);
#39=FACE_OUTER_BOUND('',#54,.T.);
#40=FACE_OUTER_BOUND('',#55,.T.);
#41=FACE_OUTER_BOUND('',#56,.T.);
#42=EDGE_LOOP('',(#200,#201,#202,#203));
#43=EDGE_LOOP('',(#204,#205,#206,#207));
#44=EDGE_LOOP('',(#208,#209,#210,#211,#212,#213));
#45=EDGE_LOOP('',(#214,#215,#216,#217,#218,#219));
#46=EDGE_LOOP('',(#220,#221,#222,#223,#224,#225));
#47=EDGE_LOOP('',(#226,#227,#228,#229));
#48=EDGE_LOOP('',(#230,#231,#232,#233));
#49=EDGE_LOOP('',(#234,#235,#236,#237,#238,#239));
#50=EDGE_LOOP('',(#240,#241,#242,#243,#244,#245));
#51=EDGE_LOOP('',(#246,#247,#248,#249));
#52=EDGE_LOOP('',(#250,#251,#252,#253));
#53=EDGE_LOOP('',(#254,#255,#256,#257,#258,#259));
#54=EDGE_LOOP('',(#260,#261,#262,#263,#264,#265));
#55=EDGE_LOOP('',(#266,#267,#268,#269,#270,#271));
#56=EDGE_LOOP('',(#272,#273,#274,#275,#276,#277));
#57=LINE('',#443,#96);
#58=LINE('',#445,#97);
#59=LINE('',#447,#98);
#60=LINE('',#448,#99);
#61=LINE('',#451,#100);
#62=LINE('',#453,#101);
#63=LINE('',#454,#102);
#64=LINE('',#457,#103);
#65=LINE('',#459,#104);
#66=LINE('',#461,#105);
#67=LINE('',#462,#106);
#68=LINE('',#465,#107);
#69=LINE('',#467,#108);
#70=LINE('',#469,#109);
#71=LINE('',#471,#110);
#72=LINE('',#472,#111);
#73=LINE('',#475,#112);
#74=LINE('',#477,#113);
#75=LINE('',#479,#114);
#76=LINE('',#480,#115);
#77=LINE('',#484,#116);
#78=LINE('',#485,#117);
#79=LINE('',#486,#118);
#80=LINE('',#489,#119);
#81=LINE('',#490,#120);
#82=LINE('',#493,#121);
#83=LINE('',#494,#122);
#84=LINE('',#497,#123);
#85=LINE('',#499,#124);
#86=LINE('',#500,#125);
#87=LINE('',#503,#126);
#88=LINE('',#504,#127);
#89=LINE('',#507,#128);
#90=LINE('',#508,#129);
#91=LINE('',#511,#130);
#92=LINE('',#512,#131);
#93=LINE('',#515,#132);
#94=LINE('',#516,#133);
#95=LINE('',#518,#134);
#96=VECTOR('',#362,10.);
#97=VECTOR('',#363,10.);
#98=VECTOR('',#364,10.);
#99=VECTOR('',#365,10.);
#100=VECTOR('',#368,10.);
#101=VECTOR('',#369,10.);
#102=VECTOR('',#370,10.);
#103=VECTOR('',#373,10.);
#104=VECTOR('',#374,10.);
#105=VECTOR('',#375,10.);
#106=VECTOR('',#376,10.);
#107=VECTOR('',#379,10.);
#108=VECTOR('',#380,10.);
#109=VECTOR('',#381,10.);
#110=VECTOR('',#382,10.);
#111=VECTOR('',#383,10.);
#112=VECTOR('',#386,10.);
#113=VECTOR('',#387,10.);
#114=VECTOR('',#388,10.);
#115=VECTOR('',#389,10.);
#116=VECTOR('',#392,10.);
#117=VECTOR('',#393,10.);
#118=VECTOR('',#394,10.);
#119=VECTOR('',#397,10.);
#120=VECTOR('',#398,10.);
#121=VECTOR('',#401,10.);
#122=VECTOR('',#402,10.);
#123=VECTOR('',#405,10.);
#124=VECTOR('',#406,10.);
#125=VECTOR('',#407,10.);
#126=VECTOR('',#410,10.);
#127=VECTOR('',#411,10.);
#128=VECTOR('',#414,10.);
#129=VECTOR('',#415,10.);
#130=VECTOR('',#418,10.);
#131=VECTOR('',#419,10.);
#132=VECTOR('',#422,10.);
#133=VECTOR('',#423,10.);
#134=VECTOR('',#426,10.);
#135=VERTEX_POINT('',#441);
#136=VERTEX_POINT('',#442);
#137=VERTEX_POINT('',#444);
#138=VERTEX_POINT('',#446);
#139=VERTEX_POINT('',#450);
#140=VERTEX_POINT('',#452);
#141=VERTEX_POINT('',#456);
#142=VERTEX_POINT('',#458);
#143=VERTEX_POINT('',#460);
#144=VERTEX_POINT('',#464);
#145=VERTEX_POINT('',#466);
#146=VERTEX_POINT('',#468);
#147=VERTEX_POINT('',#470);
#148=VERTEX_POINT('',#474);
#149=VERTEX_POINT('',#476);
#150=VERTEX_POINT('',#478);
#151=VERTEX_POINT('',#482);
#152=VERTEX_POINT('',#483);
#153=VERTEX_POINT('',#488);
#154=VERTEX_POINT('',#492);
#155=VERTEX_POINT('',#496);
#156=VERTEX_POINT('',#498);
#157=VERTEX_POINT('',#502);
#158=VERTEX_POINT('',#506);
#159=VERTEX_POINT('',#510);
#160=VERTEX_POINT('',#514);
#161=EDGE_CURVE('',#135,#136,#57,.T.);
#162=EDGE_CURVE('',#136,#137,#58,.T.);
#163=EDGE_CURVE('',#138,#137,#59,.T.);
#164=EDGE_CURVE('',#135,#138,#60,.T.);
#165=EDGE_CURVE('',#139,#135,#61,.T.);
#166=EDGE_CURVE('',#140,#138,#62,.T.);
#167=EDGE_CURVE('',#139,#140,#63,.T.);
#168=EDGE_CURVE('',#137,#141,#64,.T.);
#169=EDGE_CURVE('',#142,#141,#65,.T.);
#170=EDGE_CURVE('',#143,#142,#66,.T.);
#171=EDGE_CURVE('',#143,#140,#67,.T.);
#172=EDGE_CURVE('',#142,#144,#68,.T.);
#173=EDGE_CURVE('',#145,#144,#69,.T.);
#174=EDGE_CURVE('',#146,#145,#70,.T.);
#175=EDGE_CURVE('',#147,#146,#71,.T.);
#176=EDGE_CURVE('',#143,#147,#72,.T.);
#177=EDGE_CURVE('',#141,#148,#73,.T.);
#178=EDGE_CURVE('',#148,#149,#74,.T.);
#179=EDGE_CURVE('',#149,#150,#75,.T.);
#180=EDGE_CURVE('',#150,#144,#76,.T.);
#181=EDGE_CURVE('',#151,#152,#77,.T.);
#182=EDGE_CURVE('',#151,#150,#78,.T.);
#183=EDGE_CURVE('',#152,#149,#79,.T.);
#184=EDGE_CURVE('',#152,#153,#80,.T.);
#185=EDGE_CURVE('',#153,#148,#81,.T.);
#186=EDGE_CURVE('',#153,#154,#82,.T.);
#187=EDGE_CURVE('',#154,#136,#83,.T.);
#188=EDGE_CURVE('',#151,#155,#84,.T.);
#189=EDGE_CURVE('',#156,#155,#85,.T.);
#190=EDGE_CURVE('',#145,#156,#86,.T.);
#191=EDGE_CURVE('',#157,#156,#87,.T.);
#192=EDGE_CURVE('',#146,#157,#88,.T.);
#193=EDGE_CURVE('',#158,#157,#89,.T.);
#194=EDGE_CURVE('',#147,#158,#90,.T.);
#195=EDGE_CURVE('',#159,#158,#91,.T.);
#196=EDGE_CURVE('',#139,#159,#92,.T.);
#197=EDGE_CURVE('',#160,#159,#93,.T.);
#198=EDGE_CURVE('',#154,#160,#94,.T.);
#199=EDGE_CURVE('',#155,#160,#95,.T.);
#200=ORIENTED_EDGE('',*,*,#161,.T.);
#201=ORIENTED_EDGE('',*,*,#162,.T.);
#202=ORIENTED_EDGE('',*,*,#163,.F.);
#203=ORIENTED_EDGE('',*,*,#164,.F.);
#204=ORIENTED_EDGE('',*,*,#165,.T.);
#205=ORIENTED_EDGE('',*,*,#164,.T.);
#206=ORIENTED_EDGE('',*,*,#166,.F.);
#207=ORIENTED_EDGE('',*,*,#167,.F.);
#208=ORIENTED_EDGE('',*,*,#168,.T.);
#209=ORIENTED_EDGE('',*,*,#169,.F.);
#210=ORIENTED_EDGE('',*,*,#170,.F.);
#211=ORIENTED_EDGE('',*,*,#171,.T.);
#212=ORIENTED_EDGE('',*,*,#166,.T.);
#213=ORIENTED_EDGE('',*,*,#163,.T.);
#214=ORIENTED_EDGE('',*,*,#170,.T.);
#215=ORIENTED_EDGE('',*,*,#172,.T.);
#216=ORIENTED_EDGE('',*,*,#173,.F.);
#217=ORIENTED_EDGE('',*,*,#174,.F.);
#218=ORIENTED_EDGE('',*,*,#175,.F.);
#219=ORIENTED_EDGE('',*,*,#176,.F.);
#220=ORIENTED_EDGE('',*,*,#169,.T.);
#221=ORIENTED_EDGE('',*,*,#177,.T.);
#222=ORIENTED_EDGE('',*,*,#178,.T.);
#223=ORIENTED_EDGE('',*,*,#179,.T.);
#224=ORIENTED_EDGE('',*,*,#180,.T.);
#225=ORIENTED_EDGE('',*,*,#172,.F.);
#226=ORIENTED_EDGE('',*,*,#181,.F.);
#227=ORIENTED_EDGE('',*,*,#182,.T.);
#228=ORIENTED_EDGE('',*,*,#179,.F.);
#229=ORIENTED_EDGE('',*,*,#183,.F.);
#230=ORIENTED_EDGE('',*,*,#184,.F.);
#231=ORIENTED_EDGE('',*,*,#183,.T.);
#232=ORIENTED_EDGE('',*,*,#178,.F.);
#233=ORIENTED_EDGE('',*,*,#185,.F.);
#234=ORIENTED_EDGE('',*,*,#186,.F.);
#235=ORIENTED_EDGE('',*,*,#185,.T.);
#236=ORIENTED_EDGE('',*,*,#177,.F.);
#237=ORIENTED_EDGE('',*,*,#168,.F.);
#238=ORIENTED_EDGE('',*,*,#162,.F.);
#239=ORIENTED_EDGE('',*,*,#187,.F.);
#240=ORIENTED_EDGE('',*,*,#173,.T.);
#241=ORIENTED_EDGE('',*,*,#180,.F.);
#242=ORIENTED_EDGE('',*,*,#182,.F.);
#243=ORIENTED_EDGE('',*,*,#188,.T.);
#244=ORIENTED_EDGE('',*,*,#189,.F.);
#245=ORIENTED_EDGE('',*,*,#190,.F.);
#246=ORIENTED_EDGE('',*,*,#174,.T.);
#247=ORIENTED_EDGE('',*,*,#190,.T.);
#248=ORIENTED_EDGE('',*,*,#191,.F.);
#249=ORIENTED_EDGE('',*,*,#192,.F.);
#250=ORIENTED_EDGE('',*,*,#175,.T.);
#251=ORIENTED_EDGE('',*,*,#192,.T.);
#252=ORIENTED_EDGE('',*,*,#193,.F.);
#253=ORIENTED_EDGE('',*,*,#194,.F.);
#254=ORIENTED_EDGE('',*,*,#176,.T.);
#255=ORIENTED_EDGE('',*,*,#194,.T.);
#256=ORIENTED_EDGE('',*,*,#195,.F.);
#257=ORIENTED_EDGE('',*,*,#196,.F.);
#258=ORIENTED_EDGE('',*,*,#167,.T.);
#259=ORIENTED_EDGE('',*,*,#171,.F.);
#260=ORIENTED_EDGE('',*,*,#196,.T.);
#261=ORIENTED_EDGE('',*,*,#197,.F.);
#262=ORIENTED_EDGE('',*,*,#198,.F.);
#263=ORIENTED_EDGE('',*,*,#187,.T.);
#264=ORIENTED_EDGE('',*,*,#161,.F.);
#265=ORIENTED_EDGE('',*,*,#165,.F.);
#266=ORIENTED_EDGE('',*,*,#198,.T.);
#267=ORIENTED_EDGE('',*,*,#199,.F.);
#268=ORIENTED_EDGE('',*,*,#188,.F.);
#269=ORIENTED_EDGE('',*,*,#181,.T.);
#270=ORIENTED_EDGE('',*,*,#184,.T.);
#271=ORIENTED_EDGE('',*,*,#186,.T.);
#272=ORIENTED_EDGE('',*,*,#199,.T.);
#273=ORIENTED_EDGE('',*,*,#197,.T.);
#274=ORIENTED_EDGE('',*,*,#195,.T.);
#275=ORIENTED_EDGE('',*,*,#193,.T.);
#276=ORIENTED_EDGE('',*,*,#191,.T.);
#277=ORIENTED_EDGE('',*,*,#189,.T.);
#278=PLANE('',#335);
#279=PLANE('',#336);
#280=PLANE('',#337);
#281=PLANE('',#338);
#282=PLANE('',#339);
#283=PLANE('',#340);
#284=PLANE('',#341);
#285=PLANE('',#342);
#286=PLANE('',#343);
#287=PLANE('',#344);
#288=PLANE('',#345);
#289=PLANE('',#346);
#290=PLANE('',#347);
#291=PLANE('',#348);
#292=PLANE('',#349);
#293=ADVANCED_FACE('',(#27),#278,.T.);
#294=ADVANCED_FACE('',(#28),#279,.T.);
#295=ADVANCED_FACE('',(#29),#280,.T.);
#296=ADVANCED_FACE('',(#30),#281,.F.);
#297=ADVANCED_FACE('',(#31),#282,.T.);
#298=ADVANCED_FACE('',(#32),#283,.T.);
#299=ADVANCED_FACE('',(#33),#284,.T.);
#300=ADVANCED_FACE('',(#34),#285,.T.);
#301=ADVANCED_FACE('',(#35),#286,.T.);
#302=ADVANCED_FACE('',(#36),#287,.T.);
#303=ADVANCED_FACE('',(#37),#288,.T.);
#304=ADVANCED_FACE('',(#38),#289,.T.);
#305=ADVANCED_FACE('',(#39),#290,.T.);
#306=ADVANCED_FACE('',(#40),#291,.T.);
#307=ADVANCED_FACE('',(#41),#292,.T.);
#308=CLOSED_SHELL('',(#293,#294,#295,#296,#297,#298,#299,#300,#301,#302,
#303,#304,#305,#306,#307));
#309=DERIVED_UNIT_ELEMENT(#313,1.);
#310=DERIVED_UNIT_ELEMENT(#535,-3.);
#311=DERIVED_UNIT_ELEMENT(#313,1.);
#312=DERIVED_UNIT_ELEMENT(#535,-3.);
#313=(
MASS_UNIT()
NAMED_UNIT(*)
SI_UNIT(.KILO.,.GRAM.)
);
#314=DERIVED_UNIT((#309,#310));
#315=DERIVED_UNIT((#311,#312));
#316=MEASURE_REPRESENTATION_ITEM('density measure',
POSITIVE_RATIO_MEASURE(7850.),#314);
#317=MEASURE_REPRESENTATION_ITEM('density measure',
POSITIVE_RATIO_MEASURE(7850.),#315);
#318=PROPERTY_DEFINITION_REPRESENTATION(#328,#322);
#319=PROPERTY_DEFINITION_REPRESENTATION(#329,#323);
#320=PROPERTY_DEFINITION_REPRESENTATION(#330,#324);
#321=PROPERTY_DEFINITION_REPRESENTATION(#331,#325);
#322=REPRESENTATION('material name',(#326),#531);
#323=REPRESENTATION('density',(#316),#531);
#324=REPRESENTATION('material name',(#327),#532);
#325=REPRESENTATION('density',(#317),#532);
#326=DESCRIPTIVE_REPRESENTATION_ITEM('Steel','Steel');
#327=DESCRIPTIVE_REPRESENTATION_ITEM('Steel','Steel');
#328=PROPERTY_DEFINITION('material property','material name',#556);
#329=PROPERTY_DEFINITION('material property','density of part',#556);
#330=PROPERTY_DEFINITION('material property','material name',#557);
#331=PROPERTY_DEFINITION('material property','density of part',#557);
#332=AXIS2_PLACEMENT_3D('',#437,#354,#355);
#333=AXIS2_PLACEMENT_3D('',#438,#356,#357);
#334=AXIS2_PLACEMENT_3D('',#439,#358,#359);
#335=AXIS2_PLACEMENT_3D('',#440,#360,#361);
#336=AXIS2_PLACEMENT_3D('',#449,#366,#367);
#337=AXIS2_PLACEMENT_3D('',#455,#371,#372);
#338=AXIS2_PLACEMENT_3D('',#463,#377,#378);
#339=AXIS2_PLACEMENT_3D('',#473,#384,#385);
#340=AXIS2_PLACEMENT_3D('',#481,#390,#391);
#341=AXIS2_PLACEMENT_3D('',#487,#395,#396);
#342=AXIS2_PLACEMENT_3D('',#491,#399,#400);
#343=AXIS2_PLACEMENT_3D('',#495,#403,#404);
#344=AXIS2_PLACEMENT_3D('',#501,#408,#409);
#345=AXIS2_PLACEMENT_3D('',#505,#412,#413);
#346=AXIS2_PLACEMENT_3D('',#509,#416,#417);
#347=AXIS2_PLACEMENT_3D('',#513,#420,#421);
#348=AXIS2_PLACEMENT_3D('',#517,#424,#425);
#349=AXIS2_PLACEMENT_3D('',#519,#427,#428);
#350=AXIS2_PLACEMENT_3D('',#520,#429,#430);
#351=AXIS2_PLACEMENT_3D('',#521,#431,#432);
#352=AXIS2_PLACEMENT_3D('',#522,#433,#434);
#353=AXIS2_PLACEMENT_3D('',#523,#435,#436);
#354=DIRECTION('axis',(0.,0.,1.));
#355=DIRECTION('refdir',(1.,0.,0.));
#356=DIRECTION('axis',(0.,0.,1.));
#357=DIRECTION('refdir',(1.,0.,0.));
#358=DIRECTION('axis',(0.,0.,1.));
#359=DIRECTION('refdir',(1.,0.,0.));
#360=DIRECTION('center_axis',(1.83697019872103E-16,1.,0.));
#361=DIRECTION('ref_axis',(0.,0.,-1.));
#362=DIRECTION('',(0.,0.,-1.));
#363=DIRECTION('',(-1.,1.83697019872103E-16,0.));
#364=DIRECTION('',(0.,0.,-1.));
#365=DIRECTION('',(-1.,1.83697019872103E-16,0.));
#366=DIRECTION('center_axis',(0.,0.,-1.));
#367=DIRECTION('ref_axis',(-1.83697019872103E-16,-1.,0.));
#368=DIRECTION('',(-1.83697019872103E-16,-1.,0.));
#369=DIRECTION('',(-1.83697019872103E-16,-1.,0.));
#370=DIRECTION('',(-1.,1.83697019872103E-16,0.));
#371=DIRECTION('center_axis',(-1.,1.83697019872103E-16,0.));
#372=DIRECTION('ref_axis',(0.,0.,-1.));
#373=DIRECTION('',(-1.83697019872103E-16,-1.,0.));
#374=DIRECTION('',(0.,0.,-1.));
#375=DIRECTION('',(-1.83697019872103E-16,-1.,0.));
#376=DIRECTION('',(0.,0.,-1.));
#377=DIRECTION('center_axis',(0.,0.,1.));
#378=DIRECTION('ref_axis',(1.83697019872103E-16,1.,0.));
#379=DIRECTION('',(-1.,1.83697019872103E-16,0.));
#380=DIRECTION('',(-1.83697019872103E-16,-1.,0.));
#381=DIRECTION('',(-1.,1.83697019872103E-16,0.));
#382=DIRECTION('',(-1.83697019872103E-16,-1.,0.));
#383=DIRECTION('',(-1.,1.83697019872103E-16,0.));
#384=DIRECTION('center_axis',(1.83697019872103E-16,1.,0.));
#385=DIRECTION('ref_axis',(0.,0.,1.));
#386=DIRECTION('',(-1.,1.83697019872103E-16,0.));
#387=DIRECTION('',(0.,0.,1.));
#388=DIRECTION('',(-1.,1.83697019872103E-16,0.));
#389=DIRECTION('',(0.,0.,1.));
#390=DIRECTION('center_axis',(0.,0.,-1.));
#391=DIRECTION('ref_axis',(-1.,1.83697019872103E-16,0.));
#392=DIRECTION('',(1.,-1.83697019872103E-16,0.));
#393=DIRECTION('',(1.83697019872103E-16,1.,0.));
#394=DIRECTION('',(1.83697019872103E-16,1.,0.));
#395=DIRECTION('center_axis',(-1.,1.83697019872103E-16,0.));
#396=DIRECTION('ref_axis',(0.,0.,1.));
#397=DIRECTION('',(0.,0.,-1.));
#398=DIRECTION('',(1.83697019872103E-16,1.,0.));
#399=DIRECTION('center_axis',(0.,0.,-1.));
#400=DIRECTION('ref_axis',(-1.,1.83697019872103E-16,0.));
#401=DIRECTION('',(1.,-1.83697019872103E-16,0.));
#402=DIRECTION('',(1.83697019872103E-16,1.,0.));
#403=DIRECTION('center_axis',(-1.,1.83697019872103E-16,0.));
#404=DIRECTION('ref_axis',(-1.83697019872103E-16,-1.,0.));
#405=DIRECTION('',(0.,0.,1.));
#406=DIRECTION('',(-1.83697019872103E-16,-1.,0.));
#407=DIRECTION('',(0.,0.,1.));
#408=DIRECTION('center_axis',(1.83697019872103E-16,1.,0.));
#409=DIRECTION('ref_axis',(-1.,1.83697019872103E-16,0.));
#410=DIRECTION('',(-1.,1.83697019872103E-16,0.));
#411=DIRECTION('',(0.,0.,1.));
#412=DIRECTION('center_axis',(-1.,1.83697019872103E-16,0.));
#413=DIRECTION('ref_axis',(-1.83697019872103E-16,-1.,0.));
#414=DIRECTION('',(-1.83697019872103E-16,-1.,0.));
#415=DIRECTION('',(0.,0.,1.));
#416=DIRECTION('center_axis',(1.83697019872103E-16,1.,0.));
#417=DIRECTION('ref_axis',(-1.,1.83697019872103E-16,0.));
#418=DIRECTION('',(-1.,1.83697019872103E-16,0.));
#419=DIRECTION('',(0.,0.,1.));
#420=DIRECTION('center_axis',(1.,-1.83697019872103E-16,0.));
#421=DIRECTION('ref_axis',(1.83697019872103E-16,1.,0.));
#422=DIRECTION('',(1.83697019872103E-16,1.,0.));
#423=DIRECTION('',(0.,0.,1.));
#424=DIRECTION('center_axis',(-1.83697019872103E-16,-1.,0.));
#425=DIRECTION('ref_axis',(1.,-1.83697019872103E-16,0.));
#426=DIRECTION('',(1.,-1.83697019872103E-16,0.));
#427=DIRECTION('center_axis',(0.,0.,1.));
#428=DIRECTION('ref_axis',(-1.83697019872103E-16,-1.,0.));
#429=DIRECTION('',(0.,0.,1.));
#430=DIRECTION('',(1.,0.,0.));
#431=DIRECTION('axis',(0.,0.,1.));
#432=DIRECTION('refdir',(1.,0.,0.));
#433=DIRECTION('',(0.,0.,1.));
#434=DIRECTION('',(1.,0.,0.));
#435=DIRECTION('',(0.,0.,1.));
#436=DIRECTION('',(1.,0.,0.));
#437=CARTESIAN_POINT('',(0.,0.,0.));
#438=CARTESIAN_POINT('',(0.,0.,0.));
#439=CARTESIAN_POINT('',(0.,0.,0.));
#440=CARTESIAN_POINT('Origin',(34.,-24.,28.));
#441=CARTESIAN_POINT('',(34.,-24.,28.));
#442=CARTESIAN_POINT('',(34.,-24.,24.));
#443=CARTESIAN_POINT('',(34.,-24.,28.));
#444=CARTESIAN_POINT('',(32.,-24.,24.));
#445=CARTESIAN_POINT('',(34.,-24.,24.));
#446=CARTESIAN_POINT('',(32.,-24.,28.));
#447=CARTESIAN_POINT('',(32.,-24.,28.));
#448=CARTESIAN_POINT('',(34.,-24.,28.));
#449=CARTESIAN_POINT('Origin',(34.,-20.,28.));
#450=CARTESIAN_POINT('',(34.,-20.,28.));
#451=CARTESIAN_POINT('',(34.,-20.,28.));
#452=CARTESIAN_POINT('',(32.,-20.,28.));
#453=CARTESIAN_POINT('',(32.,-20.,28.));
#454=CARTESIAN_POINT('',(34.,-20.,28.));
#455=CARTESIAN_POINT('Origin',(32.,-26.,28.));
#456=CARTESIAN_POINT('',(32.,-32.,24.));
#457=CARTESIAN_POINT('',(32.,-24.,24.));
#458=CARTESIAN_POINT('',(32.,-32.,32.));
#459=CARTESIAN_POINT('',(32.,-32.,28.));
#460=CARTESIAN_POINT('',(32.,-20.,32.));
#461=CARTESIAN_POINT('',(32.,-26.5,32.));
#462=CARTESIAN_POINT('',(32.,-20.,32.));
#463=CARTESIAN_POINT('Origin',(27.,-27.,32.));
#464=CARTESIAN_POINT('',(20.,-32.,32.));
#465=CARTESIAN_POINT('',(27.,-32.,32.));
#466=CARTESIAN_POINT('',(20.,-28.,32.));
#467=CARTESIAN_POINT('',(20.,-28.,32.));
#468=CARTESIAN_POINT('',(28.,-28.,32.));
#469=CARTESIAN_POINT('',(32.,-28.,32.));
#470=CARTESIAN_POINT('',(28.,-20.,32.));
#471=CARTESIAN_POINT('',(28.,-20.,32.));
#472=CARTESIAN_POINT('',(34.,-20.,32.));
#473=CARTESIAN_POINT('Origin',(27.,-32.,28.));
#474=CARTESIAN_POINT('',(24.,-32.,24.));
#475=CARTESIAN_POINT('',(24.,-32.,24.));
#476=CARTESIAN_POINT('',(24.,-32.,28.));
#477=CARTESIAN_POINT('',(24.,-32.,28.));
#478=CARTESIAN_POINT('',(20.,-32.,28.));
#479=CARTESIAN_POINT('',(20.,-32.,28.));
#480=CARTESIAN_POINT('',(20.,-32.,32.));
#481=CARTESIAN_POINT('Origin',(24.,-34.,28.));
#482=CARTESIAN_POINT('',(20.,-34.,28.));
#483=CARTESIAN_POINT('',(24.,-34.,28.));
#484=CARTESIAN_POINT('',(20.,-34.,28.));
#485=CARTESIAN_POINT('',(20.,-34.,28.));
#486=CARTESIAN_POINT('',(24.,-34.,28.));
#487=CARTESIAN_POINT('Origin',(24.,-34.,24.));
#488=CARTESIAN_POINT('',(24.,-34.,24.));
#489=CARTESIAN_POINT('',(24.,-34.,28.));
#490=CARTESIAN_POINT('',(24.,-34.,24.));
#491=CARTESIAN_POINT('Origin',(34.,-34.,24.));
#492=CARTESIAN_POINT('',(34.,-34.,24.));
#493=CARTESIAN_POINT('',(24.,-34.,24.));
#494=CARTESIAN_POINT('',(34.,-34.,24.));
#495=CARTESIAN_POINT('Origin',(20.,-28.,32.));
#496=CARTESIAN_POINT('',(20.,-34.,34.));
#497=CARTESIAN_POINT('',(20.,-34.,32.));
#498=CARTESIAN_POINT('',(20.,-28.,34.));
#499=CARTESIAN_POINT('',(20.,-28.,34.));
#500=CARTESIAN_POINT('',(20.,-28.,32.));
#501=CARTESIAN_POINT('Origin',(28.,-28.,32.));
#502=CARTESIAN_POINT('',(28.,-28.,34.));
#503=CARTESIAN_POINT('',(32.,-28.,34.));
#504=CARTESIAN_POINT('',(28.,-28.,32.));
#505=CARTESIAN_POINT('Origin',(28.,-20.,32.));
#506=CARTESIAN_POINT('',(28.,-20.,34.));
#507=CARTESIAN_POINT('',(28.,-20.,34.));
#508=CARTESIAN_POINT('',(28.,-20.,32.));
#509=CARTESIAN_POINT('Origin',(34.,-20.,32.));
#510=CARTESIAN_POINT('',(34.,-20.,34.));
#511=CARTESIAN_POINT('',(34.,-20.,34.));
#512=CARTESIAN_POINT('',(34.,-20.,32.));
#513=CARTESIAN_POINT('Origin',(34.,-34.,32.));
#514=CARTESIAN_POINT('',(34.,-34.,34.));
#515=CARTESIAN_POINT('',(34.,-34.,34.));
#516=CARTESIAN_POINT('',(34.,-34.,32.));
#517=CARTESIAN_POINT('Origin',(20.,-34.,32.));
#518=CARTESIAN_POINT('',(32.,-34.,34.));
#519=CARTESIAN_POINT('Origin',(27.,-27.,34.));
#520=CARTESIAN_POINT('',(0.,0.,0.));
#521=CARTESIAN_POINT('',(0.,0.,0.));
#522=CARTESIAN_POINT('',(0.,0.,0.));
#523=CARTESIAN_POINT('',(0.,0.,0.));
#524=UNCERTAINTY_MEASURE_WITH_UNIT(LENGTH_MEASURE(0.01),#534,
'DISTANCE_ACCURACY_VALUE',
'Maximum model space distance between geometric entities at asserted c
onnectivities');
#525=UNCERTAINTY_MEASURE_WITH_UNIT(LENGTH_MEASURE(0.01),#534,
'DISTANCE_ACCURACY_VALUE',
'Maximum model space distance between geometric entities at asserted c
onnectivities');
#526=UNCERTAINTY_MEASURE_WITH_UNIT(LENGTH_MEASURE(0.01),#534,
'DISTANCE_ACCURACY_VALUE',
'Maximum model space distance between geometric entities at asserted c
onnectivities');
#527=UNCERTAINTY_MEASURE_WITH_UNIT(LENGTH_MEASURE(0.01),#534,
'DISTANCE_ACCURACY_VALUE',
'Maximum model space distance between geometric entities at asserted c
onnectivities');
#528=UNCERTAINTY_MEASURE_WITH_UNIT(LENGTH_MEASURE(0.01),#534,
'DISTANCE_ACCURACY_VALUE',
'Maximum model space distance between geometric entities at asserted c
onnectivities');
#529=(
GEOMETRIC_REPRESENTATION_CONTEXT(3)
GLOBAL_UNCERTAINTY_ASSIGNED_CONTEXT((#524))
GLOBAL_UNIT_ASSIGNED_CONTEXT((#534,#536,#537))
REPRESENTATION_CONTEXT('','3D')
);
#530=(
GEOMETRIC_REPRESENTATION_CONTEXT(3)
GLOBAL_UNCERTAINTY_ASSIGNED_CONTEXT((#525))
GLOBAL_UNIT_ASSIGNED_CONTEXT((#534,#536,#537))
REPRESENTATION_CONTEXT('','3D')
);
#531=(
GEOMETRIC_REPRESENTATION_CONTEXT(3)
GLOBAL_UNCERTAINTY_ASSIGNED_CONTEXT((#526))
GLOBAL_UNIT_ASSIGNED_CONTEXT((#534,#536,#537))
REPRESENTATION_CONTEXT('','3D')
);
#532=(
GEOMETRIC_REPRESENTATION_CONTEXT(3)
GLOBAL_UNCERTAINTY_ASSIGNED_CONTEXT((#527))
GLOBAL_UNIT_ASSIGNED_CONTEXT((#534,#536,#537))
REPRESENTATION_CONTEXT('','3D')
);
#533=(
GEOMETRIC_REPRESENTATION_CONTEXT(3)
GLOBAL_UNCERTAINTY_ASSIGNED_CONTEXT((#528))
GLOBAL_UNIT_ASSIGNED_CONTEXT((#534,#536,#537))
REPRESENTATION_CONTEXT('','3D')
);
#534=(
LENGTH_UNIT()
NAMED_UNIT(*)
SI_UNIT(.MILLI.,.METRE.)
);
#535=(
LENGTH_UNIT()
NAMED_UNIT(*)
SI_UNIT($,.METRE.)
);
#536=(
NAMED_UNIT(*)
PLANE_ANGLE_UNIT()
SI_UNIT($,.RADIAN.)
);
#537=(
NAMED_UNIT(*)
SI_UNIT($,.STERADIAN.)
SOLID_ANGLE_UNIT()
);
#538=SHAPE_DEFINITION_REPRESENTATION(#542,#549);
#539=SHAPE_DEFINITION_REPRESENTATION(#543,#550);
#540=SHAPE_DEFINITION_REPRESENTATION(#544,#551);
#541=SHAPE_DEFINITION_REPRESENTATION(#546,#552);
#542=PRODUCT_DEFINITION_SHAPE('',$,#554);
#543=PRODUCT_DEFINITION_SHAPE('',$,#555);
#544=PRODUCT_DEFINITION_SHAPE('',$,#556);
#545=PRODUCT_DEFINITION_SHAPE($,$,#20);
#546=PRODUCT_DEFINITION_SHAPE('',$,#557);
#547=PRODUCT_DEFINITION_SHAPE($,$,#21);
#548=PRODUCT_DEFINITION_SHAPE($,$,#22);
#549=SHAPE_REPRESENTATION('',(#332,#352,#353),#529);
#550=SHAPE_REPRESENTATION('',(#333,#350),#530);
#551=SHAPE_REPRESENTATION('',(#334),#531);
#552=SHAPE_REPRESENTATION('',(#351),#532);
#553=PRODUCT_DEFINITION_CONTEXT('part definition',#567,'design');
#554=PRODUCT_DEFINITION('sculk shrieker','sculk shrieker v16',#558,#553);
#555=PRODUCT_DEFINITION('decor','decor',#559,#553);
#556=PRODUCT_DEFINITION('Component17','Component17',#560,#553);
#557=PRODUCT_DEFINITION('body','body',#561,#553);
#558=PRODUCT_DEFINITION_FORMATION('',$,#569);
#559=PRODUCT_DEFINITION_FORMATION('',$,#570);
#560=PRODUCT_DEFINITION_FORMATION('',$,#571);
#561=PRODUCT_DEFINITION_FORMATION('',$,#572);
#562=PRODUCT_RELATED_PRODUCT_CATEGORY('sculk shrieker v16',
'sculk shrieker v16',(#569));
#563=PRODUCT_RELATED_PRODUCT_CATEGORY('decor','decor',(#570));
#564=PRODUCT_RELATED_PRODUCT_CATEGORY('Component17','Component17',(#571));
#565=PRODUCT_RELATED_PRODUCT_CATEGORY('body','body',(#572));
#566=APPLICATION_PROTOCOL_DEFINITION('international standard',
'automotive_design',2009,#567);
#567=APPLICATION_CONTEXT(
'Core Data for Automotive Mechanical Design Process');
#568=PRODUCT_CONTEXT('part definition',#567,'mechanical');
#569=PRODUCT('sculk shrieker','sculk shrieker v16',$,(#568));
#570=PRODUCT('decor','decor',$,(#568));
#571=PRODUCT('Component17','Component17',$,(#568));
#572=PRODUCT('body','body',$,(#568));
#573=PRESENTATION_STYLE_ASSIGNMENT((#577));
#574=PRESENTATION_STYLE_ASSIGNMENT((#578));
#575=PRESENTATION_STYLE_ASSIGNMENT((#579));
#576=PRESENTATION_STYLE_ASSIGNMENT((#580));
#577=SURFACE_STYLE_USAGE(.BOTH.,#581);
#578=SURFACE_STYLE_USAGE(.BOTH.,#582);
#579=SURFACE_STYLE_USAGE(.BOTH.,#583);
#580=SURFACE_STYLE_USAGE(.BOTH.,#584);
#581=SURFACE_SIDE_STYLE('',(#585));
#582=SURFACE_SIDE_STYLE('',(#586));
#583=SURFACE_SIDE_STYLE('',(#587));
#584=SURFACE_SIDE_STYLE('',(#588));
#585=SURFACE_STYLE_FILL_AREA(#589);
#586=SURFACE_STYLE_FILL_AREA(#590);
#587=SURFACE_STYLE_FILL_AREA(#591);
#588=SURFACE_STYLE_FILL_AREA(#592);
#589=FILL_AREA_STYLE('Steel - Satin',(#593));
#590=FILL_AREA_STYLE('bone dark',(#594));
#591=FILL_AREA_STYLE('sculk',(#595));
#592=FILL_AREA_STYLE('lighter sculk',(#596));
#593=FILL_AREA_STYLE_COLOUR('Steel - Satin',#597);
#594=FILL_AREA_STYLE_COLOUR('bone dark',#598);
#595=FILL_AREA_STYLE_COLOUR('sculk',#599);
#596=FILL_AREA_STYLE_COLOUR('lighter sculk',#600);
#597=COLOUR_RGB('Steel - Satin',0.627450980392157,0.627450980392157,0.627450980392157);
#598=COLOUR_RGB('bone dark',0.733333333333333,0.76078431372549,0.603921568627451);
#599=COLOUR_RGB('sculk',0.0235294117647059,0.184313725490196,0.211764705882353);
#600=COLOUR_RGB('lighter sculk',0.0588235294117647,0.309803921568627,0.337254901960784);
ENDSEC;
END-ISO-10303-21;
