ISO-10303-21;
HEADER;
/* Generated by software containing ST-Developer
 * from STEP Tools, Inc. (www.steptools.com) 
 */

FILE_DESCRIPTION(
/* description */ (''),
/* implementation_level */ '2;1');

FILE_NAME(
/* name */ 'sculk shrieker trim middle but short.step',
/* time_stamp */ '2025-07-07T22:49:43-04:00',
/* author */ (''),
/* organization */ (''),
/* preprocessor_version */ 'ST-DEVELOPER v20.1',
/* originating_system */ 'Autodesk Translation Framework v14.10.0.0',
/* authorisation */ '');

FILE_SCHEMA (('AUTOMOTIVE_DESIGN { 1 0 10303 214 3 1 1 }'));
ENDSEC;

DATA;
#10=MECHANICAL_DESIGN_GEOMETRIC_PRESENTATION_REPRESENTATION('',(#25),#632);
#11=ITEM_DEFINED_TRANSFORMATION($,$,#397,#416);
#12=ITEM_DEFINED_TRANSFORMATION($,$,#396,#418);
#13=ITEM_DEFINED_TRANSFORMATION($,$,#417,#419);
#14=(
REPRESENTATION_RELATIONSHIP($,$,#650,#649)
REPRESENTATION_RELATIONSHIP_WITH_TRANSFORMATION(#11)
SHAPE_REPRESENTATION_RELATIONSHIP()
);
#15=(
REPRESENTATION_RELATIONSHIP($,$,#649,#648)
REPRESENTATION_RELATIONSHIP_WITH_TRANSFORMATION(#12)
SHAPE_REPRESENTATION_RELATIONSHIP()
);
#16=(
REPRESENTATION_RELATIONSHIP($,$,#651,#648)
REPRESENTATION_RELATIONSHIP_WITH_TRANSFORMATION(#13)
SHAPE_REPRESENTATION_RELATIONSHIP()
);
#17=CONTEXT_DEPENDENT_SHAPE_REPRESENTATION(#14,#644);
#18=CONTEXT_DEPENDENT_SHAPE_REPRESENTATION(#15,#646);
#19=CONTEXT_DEPENDENT_SHAPE_REPRESENTATION(#16,#647);
#20=NEXT_ASSEMBLY_USAGE_OCCURRENCE('Component13:1','Component13:1',
'Component13:1',#654,#655,'Component13:1');
#21=NEXT_ASSEMBLY_USAGE_OCCURRENCE('decor:1','decor:1','decor:1',#653,#654,
'decor:1');
#22=NEXT_ASSEMBLY_USAGE_OCCURRENCE('body:1','body:1','body:1',#653,#656,
'body:1');
#23=SHAPE_REPRESENTATION_RELATIONSHIP('SRR','None',#650,#24);
#24=ADVANCED_BREP_SHAPE_REPRESENTATION('',(#26),#630);
#25=STYLED_ITEM('',(#673),#26);
#26=MANIFOLD_SOLID_BREP('Body1',#371);
#27=FACE_OUTER_BOUND('',#45,.T.);
#28=FACE_OUTER_BOUND('',#46,.T.);
#29=FACE_OUTER_BOUND('',#47,.T.);
#30=FACE_OUTER_BOUND('',#48,.T.);
#31=FACE_OUTER_BOUND('',#49,.T.);
#32=FACE_OUTER_BOUND('',#50,.T.);
#33=FACE_OUTER_BOUND('',#51,.T.);
#34=FACE_OUTER_BOUND('',#52,.T.);
#35=FACE_OUTER_BOUND('',#53,.T.);
#36=FACE_OUTER_BOUND('',#54,.T.);
#37=FACE_OUTER_BOUND('',#55,.T.);
#38=FACE_OUTER_BOUND('',#56,.T.);
#39=FACE_OUTER_BOUND('',#57,.T.);
#40=FACE_OUTER_BOUND('',#58,.T.);
#41=FACE_OUTER_BOUND('',#59,.T.);
#42=FACE_OUTER_BOUND('',#60,.T.);
#43=FACE_OUTER_BOUND('',#61,.T.);
#44=FACE_OUTER_BOUND('',#62,.T.);
#45=EDGE_LOOP('',(#239,#240,#241,#242));
#46=EDGE_LOOP('',(#243,#244,#245,#246));
#47=EDGE_LOOP('',(#247,#248,#249,#250));
#48=EDGE_LOOP('',(#251,#252,#253,#254));
#49=EDGE_LOOP('',(#255,#256,#257,#258));
#50=EDGE_LOOP('',(#259,#260,#261,#262));
#51=EDGE_LOOP('',(#263,#264,#265,#266));
#52=EDGE_LOOP('',(#267,#268,#269,#270));
#53=EDGE_LOOP('',(#271,#272,#273,#274));
#54=EDGE_LOOP('',(#275,#276,#277,#278));
#55=EDGE_LOOP('',(#279,#280,#281,#282,#283,#284));
#56=EDGE_LOOP('',(#285,#286,#287,#288,#289,#290,#291,#292));
#57=EDGE_LOOP('',(#293,#294,#295,#296,#297,#298));
#58=EDGE_LOOP('',(#299,#300,#301,#302,#303,#304));
#59=EDGE_LOOP('',(#305,#306,#307,#308));
#60=EDGE_LOOP('',(#309,#310,#311,#312,#313,#314));
#61=EDGE_LOOP('',(#315,#316,#317,#318,#319,#320,#321,#322));
#62=EDGE_LOOP('',(#323,#324,#325,#326,#327,#328,#329,#330,#331,#332,#333,
#334));
#63=LINE('',#524,#111);
#64=LINE('',#526,#112);
#65=LINE('',#528,#113);
#66=LINE('',#529,#114);
#67=LINE('',#532,#115);
#68=LINE('',#534,#116);
#69=LINE('',#535,#117);
#70=LINE('',#538,#118);
#71=LINE('',#539,#119);
#72=LINE('',#543,#120);
#73=LINE('',#545,#121);
#74=LINE('',#547,#122);
#75=LINE('',#548,#123);
#76=LINE('',#551,#124);
#77=LINE('',#553,#125);
#78=LINE('',#554,#126);
#79=LINE('',#557,#127);
#80=LINE('',#559,#128);
#81=LINE('',#560,#129);
#82=LINE('',#564,#130);
#83=LINE('',#566,#131);
#84=LINE('',#568,#132);
#85=LINE('',#569,#133);
#86=LINE('',#572,#134);
#87=LINE('',#574,#135);
#88=LINE('',#575,#136);
#89=LINE('',#578,#137);
#90=LINE('',#580,#138);
#91=LINE('',#581,#139);
#92=LINE('',#584,#140);
#93=LINE('',#585,#141);
#94=LINE('',#588,#142);
#95=LINE('',#590,#143);
#96=LINE('',#591,#144);
#97=LINE('',#593,#145);
#98=LINE('',#595,#146);
#99=LINE('',#597,#147);
#100=LINE('',#598,#148);
#101=LINE('',#600,#149);
#102=LINE('',#601,#150);
#103=LINE('',#604,#151);
#104=LINE('',#606,#152);
#105=LINE('',#607,#153);
#106=LINE('',#610,#154);
#107=LINE('',#612,#155);
#108=LINE('',#613,#156);
#109=LINE('',#615,#157);
#110=LINE('',#616,#158);
#111=VECTOR('',#428,10.);
#112=VECTOR('',#429,10.);
#113=VECTOR('',#430,10.);
#114=VECTOR('',#431,10.);
#115=VECTOR('',#434,10.);
#116=VECTOR('',#435,10.);
#117=VECTOR('',#436,10.);
#118=VECTOR('',#439,10.);
#119=VECTOR('',#440,10.);
#120=VECTOR('',#443,10.);
#121=VECTOR('',#444,10.);
#122=VECTOR('',#445,10.);
#123=VECTOR('',#446,10.);
#124=VECTOR('',#449,10.);
#125=VECTOR('',#450,10.);
#126=VECTOR('',#451,10.);
#127=VECTOR('',#454,10.);
#128=VECTOR('',#455,10.);
#129=VECTOR('',#456,10.);
#130=VECTOR('',#459,10.);
#131=VECTOR('',#460,10.);
#132=VECTOR('',#461,10.);
#133=VECTOR('',#462,10.);
#134=VECTOR('',#465,10.);
#135=VECTOR('',#466,10.);
#136=VECTOR('',#467,10.);
#137=VECTOR('',#470,10.);
#138=VECTOR('',#471,10.);
#139=VECTOR('',#472,10.);
#140=VECTOR('',#475,10.);
#141=VECTOR('',#476,10.);
#142=VECTOR('',#479,10.);
#143=VECTOR('',#480,10.);
#144=VECTOR('',#481,10.);
#145=VECTOR('',#484,10.);
#146=VECTOR('',#485,10.);
#147=VECTOR('',#486,10.);
#148=VECTOR('',#487,10.);
#149=VECTOR('',#490,10.);
#150=VECTOR('',#491,10.);
#151=VECTOR('',#494,10.);
#152=VECTOR('',#495,10.);
#153=VECTOR('',#496,10.);
#154=VECTOR('',#499,10.);
#155=VECTOR('',#500,10.);
#156=VECTOR('',#501,10.);
#157=VECTOR('',#504,10.);
#158=VECTOR('',#505,10.);
#159=VERTEX_POINT('',#522);
#160=VERTEX_POINT('',#523);
#161=VERTEX_POINT('',#525);
#162=VERTEX_POINT('',#527);
#163=VERTEX_POINT('',#531);
#164=VERTEX_POINT('',#533);
#165=VERTEX_POINT('',#537);
#166=VERTEX_POINT('',#541);
#167=VERTEX_POINT('',#542);
#168=VERTEX_POINT('',#544);
#169=VERTEX_POINT('',#546);
#170=VERTEX_POINT('',#550);
#171=VERTEX_POINT('',#552);
#172=VERTEX_POINT('',#556);
#173=VERTEX_POINT('',#558);
#174=VERTEX_POINT('',#562);
#175=VERTEX_POINT('',#563);
#176=VERTEX_POINT('',#565);
#177=VERTEX_POINT('',#567);
#178=VERTEX_POINT('',#571);
#179=VERTEX_POINT('',#573);
#180=VERTEX_POINT('',#577);
#181=VERTEX_POINT('',#579);
#182=VERTEX_POINT('',#583);
#183=VERTEX_POINT('',#587);
#184=VERTEX_POINT('',#589);
#185=VERTEX_POINT('',#594);
#186=VERTEX_POINT('',#596);
#187=VERTEX_POINT('',#603);
#188=VERTEX_POINT('',#605);
#189=VERTEX_POINT('',#609);
#190=VERTEX_POINT('',#611);
#191=EDGE_CURVE('',#159,#160,#63,.T.);
#192=EDGE_CURVE('',#161,#159,#64,.T.);
#193=EDGE_CURVE('',#162,#161,#65,.T.);
#194=EDGE_CURVE('',#160,#162,#66,.T.);
#195=EDGE_CURVE('',#163,#160,#67,.T.);
#196=EDGE_CURVE('',#164,#163,#68,.T.);
#197=EDGE_CURVE('',#159,#164,#69,.T.);
#198=EDGE_CURVE('',#162,#165,#70,.T.);
#199=EDGE_CURVE('',#163,#165,#71,.T.);
#200=EDGE_CURVE('',#166,#167,#72,.T.);
#201=EDGE_CURVE('',#166,#168,#73,.T.);
#202=EDGE_CURVE('',#168,#169,#74,.T.);
#203=EDGE_CURVE('',#169,#167,#75,.T.);
#204=EDGE_CURVE('',#168,#170,#76,.T.);
#205=EDGE_CURVE('',#171,#170,#77,.T.);
#206=EDGE_CURVE('',#169,#171,#78,.T.);
#207=EDGE_CURVE('',#172,#171,#79,.T.);
#208=EDGE_CURVE('',#170,#173,#80,.T.);
#209=EDGE_CURVE('',#173,#172,#81,.T.);
#210=EDGE_CURVE('',#174,#175,#82,.T.);
#211=EDGE_CURVE('',#174,#176,#83,.T.);
#212=EDGE_CURVE('',#176,#177,#84,.T.);
#213=EDGE_CURVE('',#177,#175,#85,.T.);
#214=EDGE_CURVE('',#176,#178,#86,.T.);
#215=EDGE_CURVE('',#179,#178,#87,.T.);
#216=EDGE_CURVE('',#177,#179,#88,.T.);
#217=EDGE_CURVE('',#180,#179,#89,.T.);
#218=EDGE_CURVE('',#178,#181,#90,.T.);
#219=EDGE_CURVE('',#181,#180,#91,.T.);
#220=EDGE_CURVE('',#182,#161,#92,.T.);
#221=EDGE_CURVE('',#165,#182,#93,.T.);
#222=EDGE_CURVE('',#167,#183,#94,.T.);
#223=EDGE_CURVE('',#184,#172,#95,.T.);
#224=EDGE_CURVE('',#183,#184,#96,.T.);
#225=EDGE_CURVE('',#183,#182,#97,.T.);
#226=EDGE_CURVE('',#185,#184,#98,.T.);
#227=EDGE_CURVE('',#186,#185,#99,.T.);
#228=EDGE_CURVE('',#164,#186,#100,.T.);
#229=EDGE_CURVE('',#186,#174,#101,.T.);
#230=EDGE_CURVE('',#185,#181,#102,.T.);
#231=EDGE_CURVE('',#187,#175,#103,.T.);
#232=EDGE_CURVE('',#188,#180,#104,.T.);
#233=EDGE_CURVE('',#187,#188,#105,.T.);
#234=EDGE_CURVE('',#189,#187,#106,.T.);
#235=EDGE_CURVE('',#190,#188,#107,.T.);
#236=EDGE_CURVE('',#189,#190,#108,.T.);
#237=EDGE_CURVE('',#166,#189,#109,.T.);
#238=EDGE_CURVE('',#190,#173,#110,.T.);
#239=ORIENTED_EDGE('',*,*,#191,.F.);
#240=ORIENTED_EDGE('',*,*,#192,.F.);
#241=ORIENTED_EDGE('',*,*,#193,.F.);
#242=ORIENTED_EDGE('',*,*,#194,.F.);
#243=ORIENTED_EDGE('',*,*,#191,.T.);
#244=ORIENTED_EDGE('',*,*,#195,.F.);
#245=ORIENTED_EDGE('',*,*,#196,.F.);
#246=ORIENTED_EDGE('',*,*,#197,.F.);
#247=ORIENTED_EDGE('',*,*,#194,.T.);
#248=ORIENTED_EDGE('',*,*,#198,.T.);
#249=ORIENTED_EDGE('',*,*,#199,.F.);
#250=ORIENTED_EDGE('',*,*,#195,.T.);
#251=ORIENTED_EDGE('',*,*,#200,.F.);
#252=ORIENTED_EDGE('',*,*,#201,.T.);
#253=ORIENTED_EDGE('',*,*,#202,.T.);
#254=ORIENTED_EDGE('',*,*,#203,.T.);
#255=ORIENTED_EDGE('',*,*,#202,.F.);
#256=ORIENTED_EDGE('',*,*,#204,.T.);
#257=ORIENTED_EDGE('',*,*,#205,.F.);
#258=ORIENTED_EDGE('',*,*,#206,.F.);
#259=ORIENTED_EDGE('',*,*,#207,.T.);
#260=ORIENTED_EDGE('',*,*,#205,.T.);
#261=ORIENTED_EDGE('',*,*,#208,.T.);
#262=ORIENTED_EDGE('',*,*,#209,.T.);
#263=ORIENTED_EDGE('',*,*,#210,.F.);
#264=ORIENTED_EDGE('',*,*,#211,.T.);
#265=ORIENTED_EDGE('',*,*,#212,.T.);
#266=ORIENTED_EDGE('',*,*,#213,.T.);
#267=ORIENTED_EDGE('',*,*,#212,.F.);
#268=ORIENTED_EDGE('',*,*,#214,.T.);
#269=ORIENTED_EDGE('',*,*,#215,.F.);
#270=ORIENTED_EDGE('',*,*,#216,.F.);
#271=ORIENTED_EDGE('',*,*,#217,.T.);
#272=ORIENTED_EDGE('',*,*,#215,.T.);
#273=ORIENTED_EDGE('',*,*,#218,.T.);
#274=ORIENTED_EDGE('',*,*,#219,.T.);
#275=ORIENTED_EDGE('',*,*,#193,.T.);
#276=ORIENTED_EDGE('',*,*,#220,.F.);
#277=ORIENTED_EDGE('',*,*,#221,.F.);
#278=ORIENTED_EDGE('',*,*,#198,.F.);
#279=ORIENTED_EDGE('',*,*,#222,.F.);
#280=ORIENTED_EDGE('',*,*,#203,.F.);
#281=ORIENTED_EDGE('',*,*,#206,.T.);
#282=ORIENTED_EDGE('',*,*,#207,.F.);
#283=ORIENTED_EDGE('',*,*,#223,.F.);
#284=ORIENTED_EDGE('',*,*,#224,.F.);
#285=ORIENTED_EDGE('',*,*,#221,.T.);
#286=ORIENTED_EDGE('',*,*,#225,.F.);
#287=ORIENTED_EDGE('',*,*,#224,.T.);
#288=ORIENTED_EDGE('',*,*,#226,.F.);
#289=ORIENTED_EDGE('',*,*,#227,.F.);
#290=ORIENTED_EDGE('',*,*,#228,.F.);
#291=ORIENTED_EDGE('',*,*,#196,.T.);
#292=ORIENTED_EDGE('',*,*,#199,.T.);
#293=ORIENTED_EDGE('',*,*,#229,.F.);
#294=ORIENTED_EDGE('',*,*,#227,.T.);
#295=ORIENTED_EDGE('',*,*,#230,.T.);
#296=ORIENTED_EDGE('',*,*,#218,.F.);
#297=ORIENTED_EDGE('',*,*,#214,.F.);
#298=ORIENTED_EDGE('',*,*,#211,.F.);
#299=ORIENTED_EDGE('',*,*,#231,.T.);
#300=ORIENTED_EDGE('',*,*,#213,.F.);
#301=ORIENTED_EDGE('',*,*,#216,.T.);
#302=ORIENTED_EDGE('',*,*,#217,.F.);
#303=ORIENTED_EDGE('',*,*,#232,.F.);
#304=ORIENTED_EDGE('',*,*,#233,.F.);
#305=ORIENTED_EDGE('',*,*,#234,.T.);
#306=ORIENTED_EDGE('',*,*,#233,.T.);
#307=ORIENTED_EDGE('',*,*,#235,.F.);
#308=ORIENTED_EDGE('',*,*,#236,.F.);
#309=ORIENTED_EDGE('',*,*,#237,.T.);
#310=ORIENTED_EDGE('',*,*,#236,.T.);
#311=ORIENTED_EDGE('',*,*,#238,.T.);
#312=ORIENTED_EDGE('',*,*,#208,.F.);
#313=ORIENTED_EDGE('',*,*,#204,.F.);
#314=ORIENTED_EDGE('',*,*,#201,.F.);
#315=ORIENTED_EDGE('',*,*,#238,.F.);
#316=ORIENTED_EDGE('',*,*,#235,.T.);
#317=ORIENTED_EDGE('',*,*,#232,.T.);
#318=ORIENTED_EDGE('',*,*,#219,.F.);
#319=ORIENTED_EDGE('',*,*,#230,.F.);
#320=ORIENTED_EDGE('',*,*,#226,.T.);
#321=ORIENTED_EDGE('',*,*,#223,.T.);
#322=ORIENTED_EDGE('',*,*,#209,.F.);
#323=ORIENTED_EDGE('',*,*,#192,.T.);
#324=ORIENTED_EDGE('',*,*,#197,.T.);
#325=ORIENTED_EDGE('',*,*,#228,.T.);
#326=ORIENTED_EDGE('',*,*,#229,.T.);
#327=ORIENTED_EDGE('',*,*,#210,.T.);
#328=ORIENTED_EDGE('',*,*,#231,.F.);
#329=ORIENTED_EDGE('',*,*,#234,.F.);
#330=ORIENTED_EDGE('',*,*,#237,.F.);
#331=ORIENTED_EDGE('',*,*,#200,.T.);
#332=ORIENTED_EDGE('',*,*,#222,.T.);
#333=ORIENTED_EDGE('',*,*,#225,.T.);
#334=ORIENTED_EDGE('',*,*,#220,.T.);
#335=PLANE('',#398);
#336=PLANE('',#399);
#337=PLANE('',#400);
#338=PLANE('',#401);
#339=PLANE('',#402);
#340=PLANE('',#403);
#341=PLANE('',#404);
#342=PLANE('',#405);
#343=PLANE('',#406);
#344=PLANE('',#407);
#345=PLANE('',#408);
#346=PLANE('',#409);
#347=PLANE('',#410);
#348=PLANE('',#411);
#349=PLANE('',#412);
#350=PLANE('',#413);
#351=PLANE('',#414);
#352=PLANE('',#415);
#353=ADVANCED_FACE('',(#27),#335,.F.);
#354=ADVANCED_FACE('',(#28),#336,.T.);
#355=ADVANCED_FACE('',(#29),#337,.T.);
#356=ADVANCED_FACE('',(#30),#338,.F.);
#357=ADVANCED_FACE('',(#31),#339,.T.);
#358=ADVANCED_FACE('',(#32),#340,.T.);
#359=ADVANCED_FACE('',(#33),#341,.F.);
#360=ADVANCED_FACE('',(#34),#342,.T.);
#361=ADVANCED_FACE('',(#35),#343,.T.);
#362=ADVANCED_FACE('',(#36),#344,.T.);
#363=ADVANCED_FACE('',(#37),#345,.T.);
#364=ADVANCED_FACE('',(#38),#346,.T.);
#365=ADVANCED_FACE('',(#39),#347,.T.);
#366=ADVANCED_FACE('',(#40),#348,.T.);
#367=ADVANCED_FACE('',(#41),#349,.T.);
#368=ADVANCED_FACE('',(#42),#350,.T.);
#369=ADVANCED_FACE('',(#43),#351,.T.);
#370=ADVANCED_FACE('',(#44),#352,.F.);
#371=CLOSED_SHELL('',(#353,#354,#355,#356,#357,#358,#359,#360,#361,#362,
#363,#364,#365,#366,#367,#368,#369,#370));
#372=DERIVED_UNIT_ELEMENT(#376,1.);
#373=DERIVED_UNIT_ELEMENT(#634,-3.);
#374=DERIVED_UNIT_ELEMENT(#376,1.);
#375=DERIVED_UNIT_ELEMENT(#634,-3.);
#376=(
MASS_UNIT()
NAMED_UNIT(*)
SI_UNIT(.KILO.,.GRAM.)
);
#377=DERIVED_UNIT((#372,#373));
#378=DERIVED_UNIT((#374,#375));
#379=MEASURE_REPRESENTATION_ITEM('density measure',
POSITIVE_RATIO_MEASURE(7850.),#377);
#380=MEASURE_REPRESENTATION_ITEM('density measure',
POSITIVE_RATIO_MEASURE(7850.),#378);
#381=PROPERTY_DEFINITION_REPRESENTATION(#391,#385);
#382=PROPERTY_DEFINITION_REPRESENTATION(#392,#386);
#383=PROPERTY_DEFINITION_REPRESENTATION(#393,#387);
#384=PROPERTY_DEFINITION_REPRESENTATION(#394,#388);
#385=REPRESENTATION('material name',(#389),#630);
#386=REPRESENTATION('density',(#379),#630);
#387=REPRESENTATION('material name',(#390),#631);
#388=REPRESENTATION('density',(#380),#631);
#389=DESCRIPTIVE_REPRESENTATION_ITEM('Steel','Steel');
#390=DESCRIPTIVE_REPRESENTATION_ITEM('Steel','Steel');
#391=PROPERTY_DEFINITION('material property','material name',#655);
#392=PROPERTY_DEFINITION('material property','density of part',#655);
#393=PROPERTY_DEFINITION('material property','material name',#656);
#394=PROPERTY_DEFINITION('material property','density of part',#656);
#395=AXIS2_PLACEMENT_3D('',#518,#420,#421);
#396=AXIS2_PLACEMENT_3D('',#519,#422,#423);
#397=AXIS2_PLACEMENT_3D('',#520,#424,#425);
#398=AXIS2_PLACEMENT_3D('',#521,#426,#427);
#399=AXIS2_PLACEMENT_3D('',#530,#432,#433);
#400=AXIS2_PLACEMENT_3D('',#536,#437,#438);
#401=AXIS2_PLACEMENT_3D('',#540,#441,#442);
#402=AXIS2_PLACEMENT_3D('',#549,#447,#448);
#403=AXIS2_PLACEMENT_3D('',#555,#452,#453);
#404=AXIS2_PLACEMENT_3D('',#561,#457,#458);
#405=AXIS2_PLACEMENT_3D('',#570,#463,#464);
#406=AXIS2_PLACEMENT_3D('',#576,#468,#469);
#407=AXIS2_PLACEMENT_3D('',#582,#473,#474);
#408=AXIS2_PLACEMENT_3D('',#586,#477,#478);
#409=AXIS2_PLACEMENT_3D('',#592,#482,#483);
#410=AXIS2_PLACEMENT_3D('',#599,#488,#489);
#411=AXIS2_PLACEMENT_3D('',#602,#492,#493);
#412=AXIS2_PLACEMENT_3D('',#608,#497,#498);
#413=AXIS2_PLACEMENT_3D('',#614,#502,#503);
#414=AXIS2_PLACEMENT_3D('',#617,#506,#507);
#415=AXIS2_PLACEMENT_3D('',#618,#508,#509);
#416=AXIS2_PLACEMENT_3D('',#619,#510,#511);
#417=AXIS2_PLACEMENT_3D('',#620,#512,#513);
#418=AXIS2_PLACEMENT_3D('',#621,#514,#515);
#419=AXIS2_PLACEMENT_3D('',#622,#516,#517);
#420=DIRECTION('axis',(0.,0.,1.));
#421=DIRECTION('refdir',(1.,0.,0.));
#422=DIRECTION('axis',(0.,0.,1.));
#423=DIRECTION('refdir',(1.,0.,0.));
#424=DIRECTION('axis',(0.,0.,1.));
#425=DIRECTION('refdir',(1.,0.,0.));
#426=DIRECTION('center_axis',(0.,0.,1.));
#427=DIRECTION('ref_axis',(1.,0.,0.));
#428=DIRECTION('',(-1.83697019872103E-16,-1.,0.));
#429=DIRECTION('',(-1.,1.83697019872103E-16,0.));
#430=DIRECTION('',(1.83697019872103E-16,1.,0.));
#431=DIRECTION('',(1.,-1.83697019872103E-16,0.));
#432=DIRECTION('center_axis',(-1.,1.83697019872103E-16,0.));
#433=DIRECTION('ref_axis',(0.,0.,-1.));
#434=DIRECTION('',(0.,0.,-1.));
#435=DIRECTION('',(-1.83697019872103E-16,-1.,0.));
#436=DIRECTION('',(0.,0.,1.));
#437=DIRECTION('center_axis',(-1.83697019872103E-16,-1.,0.));
#438=DIRECTION('ref_axis',(0.,0.,-1.));
#439=DIRECTION('',(0.,0.,1.));
#440=DIRECTION('',(1.,-1.83697019872103E-16,0.));
#441=DIRECTION('center_axis',(0.,0.,1.));
#442=DIRECTION('ref_axis',(1.83697019872103E-16,1.,0.));
#443=DIRECTION('',(1.,-1.83697019872103E-16,0.));
#444=DIRECTION('',(1.83697019872103E-16,1.,0.));
#445=DIRECTION('',(1.,-1.83697019872103E-16,0.));
#446=DIRECTION('',(-1.83697019872103E-16,-1.,0.));
#447=DIRECTION('center_axis',(1.83697019872103E-16,1.,0.));
#448=DIRECTION('ref_axis',(-1.,1.83697019872103E-16,0.));
#449=DIRECTION('',(0.,0.,1.));
#450=DIRECTION('',(-1.,1.83697019872103E-16,0.));
#451=DIRECTION('',(0.,0.,1.));
#452=DIRECTION('center_axis',(0.,0.,1.));
#453=DIRECTION('ref_axis',(-1.83697019872103E-16,-1.,0.));
#454=DIRECTION('',(1.83697019872103E-16,1.,0.));
#455=DIRECTION('',(-1.83697019872103E-16,-1.,0.));
#456=DIRECTION('',(1.,-1.83697019872103E-16,0.));
#457=DIRECTION('center_axis',(0.,0.,1.));
#458=DIRECTION('ref_axis',(1.83697019872103E-16,1.,0.));
#459=DIRECTION('',(1.,-1.83697019872103E-16,0.));
#460=DIRECTION('',(1.83697019872103E-16,1.,0.));
#461=DIRECTION('',(1.,-1.83697019872103E-16,0.));
#462=DIRECTION('',(-1.83697019872103E-16,-1.,0.));
#463=DIRECTION('center_axis',(1.83697019872103E-16,1.,0.));
#464=DIRECTION('ref_axis',(-1.,1.83697019872103E-16,0.));
#465=DIRECTION('',(0.,0.,1.));
#466=DIRECTION('',(-1.,1.83697019872103E-16,0.));
#467=DIRECTION('',(0.,0.,1.));
#468=DIRECTION('center_axis',(0.,0.,1.));
#469=DIRECTION('ref_axis',(-1.83697019872103E-16,-1.,0.));
#470=DIRECTION('',(1.83697019872103E-16,1.,0.));
#471=DIRECTION('',(-1.83697019872103E-16,-1.,0.));
#472=DIRECTION('',(1.,-1.83697019872103E-16,0.));
#473=DIRECTION('center_axis',(1.,-1.83697019872103E-16,0.));
#474=DIRECTION('ref_axis',(0.,0.,1.));
#475=DIRECTION('',(0.,0.,-1.));
#476=DIRECTION('',(1.83697019872103E-16,1.,0.));
#477=DIRECTION('center_axis',(1.,-1.83697019872103E-16,0.));
#478=DIRECTION('ref_axis',(0.,0.,1.));
#479=DIRECTION('',(0.,0.,-1.));
#480=DIRECTION('',(0.,0.,1.));
#481=DIRECTION('',(-1.83697019872103E-16,-1.,0.));
#482=DIRECTION('center_axis',(0.,0.,-1.));
#483=DIRECTION('ref_axis',(1.,-1.83697019872103E-16,0.));
#484=DIRECTION('',(-1.,1.83697019872103E-16,0.));
#485=DIRECTION('',(1.,-1.83697019872103E-16,0.));
#486=DIRECTION('',(-1.83697019872103E-16,-1.,0.));
#487=DIRECTION('',(-1.,1.83697019872103E-16,0.));
#488=DIRECTION('center_axis',(-1.,1.83697019872103E-16,0.));
#489=DIRECTION('ref_axis',(0.,0.,-1.));
#490=DIRECTION('',(0.,0.,1.));
#491=DIRECTION('',(0.,0.,1.));
#492=DIRECTION('center_axis',(1.,-1.83697019872103E-16,0.));
#493=DIRECTION('ref_axis',(0.,0.,1.));
#494=DIRECTION('',(0.,0.,1.));
#495=DIRECTION('',(0.,0.,1.));
#496=DIRECTION('',(-1.83697019872103E-16,-1.,0.));
#497=DIRECTION('center_axis',(0.,0.,1.));
#498=DIRECTION('ref_axis',(-1.,1.83697019872103E-16,0.));
#499=DIRECTION('',(-1.,1.83697019872103E-16,0.));
#500=DIRECTION('',(-1.,1.83697019872103E-16,0.));
#501=DIRECTION('',(-1.83697019872103E-16,-1.,0.));
#502=DIRECTION('center_axis',(-1.,1.83697019872103E-16,0.));
#503=DIRECTION('ref_axis',(0.,0.,-1.));
#504=DIRECTION('',(0.,0.,-1.));
#505=DIRECTION('',(0.,0.,1.));
#506=DIRECTION('center_axis',(-1.83697019872103E-16,-1.,0.));
#507=DIRECTION('ref_axis',(0.,0.,-1.));
#508=DIRECTION('center_axis',(-1.83697019872103E-16,-1.,0.));
#509=DIRECTION('ref_axis',(1.,-1.83697019872103E-16,0.));
#510=DIRECTION('',(0.,0.,1.));
#511=DIRECTION('',(1.,0.,0.));
#512=DIRECTION('axis',(0.,0.,1.));
#513=DIRECTION('refdir',(1.,0.,0.));
#514=DIRECTION('',(0.,0.,1.));
#515=DIRECTION('',(1.,0.,0.));
#516=DIRECTION('',(0.,0.,1.));
#517=DIRECTION('',(1.,0.,0.));
#518=CARTESIAN_POINT('',(0.,0.,0.));
#519=CARTESIAN_POINT('',(0.,0.,0.));
#520=CARTESIAN_POINT('',(0.,0.,0.));
#521=CARTESIAN_POINT('Origin',(-4.18916855409809,-33.,9.82090036050583));
#522=CARTESIAN_POINT('',(-4.00000005960465,-32.,9.82090036050583));
#523=CARTESIAN_POINT('',(-4.00000005960465,-33.,9.82090036050583));
#524=CARTESIAN_POINT('',(-4.00000005960465,-32.5,9.82090036050583));
#525=CARTESIAN_POINT('',(4.00000005960464,-32.,9.82090036050583));
#526=CARTESIAN_POINT('',(-2.09458433665369,-32.,9.82090036050584));
#527=CARTESIAN_POINT('',(4.00000005960464,-33.,9.82090036050583));
#528=CARTESIAN_POINT('',(4.00000005960464,-32.5,9.82090036050583));
#529=CARTESIAN_POINT('',(-2.09458427704905,-33.,9.82090036050583));
#530=CARTESIAN_POINT('Origin',(-4.00000005960465,-32.,20.0000002980232));
#531=CARTESIAN_POINT('',(-4.00000005960465,-33.,20.0000002980232));
#532=CARTESIAN_POINT('',(-4.00000005960465,-33.,8.00000011920929));
#533=CARTESIAN_POINT('',(-4.00000005960465,-32.,20.0000002980232));
#534=CARTESIAN_POINT('',(-4.00000005960465,-32.,20.0000004768372));
#535=CARTESIAN_POINT('',(-4.00000005960465,-32.,8.00000011920929));
#536=CARTESIAN_POINT('Origin',(-6.0620016557794E-15,-33.,14.0000002086163));
#537=CARTESIAN_POINT('',(4.00000005960464,-33.,20.0000002980232));
#538=CARTESIAN_POINT('',(4.00000005960464,-33.,20.0000002980232));
#539=CARTESIAN_POINT('',(-4.00000005960465,-33.,20.0000004768372));
#540=CARTESIAN_POINT('Origin',(6.00000002980232,-31.,32.0000004768372));
#541=CARTESIAN_POINT('',(3.99999994039535,-32.,32.0000004768372));
#542=CARTESIAN_POINT('',(7.99999988079071,-32.,32.0000004768372));
#543=CARTESIAN_POINT('',(-8.00000011920929,-32.,32.0000004768372));
#544=CARTESIAN_POINT('',(3.99999994039535,-28.,32.0000004768372));
#545=CARTESIAN_POINT('',(3.99999994039535,-34.,32.0000004768372));
#546=CARTESIAN_POINT('',(8.00000011920928,-28.,32.0000004768372));
#547=CARTESIAN_POINT('',(3.99999994039535,-28.,32.0000004768372));
#548=CARTESIAN_POINT('',(8.00000011920928,-28.,32.0000004768372));
#549=CARTESIAN_POINT('Origin',(8.00000011920928,-28.,32.0000004768372));
#550=CARTESIAN_POINT('',(3.99999994039535,-28.,34.0000004768372));
#551=CARTESIAN_POINT('',(3.99999994039535,-28.,32.0000004768372));
#552=CARTESIAN_POINT('',(8.00000011920928,-28.,34.0000004768372));
#553=CARTESIAN_POINT('',(3.99999994039535,-28.,34.0000004768372));
#554=CARTESIAN_POINT('',(8.00000011920928,-28.,32.0000004768372));
#555=CARTESIAN_POINT('Origin',(6.00000002980232,-31.,34.0000004768372));
#556=CARTESIAN_POINT('',(8.00000011920928,-34.,34.0000004768372));
#557=CARTESIAN_POINT('',(8.00000011920928,-28.,34.0000004768372));
#558=CARTESIAN_POINT('',(3.99999994039535,-34.,34.0000004768372));
#559=CARTESIAN_POINT('',(3.99999994039535,-34.,34.0000004768372));
#560=CARTESIAN_POINT('',(8.00000011920928,-34.,34.0000004768372));
#561=CARTESIAN_POINT('Origin',(-6.00000008940698,-31.,32.0000004768372));
#562=CARTESIAN_POINT('',(-8.00000011920929,-32.,32.0000004768372));
#563=CARTESIAN_POINT('',(-4.00000005960465,-32.,32.0000004768372));
#564=CARTESIAN_POINT('',(-8.00000011920929,-32.,32.0000004768372));
#565=CARTESIAN_POINT('',(-8.00000011920929,-28.,32.0000004768372));
#566=CARTESIAN_POINT('',(-8.0000001192093,-34.,32.0000004768372));
#567=CARTESIAN_POINT('',(-4.00000005960465,-28.,32.0000004768372));
#568=CARTESIAN_POINT('',(-8.00000011920929,-28.,32.0000004768372));
#569=CARTESIAN_POINT('',(-4.00000005960465,-28.,32.0000004768372));
#570=CARTESIAN_POINT('Origin',(-4.00000005960465,-28.,32.0000004768372));
#571=CARTESIAN_POINT('',(-8.00000011920929,-28.,34.0000004768372));
#572=CARTESIAN_POINT('',(-8.00000011920929,-28.,32.0000004768372));
#573=CARTESIAN_POINT('',(-4.00000005960465,-28.,34.0000004768372));
#574=CARTESIAN_POINT('',(-8.00000011920929,-28.,34.0000004768372));
#575=CARTESIAN_POINT('',(-4.00000005960465,-28.,32.0000004768372));
#576=CARTESIAN_POINT('Origin',(-6.00000008940698,-31.,34.0000004768372));
#577=CARTESIAN_POINT('',(-4.00000005960465,-34.,34.0000004768372));
#578=CARTESIAN_POINT('',(-4.00000005960465,-28.,34.0000004768372));
#579=CARTESIAN_POINT('',(-8.0000001192093,-34.,34.0000004768372));
#580=CARTESIAN_POINT('',(-8.0000001192093,-34.,34.0000004768372));
#581=CARTESIAN_POINT('',(-4.00000005960465,-34.,34.0000004768372));
#582=CARTESIAN_POINT('Origin',(4.00000005960464,-32.,8.00000011920929));
#583=CARTESIAN_POINT('',(4.00000005960464,-32.,20.0000002980232));
#584=CARTESIAN_POINT('',(4.00000005960464,-32.,20.0000002980232));
#585=CARTESIAN_POINT('',(4.00000005960464,-32.,20.0000004768372));
#586=CARTESIAN_POINT('Origin',(7.99999988079071,-32.,20.0000004768372));
#587=CARTESIAN_POINT('',(7.99999988079071,-32.,20.0000004768372));
#588=CARTESIAN_POINT('',(7.99999988079071,-32.,32.0000004768372));
#589=CARTESIAN_POINT('',(7.99999988079071,-34.,20.0000004768372));
#590=CARTESIAN_POINT('',(7.99999988079071,-34.,32.0000004768372));
#591=CARTESIAN_POINT('',(7.99999988079071,-32.,20.0000004768372));
#592=CARTESIAN_POINT('Origin',(-8.00000011920929,-32.,20.0000004768372));
#593=CARTESIAN_POINT('',(7.99999988079071,-32.,20.0000004768372));
#594=CARTESIAN_POINT('',(-8.0000001192093,-34.,20.0000004768372));
#595=CARTESIAN_POINT('',(7.99999988079071,-34.,20.0000004768372));
#596=CARTESIAN_POINT('',(-8.00000011920929,-32.,20.0000004768372));
#597=CARTESIAN_POINT('',(-8.00000011920929,-32.,20.0000004768372));
#598=CARTESIAN_POINT('',(7.99999988079071,-32.,20.0000004768372));
#599=CARTESIAN_POINT('Origin',(-8.00000011920929,-32.,32.0000004768372));
#600=CARTESIAN_POINT('',(-8.00000011920929,-32.,20.0000004768372));
#601=CARTESIAN_POINT('',(-8.0000001192093,-34.,32.0000004768372));
#602=CARTESIAN_POINT('Origin',(-4.00000005960465,-32.,24.0000004768372));
#603=CARTESIAN_POINT('',(-4.00000005960465,-32.,24.0000004768372));
#604=CARTESIAN_POINT('',(-4.00000005960465,-32.,24.0000004768372));
#605=CARTESIAN_POINT('',(-4.00000005960465,-34.,24.0000004768372));
#606=CARTESIAN_POINT('',(-4.00000005960465,-34.,24.0000004768372));
#607=CARTESIAN_POINT('',(-4.00000005960465,-32.,24.0000004768372));
#608=CARTESIAN_POINT('Origin',(3.99999994039535,-32.,24.0000004768372));
#609=CARTESIAN_POINT('',(3.99999994039535,-32.,24.0000004768372));
#610=CARTESIAN_POINT('',(3.99999994039535,-32.,24.0000004768372));
#611=CARTESIAN_POINT('',(3.99999994039535,-34.,24.0000004768372));
#612=CARTESIAN_POINT('',(3.99999994039535,-34.,24.0000004768372));
#613=CARTESIAN_POINT('',(3.99999994039535,-32.,24.0000004768372));
#614=CARTESIAN_POINT('Origin',(3.99999994039535,-32.,32.0000004768372));
#615=CARTESIAN_POINT('',(3.99999994039535,-32.,32.0000004768372));
#616=CARTESIAN_POINT('',(3.99999994039535,-34.,32.0000004768372));
#617=CARTESIAN_POINT('Origin',(-1.19209295352391E-7,-34.,26.0000004768372));
#618=CARTESIAN_POINT('Origin',(-1.19209294984997E-7,-32.,26.0000004768372));
#619=CARTESIAN_POINT('',(0.,0.,0.));
#620=CARTESIAN_POINT('',(0.,0.,0.));
#621=CARTESIAN_POINT('',(0.,0.,0.));
#622=CARTESIAN_POINT('',(0.,0.,0.));
#623=UNCERTAINTY_MEASURE_WITH_UNIT(LENGTH_MEASURE(0.01),#633,
'DISTANCE_ACCURACY_VALUE',
'Maximum model space distance between geometric entities at asserted c
onnectivities');
#624=UNCERTAINTY_MEASURE_WITH_UNIT(LENGTH_MEASURE(0.01),#633,
'DISTANCE_ACCURACY_VALUE',
'Maximum model space distance between geometric entities at asserted c
onnectivities');
#625=UNCERTAINTY_MEASURE_WITH_UNIT(LENGTH_MEASURE(0.01),#633,
'DISTANCE_ACCURACY_VALUE',
'Maximum model space distance between geometric entities at asserted c
onnectivities');
#626=UNCERTAINTY_MEASURE_WITH_UNIT(LENGTH_MEASURE(0.01),#633,
'DISTANCE_ACCURACY_VALUE',
'Maximum model space distance between geometric entities at asserted c
onnectivities');
#627=UNCERTAINTY_MEASURE_WITH_UNIT(LENGTH_MEASURE(0.01),#633,
'DISTANCE_ACCURACY_VALUE',
'Maximum model space distance between geometric entities at asserted c
onnectivities');
#628=(
GEOMETRIC_REPRESENTATION_CONTEXT(3)
GLOBAL_UNCERTAINTY_ASSIGNED_CONTEXT((#623))
GLOBAL_UNIT_ASSIGNED_CONTEXT((#633,#635,#636))
REPRESENTATION_CONTEXT('','3D')
);
#629=(
GEOMETRIC_REPRESENTATION_CONTEXT(3)
GLOBAL_UNCERTAINTY_ASSIGNED_CONTEXT((#624))
GLOBAL_UNIT_ASSIGNED_CONTEXT((#633,#635,#636))
REPRESENTATION_CONTEXT('','3D')
);
#630=(
GEOMETRIC_REPRESENTATION_CONTEXT(3)
GLOBAL_UNCERTAINTY_ASSIGNED_CONTEXT((#625))
GLOBAL_UNIT_ASSIGNED_CONTEXT((#633,#635,#636))
REPRESENTATION_CONTEXT('','3D')
);
#631=(
GEOMETRIC_REPRESENTATION_CONTEXT(3)
GLOBAL_UNCERTAINTY_ASSIGNED_CONTEXT((#626))
GLOBAL_UNIT_ASSIGNED_CONTEXT((#633,#635,#636))
REPRESENTATION_CONTEXT('','3D')
);
#632=(
GEOMETRIC_REPRESENTATION_CONTEXT(3)
GLOBAL_UNCERTAINTY_ASSIGNED_CONTEXT((#627))
GLOBAL_UNIT_ASSIGNED_CONTEXT((#633,#635,#636))
REPRESENTATION_CONTEXT('','3D')
);
#633=(
LENGTH_UNIT()
NAMED_UNIT(*)
SI_UNIT(.MILLI.,.METRE.)
);
#634=(
LENGTH_UNIT()
NAMED_UNIT(*)
SI_UNIT($,.METRE.)
);
#635=(
NAMED_UNIT(*)
PLANE_ANGLE_UNIT()
SI_UNIT($,.RADIAN.)
);
#636=(
NAMED_UNIT(*)
SI_UNIT($,.STERADIAN.)
SOLID_ANGLE_UNIT()
);
#637=SHAPE_DEFINITION_REPRESENTATION(#641,#648);
#638=SHAPE_DEFINITION_REPRESENTATION(#642,#649);
#639=SHAPE_DEFINITION_REPRESENTATION(#643,#650);
#640=SHAPE_DEFINITION_REPRESENTATION(#645,#651);
#641=PRODUCT_DEFINITION_SHAPE('',$,#653);
#642=PRODUCT_DEFINITION_SHAPE('',$,#654);
#643=PRODUCT_DEFINITION_SHAPE('',$,#655);
#644=PRODUCT_DEFINITION_SHAPE($,$,#20);
#645=PRODUCT_DEFINITION_SHAPE('',$,#656);
#646=PRODUCT_DEFINITION_SHAPE($,$,#21);
#647=PRODUCT_DEFINITION_SHAPE($,$,#22);
#648=SHAPE_REPRESENTATION('',(#395,#418,#419),#628);
#649=SHAPE_REPRESENTATION('',(#396,#416),#629);
#650=SHAPE_REPRESENTATION('',(#397),#630);
#651=SHAPE_REPRESENTATION('',(#417),#631);
#652=PRODUCT_DEFINITION_CONTEXT('part definition',#666,'design');
#653=PRODUCT_DEFINITION('sculk shrieker','sculk shrieker v16',#657,#652);
#654=PRODUCT_DEFINITION('decor','decor',#658,#652);
#655=PRODUCT_DEFINITION('Component13','Component13',#659,#652);
#656=PRODUCT_DEFINITION('body','body',#660,#652);
#657=PRODUCT_DEFINITION_FORMATION('',$,#668);
#658=PRODUCT_DEFINITION_FORMATION('',$,#669);
#659=PRODUCT_DEFINITION_FORMATION('',$,#670);
#660=PRODUCT_DEFINITION_FORMATION('',$,#671);
#661=PRODUCT_RELATED_PRODUCT_CATEGORY('sculk shrieker v16',
'sculk shrieker v16',(#668));
#662=PRODUCT_RELATED_PRODUCT_CATEGORY('decor','decor',(#669));
#663=PRODUCT_RELATED_PRODUCT_CATEGORY('Component13','Component13',(#670));
#664=PRODUCT_RELATED_PRODUCT_CATEGORY('body','body',(#671));
#665=APPLICATION_PROTOCOL_DEFINITION('international standard',
'automotive_design',2009,#666);
#666=APPLICATION_CONTEXT(
'Core Data for Automotive Mechanical Design Process');
#667=PRODUCT_CONTEXT('part definition',#666,'mechanical');
#668=PRODUCT('sculk shrieker','sculk shrieker v16',$,(#667));
#669=PRODUCT('decor','decor',$,(#667));
#670=PRODUCT('Component13','Component13',$,(#667));
#671=PRODUCT('body','body',$,(#667));
#672=PRESENTATION_STYLE_ASSIGNMENT((#676));
#673=PRESENTATION_STYLE_ASSIGNMENT((#677));
#674=PRESENTATION_STYLE_ASSIGNMENT((#678));
#675=PRESENTATION_STYLE_ASSIGNMENT((#679));
#676=SURFACE_STYLE_USAGE(.BOTH.,#680);
#677=SURFACE_STYLE_USAGE(.BOTH.,#681);
#678=SURFACE_STYLE_USAGE(.BOTH.,#682);
#679=SURFACE_STYLE_USAGE(.BOTH.,#683);
#680=SURFACE_SIDE_STYLE('',(#684));
#681=SURFACE_SIDE_STYLE('',(#685));
#682=SURFACE_SIDE_STYLE('',(#686));
#683=SURFACE_SIDE_STYLE('',(#687));
#684=SURFACE_STYLE_FILL_AREA(#688);
#685=SURFACE_STYLE_FILL_AREA(#689);
#686=SURFACE_STYLE_FILL_AREA(#690);
#687=SURFACE_STYLE_FILL_AREA(#691);
#688=FILL_AREA_STYLE('Steel - Satin',(#692));
#689=FILL_AREA_STYLE('bone light',(#693));
#690=FILL_AREA_STYLE('sculk',(#694));
#691=FILL_AREA_STYLE('lighter sculk',(#695));
#692=FILL_AREA_STYLE_COLOUR('Steel - Satin',#696);
#693=FILL_AREA_STYLE_COLOUR('bone light',#697);
#694=FILL_AREA_STYLE_COLOUR('sculk',#698);
#695=FILL_AREA_STYLE_COLOUR('lighter sculk',#699);
#696=COLOUR_RGB('Steel - Satin',0.627450980392157,0.627450980392157,0.627450980392157);
#697=COLOUR_RGB('bone light',0.815686274509804,0.843137254901961,0.713725490196078);
#698=COLOUR_RGB('sculk',0.0235294117647059,0.184313725490196,0.211764705882353);
#699=COLOUR_RGB('lighter sculk',0.0588235294117647,0.309803921568627,0.337254901960784);
ENDSEC;
END-ISO-10303-21;
